<svg id="Layer_1" data-name="Layer 1" xmlns="http://www.w3.org/2000/svg" xmlns:xlink="http://www.w3.org/1999/xlink" viewBox="0 0 1190.55 753.89"><defs><style>.cls-1,.cls-17{fill:none;}.cls-2{clip-path:url(#clip-path);}.cls-3{isolation:isolate;}.cls-4{clip-path:url(#clip-path-2);}.cls-5{fill:#e6e7e8;}.cls-6{font-size:36px;}.cls-52,.cls-6{fill:#169252;}.cls-24,.cls-6{font-family:MyriadPro-Regular, Myriad Pro;}.cls-7{letter-spacing:-0.01em;}.cls-8{letter-spacing:0.01em;}.cls-9{letter-spacing:0em;}.cls-10{letter-spacing:0.01em;}.cls-11{fill:#f1f2f2;}.cls-12{clip-path:url(#clip-path-4);}.cls-13,.cls-15,.cls-24{fill:#231f20;}.cls-13{fill-rule:evenodd;}.cls-14{clip-path:url(#clip-path-5);}.cls-16{clip-path:url(#clip-path-7);}.cls-17{stroke:#000;stroke-miterlimit:10;stroke-width:0.5px;}.cls-18{clip-path:url(#clip-path-12);}.cls-19{clip-path:url(#clip-path-15);}.cls-20{clip-path:url(#clip-path-18);}.cls-21{letter-spacing:0.02em;}.cls-22{letter-spacing:0em;}.cls-23{letter-spacing:0em;}.cls-24{font-size:12px;}.cls-25{letter-spacing:0em;}.cls-26{letter-spacing:-0.01em;}.cls-27{letter-spacing:0.02em;}.cls-28{letter-spacing:0em;}.cls-29{letter-spacing:-0.01em;}.cls-30{letter-spacing:-0.01em;}.cls-31{letter-spacing:-0.01em;}.cls-32{letter-spacing:0.01em;}.cls-33{letter-spacing:0em;}.cls-34{letter-spacing:-0.01em;}.cls-35{letter-spacing:-0.01em;}.cls-36{letter-spacing:0.01em;}.cls-37{letter-spacing:0.02em;}.cls-38{letter-spacing:0em;}.cls-39{letter-spacing:0em;}.cls-40{letter-spacing:-0.01em;}.cls-41{letter-spacing:-0.01em;}.cls-42{letter-spacing:-0.01em;}.cls-43{letter-spacing:0em;}.cls-44{letter-spacing:0em;}.cls-45{letter-spacing:-0.01em;}.cls-46{letter-spacing:0.02em;}.cls-47{letter-spacing:0em;}.cls-48{letter-spacing:-0.01em;}.cls-49{letter-spacing:-0.05em;}.cls-50{letter-spacing:0.01em;}.cls-51{letter-spacing:-0.04em;}.cls-53{letter-spacing:-0.01em;}.cls-54{letter-spacing:0.01em;}.cls-55{letter-spacing:-0.01em;}.cls-56{letter-spacing:-0.01em;}.cls-57{letter-spacing:-0.01em;}.cls-58{letter-spacing:-0.05em;}.cls-59{letter-spacing:0em;}.cls-60{letter-spacing:0.02em;}.cls-61{letter-spacing:0.01em;}.cls-62{letter-spacing:-0.01em;}.cls-63{letter-spacing:-0.02em;}.cls-64{clip-path:url(#clip-path-36);}.cls-65{clip-path:url(#clip-path-39);}.cls-66{clip-path:url(#clip-path-42);}.cls-67{letter-spacing:0.02em;}.cls-68{letter-spacing:-0.01em;}.cls-69{letter-spacing:0em;}.cls-70{letter-spacing:0.01em;}.cls-71{letter-spacing:0.03em;}.cls-72{letter-spacing:0em;}.cls-73{letter-spacing:0.02em;}.cls-74{letter-spacing:0.02em;}.cls-75{letter-spacing:-0.01em;}.cls-76{letter-spacing:0em;}.cls-77{letter-spacing:0em;}.cls-78{letter-spacing:0.01em;}.cls-79{letter-spacing:0em;}.cls-80{letter-spacing:0.01em;}.cls-81{letter-spacing:-0.02em;}.cls-82{letter-spacing:0.01em;}.cls-83{letter-spacing:0.02em;}.cls-84{letter-spacing:-0.02em;}.cls-85{letter-spacing:0.01em;}.cls-86{letter-spacing:0.01em;}.cls-87{letter-spacing:-0.01em;}.cls-88{letter-spacing:0.02em;}.cls-89{letter-spacing:0em;}.cls-90{fill:#010101;}.cls-91{letter-spacing:-0.03em;}.cls-92{letter-spacing:-0.02em;}.cls-93{letter-spacing:-0.01em;}.cls-94{letter-spacing:-0.04em;}.cls-95{letter-spacing:0.01em;}</style><clipPath id="clip-path"><rect class="cls-1" y="-88" width="1190.55" height="841.89"/></clipPath><clipPath id="clip-path-2"><rect class="cls-1" y="-88.11" width="1191" height="802"/></clipPath><clipPath id="clip-path-4"><rect class="cls-1" y="-88" width="1190.55" height="801.89"/></clipPath><clipPath id="clip-path-5"><path class="cls-1" d="M704.45,129.7l-2.84,10.19a2.78,2.78,0,0,0-.1.76,5.65,5.65,0,0,0,3.5,5.25,5.77,5.77,0,0,0,2.18.44,5.67,5.67,0,0,0,3.89-1.55l14.16-11.49h1.84a2.84,2.84,0,0,0,0-5.68h-2.84a2.81,2.81,0,0,0-1.79.63l-15,12.2-.07.06,2.58-9.29a2.84,2.84,0,1,0-5.47-1.52"/></clipPath><clipPath id="clip-path-7"><path class="cls-1" d="M724.24,127.62a2.81,2.81,0,0,0-1.79.63l-15,12.2-.07.06,2.58-9.29a2.84,2.84,0,1,0-5.47-1.52l-2.84,10.19a2.78,2.78,0,0,0-.1.76,5.65,5.65,0,0,0,3.5,5.25,5.77,5.77,0,0,0,2.18.44,5.67,5.67,0,0,0,3.89-1.55l14.16-11.49h1.84a2.84,2.84,0,0,0,0-5.68Z"/></clipPath><clipPath id="clip-path-12"><path class="cls-1" d="M724.24,79.32c-15.67,0-28.42,12.1-28.42,27a25.94,25.94,0,0,0,4.35,14.35,2.84,2.84,0,0,0,4.74-3.14,20.18,20.18,0,0,1-3.4-11.21C701.51,94.56,711.7,85,724.24,85H735.6c12.54,0,22.73,9.56,22.73,21.31s-10.19,21.31-22.73,21.31H724.24a2.84,2.84,0,0,0,0,5.68H735.6c15.67,0,28.42-12.11,28.42-27s-12.75-27-28.42-27Z"/></clipPath><clipPath id="clip-path-15"><path class="cls-1" d="M1000.63,101a18.67,18.67,0,1,1,37.33,0c0,10.58-8.37,19.18-18.66,19.18A19,19,0,0,1,1000.63,101m-5.34,0c0,13.59,10.77,24.66,24,24.66s24-11.07,24-24.66-10.77-24.65-24-24.65-24,11.06-24,24.65"/></clipPath><clipPath id="clip-path-18"><path class="cls-1" d="M1031.12,117.33a2.8,2.8,0,0,0,0,3.91l18.8,19.21a6.67,6.67,0,0,0,9.56,0,7,7,0,0,0,0-9.77l-11.68-11.92a2.66,2.66,0,0,0-3.82,0,2.8,2.8,0,0,0,0,3.91l11.67,11.92a1.39,1.39,0,0,1,0,1.95,1.31,1.31,0,0,1-1.91,0l-18.8-19.21a2.66,2.66,0,0,0-3.82,0"/></clipPath><clipPath id="clip-path-36"><path class="cls-1" d="M428.68,105.64c0,22.68,13,26.07,20.71,26.07s20.71-3.39,20.71-26.07A20.83,20.83,0,0,0,468.67,98a2.58,2.58,0,0,0-3.35-1.48,2.61,2.61,0,0,0-1.46,3.38,15.65,15.65,0,0,1,1.06,5.72c0,14-5.08,20.86-15.53,20.86s-15.53-6.83-15.53-20.86A15.61,15.61,0,0,1,449.39,90a15.39,15.39,0,0,1,7.17,1.76,12.68,12.68,0,0,1,1.28.76,2.57,2.57,0,0,0,3.58-.75,2.61,2.61,0,0,0-.74-3.61,19.73,19.73,0,0,0-1.73-1,20.71,20.71,0,0,0-30.27,18.52"/></clipPath><clipPath id="clip-path-39"><path class="cls-1" d="M441.63,126.5c-11.31,0-21,12.16-23.1,17.23a2.62,2.62,0,0,0,1.38,3.42,2.58,2.58,0,0,0,3.39-1.39c1.62-3.87,9.71-14,18.33-14h15.53c8.62,0,16.7,10.18,18.32,14a2.59,2.59,0,1,0,4.77-2c-2.12-5.07-11.78-17.23-23.09-17.23Z"/></clipPath><clipPath id="clip-path-42"><path class="cls-1" d="M459.75,131.71c0,1.31-1.22,2.38-1.95,2.9a11.83,11.83,0,0,1-3.89,1.75,17.44,17.44,0,0,1-4.52.57c-5.92,0-10.35-2.76-10.35-5.22a2.59,2.59,0,1,0-5.18,0c0,5.85,6.82,10.43,15.53,10.43a23.24,23.24,0,0,0,5.84-.73,17.21,17.21,0,0,0,5.59-2.55,8.9,8.9,0,0,0,4.1-7.15,2.59,2.59,0,1,0-5.17,0"/></clipPath></defs><title>Usability</title><g class="cls-2"><g class="cls-3"><g class="cls-4"><g class="cls-4"><rect class="cls-5" x="33.39" y="167.71" width="1118.23" height="51.59"/><text class="cls-6" transform="translate(93.57 55.53)"><tspan class="cls-7">U</tspan><tspan x="23.11" y="0">sabili</tspan><tspan class="cls-8" x="100.55" y="0">t</tspan><tspan class="cls-9" x="112.75" y="0">y</tspan></text><text class="cls-6" transform="translate(685.26 55.53)"><tspan class="cls-10">S</tspan><tspan x="17.96" y="0">ocial</tspan></text><text class="cls-6" transform="translate(926.75 55.78)">Suggestions</text><rect class="cls-11" x="33.39" y="238.6" width="257.99" height="188.77"/><rect class="cls-11" x="606.28" y="238.82" width="257.99" height="188.77"/><rect class="cls-11" x="893.64" y="238.82" width="257.99" height="188.77"/></g><g class="cls-12"><path class="cls-13" d="M707.19,146.33a5.76,5.76,0,0,1-2.18-.43,5.65,5.65,0,0,1-3.5-5.25,2.86,2.86,0,0,1,.1-.77l2.84-10.18a2.84,2.84,0,1,1,5.47,1.52l-2.58,9.29.07-.06,15-12.2a2.81,2.81,0,0,1,1.79-.63h2.84a2.84,2.84,0,0,1,0,5.68h-1.84l-14.16,11.49a5.66,5.66,0,0,1-3.89,1.54"/></g><g class="cls-14"><g class="cls-4"><rect class="cls-15" x="-64.05" y="-12.02" width="974.19" height="730.64"/></g></g><g class="cls-16"><g class="cls-4"><rect class="cls-15" x="695.42" y="121.53" width="40.59" height="30.89"/><rect class="cls-17" x="695.42" y="121.53" width="40.59" height="30.89"/></g></g><g class="cls-14"><g class="cls-4"><rect class="cls-17" x="-64.05" y="-12.02" width="974.19" height="730.64"/></g></g><g class="cls-12"><path class="cls-17" d="M707.19,146.33a5.76,5.76,0,0,1-2.18-.43,5.65,5.65,0,0,1-3.5-5.25,2.86,2.86,0,0,1,.1-.77l2.84-10.18a2.84,2.84,0,1,1,5.47,1.52l-2.58,9.29.07-.06,15-12.2a2.81,2.81,0,0,1,1.79-.63h2.84a2.84,2.84,0,0,1,0,5.68h-1.84l-14.16,11.49a5.66,5.66,0,0,1-3.89,1.54"/><path class="cls-13" d="M735.6,133.3H724.24a2.84,2.84,0,0,1,0-5.68H735.6c12.54,0,22.73-9.56,22.73-21.31S748.14,85,735.6,85H724.24c-12.54,0-22.73,9.56-22.73,21.31a20.2,20.2,0,0,0,3.4,11.21,2.84,2.84,0,0,1-4.74,3.14,25.94,25.94,0,0,1-4.35-14.35c0-14.88,12.75-27,28.42-27H735.6c15.67,0,28.42,12.12,28.42,27s-12.75,27-28.42,27"/></g><g class="cls-18"><g class="cls-4"><rect class="cls-15" x="-64.05" y="-12.02" width="974.19" height="730.64"/><rect class="cls-15" x="689.73" y="73.23" width="80.37" height="66.16"/><rect class="cls-17" x="689.73" y="73.23" width="80.37" height="66.16"/><rect class="cls-17" x="-64.05" y="-12.02" width="974.19" height="730.64"/></g></g><g class="cls-12"><path class="cls-17" d="M735.6,133.3H724.24a2.84,2.84,0,0,1,0-5.68H735.6c12.54,0,22.73-9.56,22.73-21.31S748.14,85,735.6,85H724.24c-12.54,0-22.73,9.56-22.73,21.31a20.2,20.2,0,0,0,3.4,11.21,2.84,2.84,0,0,1-4.74,3.14,25.94,25.94,0,0,1-4.35-14.35c0-14.88,12.75-27,28.42-27H735.6c15.67,0,28.42,12.12,28.42,27s-12.75,27-28.42,27"/><path class="cls-15" d="M719.22,106.31a5.29,5.29,0,1,1-5.29-5.29,5.29,5.29,0,0,1,5.29,5.29"/><path class="cls-17" d="M719.22,106.31a5.29,5.29,0,1,1-5.29-5.29A5.29,5.29,0,0,1,719.22,106.31Z"/><path class="cls-15" d="M736,106.31A5.29,5.29,0,1,1,730.7,101a5.29,5.29,0,0,1,5.29,5.29"/><circle class="cls-17" cx="730.7" cy="106.31" r="5.29" transform="translate(459.35 793.03) rotate(-76.72)"/><path class="cls-15" d="M751.2,106.31a5.29,5.29,0,1,1-5.29-5.29,5.29,5.29,0,0,1,5.29,5.29"/><path class="cls-17" d="M751.2,106.31a5.29,5.29,0,1,1-5.29-5.29A5.29,5.29,0,0,1,751.2,106.31Z"/><path class="cls-13" d="M1019.3,81.78a19.18,19.18,0,0,0,0,38.35c10.29,0,18.66-8.6,18.66-19.18a18.94,18.94,0,0,0-18.66-19.17m0,43.82c-13.24,0-24-11.06-24-24.65s10.76-24.65,24-24.65,24,11.06,24,24.65-10.77,24.65-24,24.65"/></g><g class="cls-19"><g class="cls-4"><rect class="cls-15" x="852.58" y="-23.59" width="1037.91" height="778.43"/><rect class="cls-15" x="988.81" y="69.82" width="60.98" height="62.28"/></g></g><g class="cls-12"><path class="cls-13" d="M1054.7,142.47a6.64,6.64,0,0,1-4.78-2l-18.81-19.21a2.82,2.82,0,0,1,0-3.91,2.67,2.67,0,0,1,3.83,0l18.8,19.21a1.31,1.31,0,0,0,1.91,0,1.39,1.39,0,0,0,0-1.95L1044,122.66a2.79,2.79,0,0,1,0-3.9,2.66,2.66,0,0,1,3.82,0l11.68,11.92a7,7,0,0,1,0,9.77,6.66,6.66,0,0,1-4.78,2"/></g><g class="cls-20"><g class="cls-4"><rect class="cls-15" x="852.58" y="-23.59" width="1037.91" height="778.43"/></g></g><g class="cls-20"><g class="cls-4"><rect class="cls-15" x="1023.84" y="110.04" width="44.11" height="38.92"/></g></g><g class="cls-4"><text class="cls-6" transform="translate(501.56 207.23)">Obse<tspan class="cls-21" x="77.58" y="0">r</tspan><tspan class="cls-22" x="90.21" y="0">v</tspan><tspan class="cls-23" x="107.42" y="0">a</tspan><tspan x="124.63" y="0">tions</tspan></text><text class="cls-24" transform="translate(58.46 266.61)"><tspan class="cls-25">A</tspan><tspan x="7.32" y="0">ll </tspan></text><path class="cls-15" d="M75,266.61v-5h-.81v-.8H75v-.31A2.32,2.32,0,0,1,77.49,258a3,3,0,0,1,1.48.38l-.3.8a2.22,2.22,0,0,0-1.22-.33c-1.12,0-1.44.78-1.44,1.7v.29h3.37v5.8h-1v-5H76v5Z"/><text class="cls-24" transform="translate(80.26 266.61)"><tspan class="cls-26">v</tspan><tspan x="5.65" y="0">e of the pa</tspan><tspan class="cls-27" x="58.64" y="0">r</tspan><tspan class="cls-28" x="62.85" y="0">ticipa</tspan><tspan class="cls-22" x="90.43" y="0">n</tspan><tspan x="97.05" y="0">ts </tspan><tspan class="cls-29" x="108.32" y="0">f</tspan><tspan x="111.68" y="0">ound using a </tspan></text><text class="cls-24" transform="translate(58.46 281.01)">phone alongside a p<tspan class="cls-30" x="101.9" y="0">h</tspan><tspan class="cls-7" x="108.41" y="0">y</tspan><tspan x="114" y="0">sical book </tspan><tspan class="cls-23" x="166.27" y="0">w</tspan><tspan x="175.05" y="0">as </tspan></text><text class="cls-24" transform="translate(58.46 295.41)"><tspan class="cls-31">a</tspan><tspan x="5.7" y="0">w</tspan><tspan class="cls-32" x="14.53" y="0">k</tspan><tspan class="cls-23" x="20.3" y="0">w</tspan><tspan class="cls-33" x="29.09" y="0">a</tspan><tspan class="cls-34" x="34.87" y="0">r</tspan><tspan class="cls-35" x="38.68" y="0">d</tspan><tspan x="45.34" y="0">.</tspan></text><text class="cls-24" transform="translate(626.58 262.64)"><tspan class="cls-36">S</tspan><tspan x="5.99" y="0">ome of the pa</tspan><tspan class="cls-37" x="75.58" y="0">r</tspan><tspan class="cls-38" x="79.77" y="0">ticipa</tspan><tspan class="cls-39" x="107.35" y="0">n</tspan><tspan class="cls-38" x="113.96" y="0">ts </tspan><tspan class="cls-40" x="125.23" y="0">w</tspan><tspan x="133.95" y="0">e</tspan><tspan class="cls-35" x="139.97" y="0">r</tspan><tspan class="cls-38" x="143.78" y="0">e disi</tspan><tspan class="cls-39" x="169.47" y="0">n</tspan><tspan class="cls-41" x="176.08" y="0">t</tspan><tspan x="179.99" y="0">e</tspan><tspan class="cls-35" x="186" y="0">r</tspan><tspan class="cls-38" x="189.81" y="0">est</tspan></text><text class="cls-24" transform="translate(831.11 262.64)">-</text><text class="cls-24" transform="translate(626.58 277.04)">ed in social messa<tspan class="cls-42" x="89.33" y="0">g</tspan><tspan x="95.97" y="0">ing and discussion.</tspan></text></g><g class="cls-12"><rect class="cls-5" x="33.39" y="446.38" width="1118.23" height="51.59"/></g><g class="cls-4"><text class="cls-6" transform="translate(535.74 483.16)">Changes</text></g><g class="cls-12"><rect class="cls-11" x="33.39" y="522.34" width="257.99" height="188.77"/><rect class="cls-11" x="606.28" y="522.56" width="257.99" height="188.77"/><rect class="cls-11" x="893.64" y="522.34" width="257.99" height="188.77"/></g><g class="cls-4"><text class="cls-24" transform="translate(917.04 550.76)">Change the pu<tspan class="cls-43" x="73.96" y="0">r</tspan><tspan class="cls-44" x="77.92" y="0">pose of the phone </tspan><tspan class="cls-45" x="171.75" y="0">t</tspan><tspan class="cls-38" x="175.65" y="0">o assist </tspan></text><text class="cls-24" transform="translate(917.04 565.16)">in ta<tspan class="cls-46" x="21.77" y="0">k</tspan><tspan x="27.59" y="0">ing no</tspan><tspan class="cls-47" x="59.55" y="0">t</tspan><tspan x="63.47" y="0">es </tspan><tspan class="cls-48" x="76.77" y="0">f</tspan><tspan x="80.13" y="0">or l</tspan><tspan class="cls-39" x="96.02" y="0">a</tspan><tspan class="cls-47" x="101.76" y="0">t</tspan><tspan x="105.67" y="0">e</tspan><tspan class="cls-49" x="111.68" y="0">r</tspan><tspan x="114.98" y="0">, which </tspan><tspan class="cls-35" x="152.89" y="0">w</tspan><tspan x="161.61" y="0">ould help </tspan></text><text class="cls-24" transform="translate(917.04 579.56)">with usabili<tspan class="cls-50" x="57.24" y="0">t</tspan><tspan class="cls-51" x="61.31" y="0">y</tspan><tspan x="66.5" y="0">.</tspan></text></g><g class="cls-12"><path class="cls-52" d="M50.47,262a3.67,3.67,0,1,1-3.67-3.67A3.67,3.67,0,0,1,50.47,262"/><path class="cls-52" d="M618.57,259.09a3.67,3.67,0,1,1-3.66-3.66,3.66,3.66,0,0,1,3.66,3.66"/><path class="cls-52" d="M909,547.19a3.67,3.67,0,1,1-3.66-3.67,3.66,3.66,0,0,1,3.66,3.67"/></g><g class="cls-4"><text class="cls-24" transform="translate(627.51 550.76)"><tspan class="cls-53">A</tspan><tspan x="7.21" y="0">dd adjustme</tspan><tspan class="cls-23" x="70.12" y="0">n</tspan><tspan x="76.73" y="0">t settings </tspan><tspan class="cls-48" x="125.42" y="0">f</tspan><tspan x="128.78" y="0">or i</tspan><tspan class="cls-22" x="144.65" y="0">n</tspan><tspan class="cls-41" x="151.27" y="0">t</tspan><tspan x="155.17" y="0">e</tspan><tspan class="cls-23" x="161.18" y="0">r</tspan><tspan x="165.06" y="0">a</tspan><tspan class="cls-54" x="170.84" y="0">c</tspan><tspan x="176.36" y="0">tions </tspan><tspan class="cls-42" x="203.69" y="0">t</tspan><tspan x="207.6" y="0">o </tspan></text><text class="cls-24" transform="translate(627.51 565.16)"><tspan class="cls-40">r</tspan><tspan x="3.82" y="0">edu</tspan><tspan class="cls-42" x="23.21" y="0">c</tspan><tspan x="28.52" y="0">e clut</tspan><tspan class="cls-41" x="55.87" y="0">t</tspan><tspan x="59.77" y="0">er </tspan><tspan class="cls-45" x="72.25" y="0">t</tspan><tspan class="cls-38" x="76.15" y="0">o h</tspan><tspan class="cls-55" x="91.94" y="0">a</tspan><tspan class="cls-26" x="97.64" y="0">v</tspan><tspan class="cls-38" x="103.29" y="0">e mo</tspan><tspan class="cls-26" x="128.45" y="0">r</tspan><tspan x="132.25" y="0">e in</tspan><tspan class="cls-48" x="150.27" y="0">f</tspan><tspan x="153.63" y="0">o</tspan><tspan class="cls-43" x="160.22" y="0">r</tspan><tspan x="164.18" y="0">m</tspan><tspan class="cls-23" x="174.19" y="0">a</tspan><tspan x="179.93" y="0">ti</tspan><tspan class="cls-56" x="186.71" y="0">v</tspan><tspan x="192.36" y="0">e </tspan></text><text class="cls-24" transform="translate(627.51 579.56)">links <tspan class="cls-57" x="25.22" y="0">f</tspan><tspan x="28.57" y="0">or the </tspan><tspan class="cls-56" x="60.81" y="0">r</tspan><tspan x="64.62" y="0">eade</tspan><tspan class="cls-58" x="89.19" y="0">r</tspan><tspan x="92.48" y="0">.</tspan></text></g><g class="cls-12"><path class="cls-52" d="M622.41,548.08a3.67,3.67,0,1,1-3.67-3.67,3.67,3.67,0,0,1,3.67,3.67"/></g><g class="cls-4"><text class="cls-24" transform="translate(913.14 604.75)"><tspan class="cls-45">T</tspan><tspan x="5.89" y="0">he pa</tspan><tspan class="cls-37" x="33.72" y="0">r</tspan><tspan class="cls-38" x="37.92" y="0">ticipa</tspan><tspan class="cls-22" x="65.5" y="0">n</tspan><tspan x="72.12" y="0">ts seem </tspan><tspan class="cls-41" x="112.71" y="0">t</tspan><tspan x="116.61" y="0">o p</tspan><tspan class="cls-40" x="132.57" y="0">r</tspan><tspan x="136.39" y="0">e</tspan><tspan class="cls-48" x="142.4" y="0">f</tspan><tspan x="145.76" y="0">er discussing </tspan></text><text class="cls-24" transform="translate(913.14 619.15)">books on<tspan class="cls-45" x="46.18" y="0">c</tspan><tspan x="51.48" y="0">e they </tspan></text><path class="cls-15" d="M999,619.15v-5h-.81v-.8H999V613a2.33,2.33,0,0,1,2.53-2.53,2.88,2.88,0,0,1,1.48.39l-.3.8a2.22,2.22,0,0,0-1.23-.34c-1.11,0-1.44.78-1.44,1.71v.29h3.37v5.8h-1v-5H1000v5Z"/><text class="cls-24" transform="translate(1004.29 619.15)">nish i<tspan class="cls-59" x="26.23" y="0">t</tspan><tspan x="30.18" y="0">, although they </tspan></text><text class="cls-24" transform="translate(913.14 633.55)">enj<tspan class="cls-45" x="15.59" y="0">o</tspan><tspan x="22.1" y="0">y tal</tspan><tspan class="cls-60" x="42.89" y="0">k</tspan><tspan class="cls-38" x="48.71" y="0">ing about them with others in </tspan></text><text class="cls-24" transform="translate(913.14 647.95)">person.</text></g><g class="cls-12"><path class="cls-52" d="M908,602.07a3.67,3.67,0,1,1-3.66-3.67,3.66,3.66,0,0,1,3.66,3.67"/></g><g class="cls-4"><text class="cls-24" transform="translate(58.72 550.56)"><tspan class="cls-61">I</tspan><tspan class="cls-33" x="2.98" y="0">ns</tspan><tspan class="cls-47" x="14.39" y="0">t</tspan><tspan x="18.3" y="0">ead of using the came</tspan><tspan class="cls-7" x="128.49" y="0">r</tspan><tspan x="132.36" y="0">a </tspan><tspan class="cls-62" x="140.69" y="0">t</tspan><tspan x="144.59" y="0">o scan </tspan><tspan class="cls-7" x="178.83" y="0">t</tspan><tspan class="cls-25" x="182.75" y="0">e</tspan><tspan class="cls-32" x="188.73" y="0">x</tspan><tspan class="cls-33" x="194.43" y="0">t </tspan><tspan class="cls-29" x="200.95" y="0">f</tspan><tspan class="cls-28" x="204.31" y="0">or </tspan></text><text class="cls-24" transform="translate(58.72 564.96)">i<tspan class="cls-23" x="2.81" y="0">n</tspan><tspan class="cls-62" x="9.42" y="0">t</tspan><tspan x="13.32" y="0">e</tspan><tspan class="cls-23" x="19.33" y="0">r</tspan><tspan x="23.21" y="0">a</tspan><tspan class="cls-32" x="28.99" y="0">c</tspan><tspan x="34.51" y="0">tion</tspan><tspan class="cls-53" x="54.54" y="0">s</tspan><tspan x="59.16" y="0">, the came</tspan><tspan class="cls-23" x="110.55" y="0">r</tspan><tspan x="114.43" y="0">a will help </tspan><tspan class="cls-34" x="167.48" y="0">r</tspan><tspan x="171.29" y="0">eaders </tspan></text><text class="cls-24" transform="translate(58.72 579.36)">take no<tspan class="cls-62" x="37.19" y="0">t</tspan><tspan x="41.09" y="0">es </tspan><tspan class="cls-47" x="54.4" y="0">t</tspan><tspan x="58.31" y="0">o </tspan><tspan class="cls-26" x="67.44" y="0">r</tspan><tspan class="cls-28" x="71.24" y="0">ead l</tspan><tspan class="cls-22" x="95.18" y="0">a</tspan><tspan class="cls-47" x="100.93" y="0">t</tspan><tspan x="104.84" y="0">e</tspan><tspan class="cls-58" x="110.85" y="0">r</tspan><tspan x="114.14" y="0">.</tspan></text></g><g class="cls-12"><path class="cls-52" d="M50.72,547.35a3.67,3.67,0,1,1-3.67-3.67,3.66,3.66,0,0,1,3.67,3.67"/><path class="cls-52" d="M50.72,606.82a3.67,3.67,0,1,1-3.67-3.67,3.67,3.67,0,0,1,3.67,3.67"/></g><g class="cls-4"><text class="cls-6" transform="translate(391.41 55.8)"><tspan class="cls-63">P</tspan><tspan x="18.29" y="0">ersonal</tspan></text></g><g class="cls-12"><rect class="cls-11" x="320.4" y="240.41" width="257.99" height="188.77"/><path class="cls-13" d="M449.39,131.71c-7.73,0-20.71-3.39-20.71-26.07A20.71,20.71,0,0,1,459,87.12a19.73,19.73,0,0,1,1.73,1,2.62,2.62,0,0,1,.75,3.61,2.59,2.59,0,0,1-3.59.75,12.68,12.68,0,0,0-1.28-.76A15.27,15.27,0,0,0,449.39,90a15.61,15.61,0,0,0-15.53,15.65c0,14,5.08,20.86,15.53,20.86s15.54-6.83,15.54-20.86a15.66,15.66,0,0,0-1.07-5.72,2.59,2.59,0,1,1,4.82-1.9,21,21,0,0,1,1.42,7.62c0,22.68-13,26.07-20.71,26.07"/></g><g class="cls-64"><g class="cls-4"><rect class="cls-15" x="-175.82" y="-1.42" width="944.61" height="708.46"/><rect class="cls-15" x="422.78" y="78.87" width="53.23" height="58.74"/></g></g><g class="cls-12"><path class="cls-13" d="M477.87,147.36a2.6,2.6,0,0,1-2.39-1.6c-1.62-3.87-9.7-14-18.32-14H441.63c-8.62,0-16.71,10.18-18.33,14a2.58,2.58,0,0,1-3.39,1.39,2.62,2.62,0,0,1-1.38-3.42c2.12-5.07,11.78-17.23,23.1-17.23h15.53c11.31,0,21,12.16,23.09,17.23a2.61,2.61,0,0,1-1.38,3.42,2.53,2.53,0,0,1-1,.21"/></g><g class="cls-65"><g class="cls-4"><rect class="cls-15" x="-175.82" y="-1.42" width="944.61" height="708.46"/><rect class="cls-15" x="412.42" y="120.59" width="73.94" height="32.67"/></g></g><g class="cls-12"><path class="cls-13" d="M449.39,142.14c-8.7,0-15.53-4.58-15.53-10.43a2.59,2.59,0,1,1,5.18,0c0,2.46,4.43,5.22,10.35,5.22a17.44,17.44,0,0,0,4.52-.57,11.94,11.94,0,0,0,3.89-1.74c.73-.53,1.95-1.6,1.95-2.91a2.59,2.59,0,1,1,5.18,0,8.88,8.88,0,0,1-4.11,7.15,17.21,17.21,0,0,1-5.59,2.55,23.24,23.24,0,0,1-5.84.73"/></g><g class="cls-66"><g class="cls-4"><rect class="cls-15" x="-175.82" y="-1.42" width="944.61" height="708.46"/><rect class="cls-15" x="427.96" y="123.2" width="42.87" height="24.84"/></g></g><g class="cls-4"><text class="cls-24" transform="translate(343.56 262.76)">Older pa<tspan class="cls-67" x="42.96" y="0">r</tspan><tspan class="cls-28" x="47.16" y="0">ticipa</tspan><tspan class="cls-22" x="74.73" y="0">n</tspan><tspan x="81.36" y="0">ts (mid 50s) </tspan><tspan class="cls-62" x="141.18" y="0">t</tspan><tspan x="145.08" y="0">ended </tspan><tspan class="cls-47" x="179.84" y="0">t</tspan><tspan x="183.75" y="0">o h</tspan><tspan class="cls-55" x="199.54" y="0">a</tspan><tspan class="cls-35" x="205.24" y="0">v</tspan><tspan class="cls-28" x="210.91" y="0">e </tspan></text><text class="cls-24" transform="translate(343.56 277.16)">a ha<tspan class="cls-68" x="20.77" y="0">r</tspan><tspan x="24.59" y="0">der time understanding h</tspan><tspan class="cls-55" x="152.47" y="0">o</tspan><tspan x="158.97" y="0">w the app </tspan></text><text class="cls-24" transform="translate(343.56 291.56)"><tspan class="cls-68">w</tspan><tspan x="8.72" y="0">ould </tspan><tspan class="cls-68" x="34.07" y="0">w</tspan><tspan x="42.79" y="0">o</tspan><tspan class="cls-69" x="49.38" y="0">r</tspan><tspan x="53.35" y="0">k or the bene</tspan></text><path class="cls-15" d="M463.8,291.56v-5H463v-.81h.82v-.31a2.33,2.33,0,0,1,2.53-2.53,3,3,0,0,1,1.48.38l-.3.81a2.25,2.25,0,0,0-1.23-.34c-1.11,0-1.44.78-1.44,1.71v.28h3.37v5.81h-1v-5h-2.33v5Z"/><text class="cls-24" transform="translate(469.09 291.56)">ts be<tspan class="cls-29" x="24.11" y="0">f</tspan><tspan x="27.47" y="0">o</tspan><tspan class="cls-34" x="34.06" y="0">r</tspan><tspan x="37.86" y="0">e the </tspan><tspan class="cls-62" x="65.6" y="0">t</tspan><tspan class="cls-28" x="69.5" y="0">es</tspan><tspan class="cls-25" x="80.27" y="0">t</tspan><tspan x="84.21" y="0">. </tspan></text><text class="cls-24" transform="translate(343.56 305.96)"><tspan class="cls-55">A</tspan><tspan class="cls-70" x="7.26" y="0">f</tspan><tspan class="cls-62" x="10.9" y="0">t</tspan><tspan x="14.8" y="0">e</tspan><tspan class="cls-71" x="20.81" y="0">r</tspan><tspan class="cls-26" x="25.03" y="0">w</tspan><tspan x="33.74" y="0">o</tspan><tspan class="cls-68" x="40.33" y="0">r</tspan><tspan x="44.15" y="0">ds they </tspan><tspan class="cls-68" x="83.05" y="0">w</tspan><tspan x="91.77" y="0">e</tspan><tspan class="cls-68" x="97.79" y="0">r</tspan><tspan x="101.6" y="0">e mo</tspan><tspan class="cls-68" x="126.75" y="0">r</tspan><tspan x="130.57" y="0">e i</tspan><tspan class="cls-72" x="141.93" y="0">n</tspan><tspan class="cls-47" x="148.55" y="0">t</tspan><tspan x="152.46" y="0">e</tspan><tspan class="cls-68" x="158.47" y="0">r</tspan><tspan x="162.29" y="0">es</tspan><tspan class="cls-47" x="173.05" y="0">t</tspan><tspan x="176.96" y="0">ed and </tspan></text><text class="cls-24" transform="translate(343.56 320.36)">engage<tspan class="cls-26" x="37.88" y="0">d</tspan><tspan x="44.53" y="0">.</tspan></text></g><g class="cls-12"><rect class="cls-11" x="320.4" y="524.15" width="257.99" height="188.77"/></g><g class="cls-4"><text class="cls-24" transform="translate(343.8 552.57)"><tspan class="cls-73">I</tspan><tspan x="3.06" y="0">t </tspan><tspan class="cls-7" x="9.58" y="0">c</tspan><tspan x="14.89" y="0">ould be impo</tspan><tspan class="cls-74" x="81.85" y="0">r</tspan><tspan class="cls-33" x="86.05" y="0">ta</tspan><tspan class="cls-72" x="95.81" y="0">n</tspan><tspan x="102.42" y="0">t </tspan><tspan class="cls-47" x="108.93" y="0">t</tspan><tspan x="112.85" y="0">o h</tspan><tspan class="cls-55" x="128.64" y="0">a</tspan><tspan class="cls-26" x="134.34" y="0">v</tspan><tspan x="139.99" y="0">e a bet</tspan><tspan class="cls-62" x="173.69" y="0">t</tspan><tspan x="177.58" y="0">er app </tspan></text><text class="cls-24" transform="translate(343.8 566.97)">desc<tspan class="cls-69" x="22.91" y="0">r</tspan><tspan class="cls-33" x="26.88" y="0">iption or visuals </tspan><tspan class="cls-62" x="108" y="0">t</tspan><tspan x="111.9" y="0">o assist user</tspan><tspan class="cls-75" x="171.69" y="0">s</tspan><tspan x="176.31" y="0">.</tspan></text></g><g class="cls-12"><path class="cls-52" d="M335.4,259.33a3.67,3.67,0,1,1-3.67-3.67,3.66,3.66,0,0,1,3.67,3.67"/><path class="cls-52" d="M335.8,549a3.67,3.67,0,1,1-3.66-3.67A3.66,3.66,0,0,1,335.8,549"/></g><g class="cls-4"><text class="cls-24" transform="translate(340.91 597.63)"><tspan class="cls-69">D</tspan><tspan x="8.04" y="0">esc</tspan><tspan class="cls-76" x="24.18" y="0">r</tspan><tspan x="28.15" y="0">iption of </tspan><tspan class="cls-7" x="72.99" y="0">c</tspan><tspan x="78.31" y="0">o</tspan><tspan class="cls-23" x="84.9" y="0">n</tspan><tspan class="cls-7" x="91.51" y="0">t</tspan><tspan class="cls-28" x="95.42" y="0">e</tspan><tspan class="cls-77" x="101.43" y="0">n</tspan><tspan class="cls-28" x="108.06" y="0">t will </tspan><tspan class="cls-48" x="134.42" y="0">f</tspan><tspan x="137.78" y="0">ocus mo</tspan><tspan class="cls-34" x="180.25" y="0">r</tspan><tspan x="184.05" y="0">e on </tspan></text><text class="cls-24" transform="translate(340.91 612.03)">loc<tspan class="cls-72" x="14.8" y="0">a</tspan><tspan class="cls-28" x="20.53" y="0" xml:space="preserve">tions and  back</tspan><tspan class="cls-45" x="95.77" y="0">g</tspan><tspan class="cls-68" x="102.41" y="0">r</tspan><tspan class="cls-28" x="106.22" y="0">ound in</tspan><tspan class="cls-29" x="144.86" y="0">f</tspan><tspan x="148.22" y="0">o</tspan><tspan class="cls-43" x="154.81" y="0">r</tspan><tspan class="cls-28" x="158.77" y="0">m</tspan><tspan class="cls-77" x="168.78" y="0">a</tspan><tspan class="cls-28" x="174.53" y="0">tion </tspan></text><text class="cls-24" transform="translate(340.91 626.43)">a<tspan class="cls-68" x="5.78" y="0">r</tspan><tspan x="9.6" y="0">ound the boo</tspan><tspan class="cls-78" x="77.96" y="0">k</tspan><tspan x="83.75" y="0">.</tspan></text></g><g class="cls-12"><path class="cls-52" d="M335.8,595a3.67,3.67,0,1,1-3.66-3.66A3.66,3.66,0,0,1,335.8,595"/></g><g class="cls-4"><text class="cls-24" transform="translate(58.46 328.26)">None of the pa<tspan class="cls-27" x="74.13" y="0">r</tspan><tspan x="78.35" y="0">ticipa</tspan><tspan class="cls-22" x="105.92" y="0">n</tspan><tspan class="cls-28" x="112.55" y="0">ts had the came</tspan><tspan class="cls-23" x="191.94" y="0">r</tspan><tspan class="cls-33" x="195.81" y="0">a </tspan></text><text class="cls-24" transform="translate(58.46 342.66)">poi<tspan class="cls-22" x="16.22" y="0">n</tspan><tspan class="cls-62" x="22.85" y="0">t</tspan><tspan x="26.75" y="0">ed </tspan><tspan class="cls-79" x="42.07" y="0">a</tspan><tspan x="47.82" y="0">t the boo</tspan><tspan class="cls-78" x="93.53" y="0">k</tspan><tspan x="99.31" y="0">. </tspan><tspan class="cls-80" x="104.34" y="0">I</tspan><tspan class="cls-28" x="107.39" y="0">t </tspan><tspan class="cls-22" x="113.9" y="0">w</tspan><tspan class="cls-33" x="122.7" y="0">as either held </tspan></text><text class="cls-24" transform="translate(58.46 357.06)">adja<tspan class="cls-7" x="21.25" y="0">c</tspan><tspan x="26.57" y="0">e</tspan><tspan class="cls-72" x="32.58" y="0">n</tspan><tspan class="cls-28" x="39.19" y="0">t </tspan><tspan class="cls-7" x="45.71" y="0">t</tspan><tspan x="49.62" y="0">o the book or kept on their la</tspan><tspan class="cls-81" x="194.48" y="0">p</tspan><tspan x="201.03" y="0">.</tspan></text></g><g class="cls-12"><path class="cls-52" d="M50.47,323.64A3.67,3.67,0,1,1,46.8,320a3.67,3.67,0,0,1,3.67,3.67"/></g><g class="cls-4"><text class="cls-24" transform="translate(918.99 262.65)"><tspan class="cls-60">I</tspan><tspan class="cls-38" x="3.06" y="0">t </tspan><tspan class="cls-42" x="9.58" y="0">c</tspan><tspan x="14.89" y="0">ould be helpful </tspan><tspan class="cls-45" x="93.44" y="0">t</tspan><tspan x="97.34" y="0">o see no</tspan><tspan class="cls-41" x="139.04" y="0">t</tspan><tspan x="142.94" y="0">es a</tspan><tspan class="cls-82" x="162.03" y="0">f</tspan><tspan class="cls-47" x="165.67" y="0">t</tspan><tspan x="169.58" y="0">er they </tspan></text><text class="cls-24" transform="translate(918.99 277.05)">a<tspan class="cls-35" x="5.78" y="0">r</tspan><tspan x="9.6" y="0">e </tspan></text><path class="cls-15" d="M938.12,277.05v-5h-.82v-.81h.82v-.31a2.33,2.33,0,0,1,2.53-2.53,2.94,2.94,0,0,1,1.47.38l-.3.81a2.19,2.19,0,0,0-1.22-.34c-1.12,0-1.44.78-1.44,1.7v.29h3.37v5.81h-1v-5h-2.33v5Z"/><text class="cls-24" transform="translate(943.41 277.05)">nished with their <tspan class="cls-40" x="86.94" y="0">r</tspan><tspan x="90.75" y="0">eading session.</tspan></text></g><g class="cls-12"><path class="cls-52" d="M911,259.09a3.67,3.67,0,1,1-3.67-3.66,3.67,3.67,0,0,1,3.67,3.66"/></g><g class="cls-4"><text class="cls-24" transform="translate(918.99 305.82)"><tspan class="cls-36">S</tspan><tspan x="5.99" y="0">ome of the pa</tspan><tspan class="cls-37" x="75.58" y="0">r</tspan><tspan class="cls-38" x="79.77" y="0">ticipa</tspan><tspan class="cls-22" x="107.35" y="0">n</tspan><tspan x="113.97" y="0">ts </tspan><tspan class="cls-35" x="125.24" y="0">w</tspan><tspan x="133.97" y="0">e</tspan><tspan class="cls-40" x="139.98" y="0">r</tspan><tspan x="143.79" y="0">e </tspan><tspan class="cls-26" x="152.35" y="0">v</tspan><tspan class="cls-38" x="158" y="0">e</tspan><tspan class="cls-83" x="164.01" y="0">r</tspan><tspan class="cls-44" x="168.24" y="0">y unin</tspan></text><text class="cls-24" transform="translate(1118.14 305.82)">-</text><text class="cls-24" transform="translate(918.99 320.22)"><tspan class="cls-41">t</tspan><tspan x="3.9" y="0">e</tspan><tspan class="cls-35" x="9.91" y="0">r</tspan><tspan x="13.73" y="0">es</tspan><tspan class="cls-41" x="24.49" y="0">t</tspan><tspan x="28.39" y="0">ed in social messa</tspan><tspan class="cls-45" x="117.72" y="0">g</tspan><tspan x="124.35" y="0">ing and discus</tspan></text><text class="cls-24" transform="translate(1114.88 320.22)">-</text><text class="cls-24" transform="translate(918.99 334.62)">sion.</text></g><g class="cls-12"><path class="cls-52" d="M911,302.27a3.67,3.67,0,1,1-3.67-3.67,3.67,3.67,0,0,1,3.67,3.67"/></g><g class="cls-4"><text class="cls-24" transform="translate(918.99 359.25)"><tspan class="cls-84">V</tspan><tspan class="cls-38" x="6.52" y="0">isuals </tspan><tspan class="cls-45" x="36.6" y="0">c</tspan><tspan x="41.9" y="0">ould be helpful when the book is </tspan></text><text class="cls-24" transform="translate(918.99 373.65)">desc<tspan class="cls-43" x="22.91" y="0">r</tspan><tspan x="26.87" y="0">ibing a </tspan><tspan class="cls-45" x="63.55" y="0">c</tspan><tspan x="68.85" y="0">ompl</tspan><tspan class="cls-59" x="95.11" y="0">e</tspan><tspan x="101.1" y="0">x dia</tspan><tspan class="cls-47" x="124.56" y="0">gr</tspan><tspan class="cls-44" x="135.07" y="0">am or p</tspan><tspan class="cls-57" x="173.29" y="0">h</tspan><tspan class="cls-42" x="179.79" y="0">y</tspan><tspan x="185.38" y="0">sical </tspan></text><text class="cls-24" transform="translate(918.99 388.05)">obje<tspan class="cls-85" x="22.34" y="0">c</tspan><tspan class="cls-22" x="27.88" y="0">t</tspan><tspan x="31.81" y="0">.</tspan></text></g><g class="cls-12"><path class="cls-52" d="M911,355.7a3.67,3.67,0,1,1-3.67-3.67A3.66,3.66,0,0,1,911,355.7"/></g><g class="cls-4"><text class="cls-24" transform="translate(343.8 356.04)"><tspan class="cls-86">S</tspan><tspan x="5.98" y="0">eeing pie</tspan><tspan class="cls-7" x="52.37" y="0">c</tspan><tspan x="57.68" y="0">es of eviden</tspan><tspan class="cls-7" x="117.66" y="0">c</tspan><tspan class="cls-28" x="122.97" y="0">e </tspan><tspan class="cls-72" x="131.53" y="0">w</tspan><tspan x="140.31" y="0">as uni</tspan><tspan class="cls-79" x="169.47" y="0">n</tspan><tspan class="cls-62" x="176.1" y="0">t</tspan><tspan x="180" y="0">e</tspan><tspan class="cls-68" x="186.01" y="0">r</tspan><tspan class="cls-28" x="189.82" y="0">est</tspan></text><text class="cls-24" transform="translate(548.33 356.04)">-</text><text class="cls-24" transform="translate(343.8 370.44)">in<tspan class="cls-87" x="9.47" y="0">g</tspan><tspan x="16.01" y="0">. </tspan></text></g><g class="cls-12"><path class="cls-52" d="M335.8,352.49a3.67,3.67,0,1,1-3.66-3.67,3.67,3.67,0,0,1,3.66,3.67"/></g><g class="cls-4"><text class="cls-24" transform="translate(630.41 608.95)">Li<tspan class="cls-41" x="8.47" y="0">t</tspan><tspan x="12.37" y="0">e</tspan><tspan class="cls-23" x="18.38" y="0">r</tspan><tspan class="cls-44" x="22.26" y="0">a</tspan><tspan class="cls-88" x="28.04" y="0">r</tspan><tspan class="cls-44" x="32.26" y="0">y </tspan><tspan class="cls-45" x="40.45" y="0">c</tspan><tspan x="45.75" y="0">o</tspan><tspan class="cls-48" x="52.34" y="0">n</tspan><tspan class="cls-26" x="58.86" y="0">v</tspan><tspan x="64.51" y="0">ers</tspan><tspan class="cls-22" x="79.2" y="0">a</tspan><tspan class="cls-38" x="84.95" y="0">tions </tspan><tspan class="cls-45" x="112.27" y="0">c</tspan><tspan x="117.57" y="0">ould be enabled </tspan></text><text class="cls-24" transform="translate(630.41 623.35)">a<tspan class="cls-82" x="5.78" y="0">f</tspan><tspan class="cls-45" x="9.42" y="0">t</tspan><tspan class="cls-38" x="13.32" y="0">er </tspan></text><path class="cls-15" d="M657.19,623.35v-5h-.82v-.81h.82v-.31a2.33,2.33,0,0,1,2.53-2.53,2.88,2.88,0,0,1,1.48.39l-.3.8a2.25,2.25,0,0,0-1.23-.34c-1.11,0-1.44.78-1.44,1.71v.28h3.37v5.81h-1v-5h-2.33v5Z"/><text class="cls-24" transform="translate(662.48 623.35)">nishing a book <tspan class="cls-41" x="76.1" y="0">t</tspan><tspan x="80" y="0">o help digest the </tspan></text><text class="cls-24" transform="translate(630.41 637.75)">in<tspan class="cls-57" x="9.47" y="0">f</tspan><tspan x="12.82" y="0">o</tspan><tspan class="cls-89" x="19.4" y="0">r</tspan><tspan x="23.38" y="0">m</tspan><tspan class="cls-39" x="33.38" y="0">a</tspan><tspan class="cls-38" x="39.12" y="0">tion and view other viewpoi</tspan><tspan class="cls-23" x="178.76" y="0">n</tspan><tspan x="185.37" y="0">ts of </tspan></text><text class="cls-24" transform="translate(630.41 652.15)">the boo<tspan class="cls-85" x="39.19" y="0">k</tspan><tspan x="44.98" y="0">.</tspan></text></g><g class="cls-12"><path class="cls-52" d="M622.41,605.4a3.67,3.67,0,1,1-3.67-3.67,3.66,3.66,0,0,1,3.67,3.67"/><path class="cls-90" d="M140.19,78.93a.9.9,0,0,0-.51,1.53l4.59,4.59a5.61,5.61,0,0,1,0,7.9l-2.83,2.83a5.6,5.6,0,0,1-7.89,0l-4.6-4.6a.9.9,0,0,0-1.52.51,15.17,15.17,0,0,0,17,17.28,6.41,6.41,0,0,1,5.4,1.82l34.32,34.32a6.69,6.69,0,0,0,9.46-9.47l-34.31-34.33a6.41,6.41,0,0,1-1.83-5.39,15.16,15.16,0,0,0-17.27-17m49.46,59.47a1.95,1.95,0,0,1-2.76,2.75l-35-35a2,2,0,0,1,2.76-2.76Z"/></g><g class="cls-4"><text class="cls-24" transform="translate(630.41 307.12)"><tspan class="cls-91">P</tspan><tspan class="cls-44" x="6.07" y="0">a</tspan><tspan class="cls-27" x="11.86" y="0">r</tspan><tspan class="cls-38" x="16.07" y="0">ticipa</tspan><tspan class="cls-39" x="43.64" y="0">n</tspan><tspan class="cls-38" x="50.25" y="0">ts </tspan><tspan class="cls-35" x="61.52" y="0">w</tspan><tspan x="70.25" y="0">o</tspan><tspan class="cls-43" x="76.83" y="0">r</tspan><tspan class="cls-76" x="80.79" y="0">r</tspan><tspan class="cls-38" x="84.77" y="0">ied about spoilers and </tspan></text><text class="cls-24" transform="translate(630.41 321.52)">seemed <tspan class="cls-41" x="42.11" y="0">t</tspan><tspan x="46.01" y="0">o p</tspan><tspan class="cls-40" x="61.97" y="0">r</tspan><tspan x="65.78" y="0">e</tspan><tspan class="cls-48" x="71.79" y="0">f</tspan><tspan x="75.16" y="0">er </tspan><tspan class="cls-35" x="87.63" y="0">r</tspan><tspan class="cls-38" x="91.45" y="0">eading sol</tspan><tspan class="cls-92" x="142.91" y="0">o</tspan><tspan x="149.22" y="0">, and h</tspan><tspan class="cls-93" x="182.66" y="0">a</tspan><tspan class="cls-38" x="188.35" y="0">ving </tspan></text><text class="cls-24" transform="translate(630.41 335.92)">discussions a<tspan class="cls-82" x="64.96" y="0">f</tspan><tspan class="cls-41" x="68.59" y="0">t</tspan><tspan x="72.49" y="0">e</tspan><tspan class="cls-83" x="78.5" y="0">r</tspan><tspan class="cls-40" x="82.73" y="0">w</tspan><tspan x="91.45" y="0">o</tspan><tspan class="cls-26" x="98.04" y="0">rd</tspan><tspan class="cls-38" x="108.49" y="0">.</tspan></text></g><g class="cls-12"><path class="cls-52" d="M622.41,303.57a3.67,3.67,0,1,1-3.67-3.67,3.67,3.67,0,0,1,3.67,3.67"/></g><g class="cls-4"><text class="cls-24" transform="translate(58.72 610.25)"><tspan class="cls-55">T</tspan><tspan x="5.88" y="0">he phone should be able </tspan><tspan class="cls-45" x="132.53" y="0">t</tspan><tspan class="cls-28" x="136.43" y="0">o enhan</tspan><tspan class="cls-7" x="177.33" y="0">c</tspan><tspan x="182.65" y="0">e the </tspan></text><text class="cls-24" transform="translate(58.72 624.65)"><tspan class="cls-62">c</tspan><tspan x="5.3" y="0">o</tspan><tspan class="cls-77" x="11.89" y="0">n</tspan><tspan class="cls-62" x="18.52" y="0">t</tspan><tspan class="cls-28" x="22.42" y="0">e</tspan><tspan class="cls-22" x="28.43" y="0">n</tspan><tspan x="35.05" y="0">t easil</tspan><tspan class="cls-94" x="63.75" y="0">y</tspan><tspan x="68.94" y="0">, but users should use the </tspan></text><text class="cls-24" transform="translate(58.72 639.05)">phone less o<tspan class="cls-95" x="62.77" y="0">f</tspan><tspan class="cls-7" x="66.4" y="0">t</tspan><tspan class="cls-28" x="70.31" y="0">en.</tspan></text></g></g></g></g></svg>