<svg id="Layer_1" data-name="Layer 1" xmlns="http://www.w3.org/2000/svg" viewBox="0 0 1416.14 912.76"><defs><style>.cls-1{fill:#eae9f4;}.cls-2{fill:#cdb08c;}.cls-21,.cls-22,.cls-23,.cls-28,.cls-3,.cls-31,.cls-33{fill:#43436f;}.cls-4{fill:#51270b;}.cls-5{fill:#e55241;}.cls-24,.cls-36,.cls-6{fill:#fff;}.cls-7,.cls-9{fill:#231f20;}.cls-7{opacity:0.22;}.cls-8{fill:#bcbec0;}.cls-9{opacity:0.2;}.cls-10{font-size:13.56px;fill:#ed5950;font-family:Bariol-Bold, Bariol Bold;font-weight:700;}.cls-11{letter-spacing:-0.04em;}.cls-12{letter-spacing:0em;}.cls-13{letter-spacing:0em;}.cls-14,.cls-33{opacity:0.35;}.cls-15{opacity:0.33;}.cls-16{fill:#d9dbea;opacity:0.37;}.cls-17,.cls-32{fill:#7f90ab;}.cls-17,.cls-18,.cls-20,.cls-26,.cls-27,.cls-35,.cls-36,.cls-37,.cls-38,.cls-43,.cls-44{stroke:#43436f;}.cls-17,.cls-26,.cls-27,.cls-35,.cls-36,.cls-37,.cls-38{stroke-linecap:round;stroke-linejoin:round;}.cls-17,.cls-20,.cls-27{stroke-width:5px;}.cls-18,.cls-20,.cls-26{fill:#dadfe5;}.cls-18,.cls-20,.cls-31,.cls-34,.cls-43,.cls-44{stroke-miterlimit:10;}.cls-18,.cls-26,.cls-34,.cls-35,.cls-36,.cls-37,.cls-38,.cls-43,.cls-44{stroke-width:4px;}.cls-19{fill:#b2e0ef;}.cls-21{opacity:0.45;}.cls-22{opacity:0.32;}.cls-23{opacity:0.25;}.cls-24{opacity:0.3;}.cls-25{fill:#a3b0c3;}.cls-27{fill:#637184;}.cls-28{opacity:0.17;}.cls-29{fill:#cdcee0;}.cls-30{fill:#9697af;}.cls-31{stroke:#2b2c40;}.cls-34{fill:#9798b7;stroke:#4c527d;}.cls-35{fill:none;}.cls-37{fill:#93d4b5;}.cls-38{fill:#eaebec;}.cls-39{fill:#fec468;}.cls-40{fill:#ff994d;}.cls-41{fill:#fec36b;}.cls-42{fill:#7e65cd;}.cls-43{fill:#b79b7d;}.cls-44{fill:#ceb18d;}</style></defs><title>Artboard 7</title><path class="cls-1" d="M852.44,149.31c-42.24-28.08-229-143.61-345.22-74,0,0-219,85.76-100.12,335.06s174,63.88,291.61,113.44S880,668.49,990.91,547.25s155.62-249,56.32-343.84c-96.38-92.06-123.31,11.48-180.82-42.81A105.81,105.81,0,0,0,852.44,149.31Z"/><rect class="cls-2" x="232.74" y="449.92" width="175.97" height="68.16"/><path class="cls-3" d="M409.65,519H231.79V449H409.65Zm-176-1.9H407.75V450.86H233.68Z"/><rect class="cls-2" x="391.8" y="319.67" width="16.9" height="120.64"/><path class="cls-3" d="M409.65,441.26h-18.8V318.72h18.8Zm-16.91-1.9h15V320.62h-15Z"/><rect class="cls-2" x="232.74" y="319.67" width="16.9" height="120.64"/><path class="cls-3" d="M250.59,441.26h-18.8V318.72h18.8Zm-16.91-1.9h15V320.62h-15Z"/><rect class="cls-2" x="267.23" y="279.33" width="7.38" height="26.32"/><path class="cls-4" d="M275.56,306.6h-9.28V278.38h9.28Zm-7.38-1.9h5.49V280.28h-5.49Z"/><rect class="cls-2" x="360.59" y="279.33" width="7.38" height="26.32"/><path class="cls-4" d="M368.92,306.6h-9.28V278.38h9.28Zm-7.38-1.9H367V280.28h-5.49Z"/><path class="cls-5" d="M214.68,319.48h30v57.6s-3.85,8.26-15,8.26c0,0-15,.23-15-12.07Z"/><path class="cls-3" d="M229.57,386.29c-.93,0-8.09-.15-12.49-4.48a11.52,11.52,0,0,1-3.35-8.54V318.54h31.86v58.75l-.08.19c-.17.35-4.23,8.81-15.85,8.81Zm-13.94-65.86v52.84a9.67,9.67,0,0,0,2.78,7.19c4.06,4,11.16,3.94,11.24,3.93,9.55,0,13.44-6.4,14-7.54V320.43Z"/><path class="cls-6" d="M244.65,319.48h30v57.6s-3.84,8.26-15,8.26c0,0-15,.23-15-12.07Z"/><path class="cls-3" d="M259.54,386.29c-.93,0-8.1-.15-12.49-4.48a11.52,11.52,0,0,1-3.35-8.54V318.54h31.86v58.75l-.09.19c-.16.35-4.23,8.81-15.84,8.81Zm-14-65.86v52.84a9.68,9.68,0,0,0,2.79,7.19c4.05,4,11.15,3.94,11.24,3.93,9.55,0,13.43-6.4,14.05-7.54V320.43Z"/><path class="cls-5" d="M274.61,319.48h30v57.6s-3.84,8.26-15,8.26c0,0-15,.23-15-12.07Z"/><path class="cls-3" d="M289.51,386.29c-.93,0-8.1-.15-12.49-4.48a11.48,11.48,0,0,1-3.35-8.54V318.54h31.86v58.75l-.09.19c-.17.35-4.23,8.81-15.84,8.81Zm-13.95-65.86v52.84a9.68,9.68,0,0,0,2.79,7.19c4,4,11.15,3.94,11.23,3.93,9.56,0,13.44-6.4,14.05-7.54V320.43Z"/><path class="cls-6" d="M304.58,319.48h30v57.6s-3.84,8.26-15,8.26c0,0-15,.23-15-12.07Z"/><path class="cls-3" d="M319.48,386.29c-.94,0-8.1-.15-12.5-4.48a11.52,11.52,0,0,1-3.35-8.54V318.54H335.5v58.75l-.09.19c-.17.35-4.23,8.81-15.84,8.81Zm-14-65.86v52.84a9.71,9.71,0,0,0,2.78,7.19c4.06,4,11.16,3.94,11.24,3.93,9.56,0,13.44-6.4,14.05-7.54V320.43Z"/><path class="cls-5" d="M334.55,319.48h30v57.6s-3.84,8.26-15,8.26c0,0-15,.23-15-12.07Z"/><path class="cls-3" d="M349.44,386.29c-.93,0-8.09-.15-12.49-4.48a11.52,11.52,0,0,1-3.35-8.54V318.54h31.87v58.75l-.09.19c-.17.35-4.23,8.81-15.85,8.81ZM335.5,320.43v52.84a9.67,9.67,0,0,0,2.78,7.19c4.06,4,11.16,3.94,11.24,3.93,9.55,0,13.44-6.4,14.05-7.54V320.43Z"/><path class="cls-5" d="M394.49,319.48h30v57.6s-3.84,8.26-15,8.26c0,0-15,.23-15-12.07Z"/><path class="cls-3" d="M409.38,386.29c-.93,0-8.1-.15-12.49-4.48a11.52,11.52,0,0,1-3.35-8.54V318.54H425.4v58.75l-.09.19c-.16.35-4.23,8.81-15.84,8.81Zm-13.95-65.86v52.84a9.68,9.68,0,0,0,2.79,7.19c4,4,11.15,3.94,11.24,3.93,9.55,0,13.43-6.4,14.05-7.54V320.43Z"/><path class="cls-6" d="M364.52,319.48h30v57.6s-3.85,8.26-15,8.26c0,0-15,.23-15-12.07Z"/><path class="cls-3" d="M379.41,386.29c-.93,0-8.09-.15-12.49-4.48a11.52,11.52,0,0,1-3.35-8.54V318.54h31.86v58.75l-.08.19c-.17.35-4.24,8.81-15.85,8.81Zm-13.94-65.86v52.84a9.67,9.67,0,0,0,2.78,7.19c4.05,4,11.16,3.94,11.24,3.93,9.55,0,13.43-6.4,14.05-7.54V320.43Z"/><path class="cls-7" d="M214.68,359.68h30v16.1s-3.85,8.26-15,8.26c0,0-15,.23-15-12.06Z"/><path class="cls-7" d="M244.65,359.68h30v16.1s-3.84,8.26-15,8.26c0,0-15,.23-15-12.06Z"/><path class="cls-7" d="M274.61,359.68h30v16.1s-3.84,8.26-15,8.26c0,0-15,.23-15-12.06Z"/><path class="cls-7" d="M304.58,359.68h30v16.1s-3.84,8.26-15,8.26c0,0-15,.23-15-12.06Z"/><path class="cls-7" d="M334.55,359.68h30v16.1s-3.84,8.26-15,8.26c0,0-15,.23-15-12.06Z"/><path class="cls-7" d="M394.49,359.68h30v16.1s-3.84,8.26-15,8.26c0,0-15,.23-15-12.06Z"/><path class="cls-7" d="M364.52,359.68h30v16.1s-3.85,8.26-15,8.26c0,0-15,.23-15-12.06Z"/><rect class="cls-2" x="208.92" y="305.65" width="221.3" height="13.83" rx="6" ry="6"/><path class="cls-3" d="M426.43,320.43H212.71a4.74,4.74,0,0,1-4.74-4.74v-6.25a4.74,4.74,0,0,1,4.74-4.74H426.43a4.74,4.74,0,0,1,4.73,4.74v6.25A4.74,4.74,0,0,1,426.43,320.43ZM212.71,306.6a2.85,2.85,0,0,0-2.85,2.84v6.25a2.86,2.86,0,0,0,2.85,2.85H426.43a2.85,2.85,0,0,0,2.84-2.85v-6.25a2.84,2.84,0,0,0-2.84-2.84Z"/><rect class="cls-8" x="208.92" y="437.05" width="221.3" height="13.83" rx="6" ry="6"/><path class="cls-3" d="M426.43,451.83H212.71a4.74,4.74,0,0,1-4.74-4.74v-6.25a4.74,4.74,0,0,1,4.74-4.74H426.43a4.74,4.74,0,0,1,4.73,4.74v6.25A4.74,4.74,0,0,1,426.43,451.83ZM212.71,438a2.85,2.85,0,0,0-2.85,2.84v6.25a2.85,2.85,0,0,0,2.85,2.84H426.43a2.84,2.84,0,0,0,2.84-2.84v-6.25a2.84,2.84,0,0,0-2.84-2.84Z"/><rect class="cls-6" x="252.72" y="257.81" width="136.01" height="32.27" rx="2.52" ry="2.52"/><path class="cls-3" d="M387.13,291H254.31a2.55,2.55,0,0,1-2.54-2.55V259.41a2.54,2.54,0,0,1,2.54-2.54H387.13a2.54,2.54,0,0,1,2.54,2.54v29.08A2.55,2.55,0,0,1,387.13,291ZM254.31,258.76a.66.66,0,0,0-.65.65v29.08a.66.66,0,0,0,.65.65H387.13a.66.66,0,0,0,.65-.65V259.41a.66.66,0,0,0-.65-.65Z"/><path class="cls-3" d="M460.07,362.21H444.55l-.1-.84c0-.36-1-9,2.46-12.91a5.61,5.61,0,0,1,4.22-2l0,1.44v-5.21c-.15-.7-1.5-6.06-8.85-6.06s-8.22,7.14-8.27,7.74v12.82h-9.6v-1.9h7.7v-11c0-.16.75-9.59,10.17-9.59s10.72,7.63,10.73,7.71v4.06a6.65,6.65,0,0,1,4.35,2.22c3.66,4.09,2.79,12.26,2.76,12.61Zm-13.8-1.89h12.07c.11-2.09.13-7.53-2.35-10.29a4.9,4.9,0,0,0-3.87-1.65h-.95a3.71,3.71,0,0,0-2.82,1.33C446,352.38,446.13,358.15,446.27,360.32Z"/><path class="cls-3" d="M437.9,372.6h29.2s.77-11.33-5-11.33H441.89S437.9,363.19,437.9,372.6Z"/><path class="cls-3" d="M467.4,372.92H437.59v-.32c0-9.5,4-11.54,4.17-11.62l.13,0h20.22a4,4,0,0,1,3,1.3c2.79,3,2.35,10.07,2.33,10.37Zm-29.18-.64H466.8c.05-1.37.13-7.14-2.17-9.6a3.29,3.29,0,0,0-2.52-1.1H442C441.51,361.86,438.3,364.09,438.22,372.28Z"/><path class="cls-3" d="M193.38,360.47H177.86l-.1-.85c0-.34-.9-8.52,2.76-12.6a6.66,6.66,0,0,1,4.35-2.23v-4.06c0-.08,1.39-7.71,10.73-7.71s10.16,9.44,10.17,9.53v11h7.7v1.89h-9.6V342.65c0-.59-.79-7.73-8.27-7.73-3.28,0-5.77,1-7.4,3.1a7.87,7.87,0,0,0-1.45,3v5.2l0-1.44a5.6,5.6,0,0,1,4.22,2c3.43,3.94,2.5,12.54,2.46,12.91Zm-13.79-1.9h12.07c.14-2.16.25-7.94-2.07-10.61a3.69,3.69,0,0,0-2.83-1.32h-.95a4.91,4.91,0,0,0-3.88,1.64C179.45,351.06,179.47,356.49,179.59,358.57Z"/><path class="cls-3" d="M200,370.85h-29.2s-.77-11.33,5-11.33H196S200,361.44,200,370.85Z"/><path class="cls-3" d="M200.35,371.17H170.54l0-.3c0-.3-.46-7.38,2.33-10.36a3.93,3.93,0,0,1,3-1.31h20.29l.07,0c.17.09,4.17,2.12,4.17,11.62Zm-29.22-.63h28.58c-.08-8.19-3.29-10.42-3.75-10.71H175.82a3.3,3.3,0,0,0-2.52,1.11C171,363.4,171.08,369.17,171.13,370.54Z"/><rect class="cls-9" x="232.74" y="450.88" width="175.97" height="9.03"/><rect class="cls-9" x="216.22" y="319.67" width="206.79" height="9.03"/><text class="cls-10" transform="translate(267.74 278.76)"><tspan class="cls-11">L</tspan><tspan x="5.87" y="0">O</tspan><tspan class="cls-12" x="15.21" y="0">C</tspan><tspan class="cls-13" x="23.13" y="0">AL GARDENER</tspan></text><g class="cls-14"><path class="cls-4" d="M249.64,496.65A.63.63,0,0,1,249,496v-24.2a.63.63,0,1,1,1.26,0V496A.63.63,0,0,1,249.64,496.65Z"/></g><g class="cls-14"><path class="cls-4" d="M245,513.56a.63.63,0,0,1-.63-.63V488.72a.63.63,0,0,1,1.26,0v24.21A.63.63,0,0,1,245,513.56Z"/></g><g class="cls-14"><path class="cls-4" d="M391.8,484.55a.64.64,0,0,1-.64-.63V459.71a.64.64,0,0,1,.64-.63.63.63,0,0,1,.63.63v24.21A.63.63,0,0,1,391.8,484.55Z"/></g><g class="cls-14"><path class="cls-4" d="M341.57,512.29a.63.63,0,0,1-.63-.63V487.45a.64.64,0,0,1,1.27,0v24.21A.64.64,0,0,1,341.57,512.29Z"/></g><g class="cls-14"><path class="cls-4" d="M296.91,499.29a.64.64,0,0,1-.63-.64V462.46a.63.63,0,1,1,1.26,0v36.19A.64.64,0,0,1,296.91,499.29Z"/></g><g class="cls-15"><path class="cls-4" d="M327.74,475a.31.31,0,0,1-.31-.31V463.36a.32.32,0,0,1,.63,0V474.7A.31.31,0,0,1,327.74,475Z"/></g><g class="cls-15"><path class="cls-4" d="M368,495a.64.64,0,0,1-.64-.63V483.05a.64.64,0,0,1,.64-.63.63.63,0,0,1,.63.63v11.34A.63.63,0,0,1,368,495Z"/></g><g class="cls-14"><path class="cls-4" d="M363.47,486.86a.64.64,0,0,1-.63-.64V474.89a.64.64,0,0,1,1.27,0v11.33A.64.64,0,0,1,363.47,486.86Z"/></g><g class="cls-14"><path class="cls-4" d="M273.28,505.86a.64.64,0,0,1-.64-.64v-19a.64.64,0,0,1,.64-.63.63.63,0,0,1,.63.63v19A.64.64,0,0,1,273.28,505.86Z"/></g><g class="cls-14"><path class="cls-4" d="M279.23,484.83a.64.64,0,0,1-.64-.63v-19a.64.64,0,0,1,1.27,0v19A.63.63,0,0,1,279.23,484.83Z"/></g><polygon class="cls-16" points="632.71 522.94 764.79 423.43 1134.73 420.3 1231.96 522.44 632.71 522.94"/><polygon class="cls-17" points="1111.56 182.55 753.15 182.55 725.02 257.97 1138.03 257.97 1111.56 182.55"/><path class="cls-18" d="M739.16,268.22h383.57a12,12,0,0,1,12,12V479.1a0,0,0,0,1,0,0H727.16a0,0,0,0,1,0,0V280.22A12,12,0,0,1,739.16,268.22Z"/><rect class="cls-19" x="898.69" y="388.96" width="46.74" height="88.38"/><path class="cls-20" d="M800.79,478.09V418.71a39.81,39.81,0,0,1,6.54-16,22.92,22.92,0,0,1,19.29-9.9c20.41,0,27,23.44,27,23.44v61.84H800.79Z"/><rect class="cls-18" x="827.23" y="392.81" width="8.2" height="85.16" rx="2.53" ry="2.53"/><rect class="cls-18" x="835.43" y="396.91" width="8.2" height="81.06" rx="2.53" ry="2.53"/><rect class="cls-18" x="843.63" y="407.57" width="8.2" height="70.4" rx="2.53" ry="2.53"/><rect class="cls-18" x="802.63" y="407.57" width="8.2" height="70.4" rx="2.53" ry="2.53"/><rect class="cls-18" x="810.83" y="396.91" width="8.2" height="81.06" rx="2.53" ry="2.53"/><rect class="cls-18" x="819.03" y="392.81" width="8.2" height="85.16" rx="2.53" ry="2.53"/><circle class="cls-18" cx="810.83" cy="441.16" r="2.88"/><path class="cls-21" d="M800.79,418.71l1.84,8.61s12.3-30.41,24.6-30.41,24.6,27.95,24.6,27.95l1.84-6.15s-5.85-25.9-27-25.9S800.79,418.71,800.79,418.71Z"/><rect class="cls-22" x="800.7" y="466.06" width="51.95" height="10.27"/><path class="cls-20" d="M983.55,478.09V418.71a39.64,39.64,0,0,1,6.54-16,22.9,22.9,0,0,1,19.28-9.9c20.42,0,27.06,23.44,27.06,23.44v61.84H983.55Z"/><rect class="cls-18" x="1009.99" y="392.81" width="8.2" height="85.16" rx="2.53" ry="2.53"/><rect class="cls-18" x="1018.19" y="396.91" width="8.2" height="81.06" rx="2.53" ry="2.53"/><rect class="cls-18" x="1026.39" y="407.57" width="8.2" height="70.4" rx="2.53" ry="2.53"/><rect class="cls-18" x="985.39" y="407.57" width="8.2" height="70.4" rx="2.53" ry="2.53"/><rect class="cls-18" x="993.59" y="396.91" width="8.2" height="81.06" rx="2.53" ry="2.53"/><rect class="cls-18" x="1001.79" y="392.81" width="8.2" height="85.16" rx="2.53" ry="2.53"/><circle class="cls-18" cx="993.59" cy="441.16" r="2.88"/><path class="cls-21" d="M983.55,418.71l1.84,8.61s12.3-30.41,24.6-30.41,24.6,27.95,24.6,27.95l1.84-6.15s-5.86-25.9-27.06-25.9S983.55,418.71,983.55,418.71Z"/><rect class="cls-22" x="983.46" y="466.06" width="51.95" height="10.27"/><path class="cls-18" d="M793.1,420c0-.14,0-.27,0-.41a33.6,33.6,0,0,1,67.19,0c0,.14,0,.27,0,.41h10.18c0-.14,0-.28,0-.41a43.78,43.78,0,1,0-87.55,0c0,.13,0,.27,0,.41Z"/><path class="cls-23" d="M787.57,420s2.14-38.57,39.1-38.57S865.15,420,865.15,420l-4.88-.41S858.53,386,826.68,386s-33.58,34-33.58,34Z"/><path class="cls-18" d="M976.41,420c0-.14,0-.27,0-.41a33.59,33.59,0,1,1,67.18,0c0,.14,0,.27,0,.41h10.18c0-.14,0-.28,0-.41a43.78,43.78,0,1,0-87.55,0c0,.13,0,.27,0,.41Z"/><path class="cls-23" d="M970.89,420s2.13-38.57,39.1-38.57S1048.47,420,1048.47,420l-4.89-.41S1041.85,386,1010,386s-33.58,34-33.58,34Z"/><rect class="cls-3" x="896.29" y="392.81" width="3.04" height="83.52"/><rect class="cls-3" x="945.43" y="392.81" width="3.04" height="83.52"/><rect class="cls-3" x="897.81" y="434.57" width="49.13" height="3.7"/><rect class="cls-3" x="890.33" y="475.49" width="62.33" height="3.7"/><rect class="cls-18" x="877.03" y="384.49" width="43.32" height="6.91"/><rect class="cls-18" x="925.7" y="384.49" width="43.32" height="6.91"/><rect class="cls-24" x="906.43" y="410.06" width="39" height="2.63" transform="translate(-66.47 615.64) rotate(-35.59)"/><rect class="cls-24" x="902.88" y="418.71" width="39" height="2.63" transform="translate(-72.16 615.19) rotate(-35.59)"/><rect class="cls-25" x="745.52" y="306.83" width="33.46" height="12.17"/><rect class="cls-25" x="765.8" y="321.03" width="33.46" height="12.17"/><rect class="cls-25" x="874.02" y="356.12" width="33.46" height="12.17"/><rect class="cls-25" x="944.47" y="339.69" width="25.93" height="12.17"/><rect class="cls-25" x="893.18" y="197.94" width="39.05" height="9.46"/><rect class="cls-25" x="868.16" y="215.68" width="27.16" height="9.46"/><rect class="cls-25" x="890.36" y="227.51" width="26.33" height="9.46"/><rect class="cls-25" x="1025.32" y="217.45" width="27.16" height="9.46"/><rect class="cls-25" x="1047.52" y="229.28" width="26.33" height="9.46"/><rect class="cls-25" x="1066.87" y="416.33" width="33.46" height="12.17"/><rect class="cls-25" x="737.96" y="417.34" width="28.37" height="12.17"/><rect class="cls-25" x="753.15" y="432.55" width="16.73" height="12.17"/><rect class="cls-25" x="1066.87" y="306.83" width="33.46" height="12.17"/><rect class="cls-25" x="782.4" y="422.41" width="11.15" height="54.93"/><rect class="cls-25" x="859.58" y="422.41" width="11.15" height="54.93"/><rect class="cls-25" x="965.82" y="422.41" width="11.15" height="54.93"/><rect class="cls-25" x="1043" y="422.41" width="11.15" height="54.93"/><rect class="cls-25" x="1055.54" y="432.55" width="16.73" height="12.17"/><rect class="cls-25" x="977.04" y="345.78" width="16.73" height="12.17"/><rect class="cls-25" x="1100.33" y="327.11" width="16.73" height="12.17"/><rect class="cls-25" x="911.83" y="328.15" width="25.34" height="3.36"/><rect class="cls-25" x="912.67" y="321.36" width="25.34" height="3.36" transform="translate(1754.29 845.95) rotate(-167)"/><rect class="cls-25" x="915.19" y="314.63" width="25.34" height="3.36" transform="translate(232.57 -374.73) rotate(26)"/><rect class="cls-25" x="919.39" y="308.75" width="25.34" height="3.36" transform="translate(1461.05 1138.25) rotate(-141)"/><rect class="cls-25" x="924.2" y="303.86" width="25.34" height="3.36" transform="translate(552.04 -601.64) rotate(48.95)"/><rect class="cls-25" x="929.87" y="300.04" width="25.34" height="3.36" transform="translate(1119.47 1275.43) rotate(-118.05)"/><rect class="cls-25" x="936.59" y="297.52" width="25.34" height="3.36" transform="translate(991.73 -695.19) rotate(74.95)"/><rect class="cls-25" x="943.79" y="295.99" width="25.34" height="3.36" transform="translate(693.19 1264.16) rotate(-92.05)"/><rect class="cls-25" x="981.07" y="328.15" width="25.34" height="3.36" transform="translate(1987.48 659.65) rotate(-180)"/><rect class="cls-25" x="980.23" y="321.36" width="25.34" height="3.36" transform="translate(-47.22 231.63) rotate(-13)"/><rect class="cls-25" x="977.71" y="314.63" width="25.34" height="3.36" transform="translate(2019.18 166.46) rotate(154)"/><rect class="cls-25" x="973.5" y="308.75" width="25.34" height="3.36" transform="translate(24.41 689.8) rotate(-39)"/><rect class="cls-25" x="968.7" y="303.86" width="25.34" height="3.36" transform="translate(1856.27 -233.9) rotate(131.05)"/><rect class="cls-25" x="963.02" y="300.04" width="25.34" height="3.36" transform="translate(250.61 1020.93) rotate(-61.95)"/><rect class="cls-25" x="956.3" y="297.52" width="25.34" height="3.36" transform="translate(1509.51 -558.85) rotate(105.05)"/><rect class="cls-25" x="949.1" y="295.99" width="25.34" height="3.36" transform="translate(629.9 1248.18) rotate(-87.95)"/><rect class="cls-26" x="716.44" y="256.95" width="421.99" height="9.78"/><rect class="cls-27" x="716.44" y="266.08" width="421.99" height="9.78"/><polygon class="cls-28" points="727.16 278.49 1134.73 278.6 1134.73 283.71 727.16 284.74 727.16 278.49"/><polygon class="cls-28" points="738.16 228.39 1122.73 228.87 1134.73 251.53 727.16 256.1 738.16 228.39"/><path class="cls-29" d="M1302.13,482.46l-5.58,2.55c-3-.4-3.71-1.9-3.71-1.9v-5.62c0-2.81-3.09-4-8.81-4a6.33,6.33,0,0,1-6.43-5.41v-3.61c0-5.42-7.85-5.82-7.85-5.82h-10.48a10.13,10.13,0,0,1-6.66-2.6v-4.42a3.77,3.77,0,0,0-3.58-3.4c-1.66,0-2.61-2-2.61-2V357c0-4.81-2.86-3.61-4.05-3.61s-5-1.6-5-4.21-1.91-2.41-4.29-2.41-3.57-2.6-3.57-2.6v-9.23c0-3.2,2.38-3.81,2.38-3.81h17.62a4.39,4.39,0,0,0,3.57-2V324.9c0-2.61,3.1-3.41,3.1-3.41H1284c2.38,0,4.76-1.81,4.76-5.62s-2.38-5-4.76-5-4.28-2.81-4.28-2.81v-6c0-2-3.34-2-3.34-2h-28.09c-3.81,0-3.33-2-3.33-2v-7a2.76,2.76,0,0,1,1.19-2h7.62a3.79,3.79,0,0,0,3.57-2.81v-4.61c0-2.61-4.76-3-4.76-3h-25.48c-4.05,0-3.57-1.61-3.57-2.91,0-.91-1.29-2-2.06-2.53l1.69-.44-34.35-1.61-70.51,14.48,15,43,19.14,7.81-7.86,181.42,57.52-1.47V372l1.9,3.19,16-5.41.37-6.09V452.5s-6.19-.6-6.19,9.23c0,0-1.94,2.78-9.57,2.8l.07,4.82h7v7l-6.9.2,0,1.9,11.5-.2-.58,8.44h-10.81l.05,6.8h24l.16,9.09-24.08.4.07,2h67.69v13.6l29.32-13.6ZM1200.34,296.71l12.12-4.12.39,9.28Zm1.68-18.13h-1.08l1.08-.29Zm-23.35,5.89-.57,3.08-4.34-1.78Zm21.79,105.29a237.18,237.18,0,0,1-7.09,48.08l-.12,1a44.08,44.08,0,0,1,7.16,13.14c2.8,9,.43,18-6.85,25-5.07,4.88-12.5,8.31-20.36,6.73-6.29-1.27-11-5.5-14-10.15-6.28-9.78-8.47-21.88-8.72-32.84-.54-23.76,10.58-48,9-71.76a8.73,8.73,0,0,1-4.28-7.23,61.49,61.49,0,0,1,1.35-12.94c.78-3.64,3.68-5.71,7.13-6.44a2.67,2.67,0,0,1,.17-.5,29.09,29.09,0,0,0-.08-4.18c-.5-5.12,5.53-9.45,11.23-9.45,6.42,0,10.73,4.36,11.22,9.45a36.67,36.67,0,0,1,.13,4.92q.68.42,1.32.87L1186,345l13.79,23.14A117.51,117.51,0,0,1,1200.46,389.76Zm7.65-59.11,1.08-3.07c2.2.71,4.12,2,4.21,4.45Zm11-12.29-6.69.06L1215,311l4.39-.14Z"/><path class="cls-30" d="M1253.57,315.7,1279.75,302v6s-.28,3,4.28,2.81,5.91,9,0,10.63-26.18,13.66-26.18,13.66Z"/><path class="cls-26" d="M1275,496.12c0,.58-.36,2.66-4,2.66-4.29,0-5.24-2-5.24-2v-5.61c0-2.81-3.09-4-8.81-4a6.34,6.34,0,0,1-6.43-5.42v-3.61c0-5.41-7.85-5.81-7.85-5.81h-10.48a10.16,10.16,0,0,1-6.67-2.61v-4.41a3.76,3.76,0,0,0-3.57-3.41c-1.66,0-2.62-2-2.62-2V370.65c0-4.82-2.85-3.61-4-3.61s-5-1.61-5-4.21-1.91-2.41-4.29-2.41-3.57-2.61-3.57-2.61v-9.22c0-3.21,2.38-3.81,2.38-3.81h17.62a4.39,4.39,0,0,0,3.57-2v-4.21c0-2.6,3.09-3.41,3.09-3.41h27.86c2.38,0,4.76-1.8,4.76-5.61s-2.38-5-4.76-5-4.28-2.81-4.28-2.81v-6c0-2-3.34-2-3.34-2h-28.09c-3.81,0-3.34-2-3.34-2v-7a2.76,2.76,0,0,1,1.2-2h7.61a3.8,3.8,0,0,0,3.58-2.81v-4.61c0-2.61-4.77-3-4.77-3H1200c-4,0-3.57-1.6-3.57-2.9s-2.62-2.91-2.62-2.91h-74.29c-2.85,0-4,1.2-4,3.21s-3.34,2.6-3.34,2.6h-2.62s-2.77,1-2.77,5.48,3.65,4.82,3.65,4.82h6.82c6.27,0,5.8,4.21,5.8,5.08s.15,5.88-3.65,5.88-3.58,4.54-3.58,5.61,1.67,5.35-4.36,5.35-4.84,5.21-4.84,5.21c0,6.15,4,5.15,4,5.15h12.93c4.13,0,6.91.33,6.91,5.48s3.41,4.75,3.41,4.75c3.09,0,3.65-.14,3.65,4.88s4,4.34,4,4.34,5.39-.67,5.39,4.75-2.54,4.61-2.54,4.61h-3.33c-4.44,0-3.89,3.47-3.89,3.47v93.71c-6.66,0-5.87,2.81-5.87,2.81v8.49h-4.21c-9.44,0-10.15,10.09-10.15,10.09v20.52c0,2.67-3,3.68-3,3.68H1110c-3.89,0-4.92,2.67-4.92,2.67v9.62H1275Zm-81.81-29.95s-6.19-.6-6.19,9.22c0,0-2,2.81-9.67,2.81s-8.9-.4-8.9-4.81-7-6.22-7-6.22V446.92s-1.14-4.81-5.9-4.81v-5.42s5.47.61,5.47-5,.48-73.79.48-73.79-.71-6.62,3.33-6.62,3.1-3.81,3.1-3.81-2.14-7,4.28-7H1182s4.28-.61,4.28,5.41,5,6.62,6.91,6.62Z"/><path class="cls-26" d="M1275,496v0Z"/><g class="cls-14"><path class="cls-31" d="M1276,518.69V496.12c0,.58-.36,2.66-4,2.66-4.29,0-5.24-2-5.24-2v-5.61c0-2.81-3.09-4-8.81-4a6.34,6.34,0,0,1-6.43-5.42v-3.61c0-5.41-7.85-5.81-7.85-5.81h-10.48a10.16,10.16,0,0,1-6.67-2.61v-4.41a3.76,3.76,0,0,0-3.57-3.41c-1.66,0-2.62-2-2.62-2V370.65c0-4.82-2.85-3.61-4-3.61s-5-1.61-5-4.21-1.91-2.41-4.29-2.41-3.57-2.61-3.57-2.61v-9.22c0-3.21,2.38-3.81,2.38-3.81h17.62a4.39,4.39,0,0,0,3.57-2v-4.21c0-2.6,3.1-3.41,3.1-3.41h27.85c2.38,0,4.76-1.8,4.76-5.61s-2.38-5-4.76-5-4.28-2.81-4.28-2.81v-6c0-2-3.34-2-3.34-2h-28.09c-3.81,0-3.33-2-3.33-2v-7a2.76,2.76,0,0,1,1.19-2h7.62a3.79,3.79,0,0,0,3.57-2.81v-4.61c0-2.61-4.77-3-4.77-3H1201c-4,0-3.57-1.6-3.57-2.9s-2.62-2.91-2.62-2.91h-19l.27,19.83h10.25l.48,11.47-10.48.5.07,6.83,16.9-.55-.32,7.52-16.51.15.08,8.26c1.53-.05,10.73-.1,10.73,5.42,0,6,5,6.62,6.91,6.62V466.17s-6.19-.6-6.19,9.22c0,0-1.94,2.78-9.57,2.81l.07,4.81h7v7l-6.9.2,0,1.91,11.51-.2-.58,8.44h-10.81l0,6.8h24l.16,9.09-24.08.4.07,2Z"/><path class="cls-31" d="M1176.32,342.85l.21,0,0-2.39h-.22Z"/><path class="cls-31" d="M1276,496v0Z"/></g><rect class="cls-25" x="1131.33" y="319.51" width="31.43" height="9.62"/><rect class="cls-25" x="1152.32" y="305.58" width="15.71" height="9.62"/><rect class="cls-25" x="1126.67" y="487.93" width="15.71" height="9.62"/><rect class="cls-25" x="1137.95" y="499.16" width="15.71" height="9.62"/><rect class="cls-32" x="1205.23" y="479.53" width="31.43" height="9.62"/><rect class="cls-32" x="1225.36" y="490.74" width="26.65" height="9.62"/><rect class="cls-32" x="1205.23" y="502.79" width="15.71" height="9.62"/><polygon class="cls-33" points="1202.41 283.82 1215.75 277.4 1215.75 282.21 1202.41 288.63 1202.41 283.82"/><polygon class="cls-33" points="1213.79 355.12 1230.3 348.7 1230.3 353.52 1213.79 359.93 1213.79 355.12"/><polygon class="cls-33" points="1223 363.94 1239.51 357.52 1239.51 362.34 1223 368.75 1223 363.94"/><polygon class="cls-33" points="1254.9 472.92 1271.41 466.5 1271.41 471.31 1254.9 477.73 1254.9 472.92"/><polygon class="cls-33" points="1230.3 457.79 1246.81 451.37 1246.81 456.18 1230.3 462.6 1230.3 457.79"/><polygon class="cls-33" points="1271.41 483.12 1287.93 476.7 1287.93 481.51 1271.41 487.93 1271.41 483.12"/><path class="cls-34" d="M1062.3,431.94s.31-3.09,4.18-3.09,4,3.09,4,3.09V435s8.83,5.26,8.83,11.61v43.2s-.47,2.78,1.85,2.78h1.4V520H1051.3V505H1060s2.33,1.08,2.33-3.56V476.53s3.87-2,3.87-5.73-3.87-6.19-3.87-6.19Z"/><path class="cls-26" d="M1164.07,489.69s.11-4.74-4-4.74h-10.12a3.72,3.72,0,0,1-2.68-3.51c0-2.79,0-4.24-1.34-4.24s-2.38-1.13-2.38-4.23V429.72s-4.75,1.14-4.75-5.78,5.06-6.71,5.06-6.71l-.21-8.67s.21-4.43-4-4.43-12.28,4.64-12.28,8.56V474s-.52,3.2-2,3.2-2.17.83-2.17,3.46v3l-7.27,4.79-7.26-4.79v-3c0-2.63-.72-3.46-2.17-3.46s-2-3.2-2-3.2V449.85c0-3.92-8-8.57-12.28-8.57s-4,4.44-4,4.44l-.2,8.67s5-.2,5,6.71-4.74,5.78-4.74,5.78V473c0,3.1-1,4.23-2.38,4.23s-1.34,1.45-1.34,4.24a3.72,3.72,0,0,1-2.68,3.51h-10.12c-4.13,0-4,4.74-4,4.74l-.42,30.35h97.1Z"/><rect class="cls-25" x="1091.12" y="502.12" width="20.44" height="7.43"/><rect class="cls-25" x="1114.85" y="492.09" width="15.84" height="7.43"/><rect class="cls-25" x="1134.74" y="495.8" width="10.22" height="7.43"/><polyline class="cls-26" points="1178.71 480.32 1178.75 484.39 1183.74 484.39 1183.74 490.33 1178.82 490.49 1178.84 492.11 1187.04 491.94 1186.62 499.08 1178.92 499.08 1178.96 504.83 1196.09 504.83 1196.21 512.52 1179.05 512.86 1179.1 514.57"/><polyline class="cls-35" points="1175.64 286.51 1176.07 306.81 1186.42 306.81 1186.85 317.73 1176.28 318.38 1176.79 326.66 1190.63 325.44 1191.3 332.26 1177.35 332.41 1177.26 340.55"/><rect class="cls-3" x="182.84" y="516.59" width="1155.74" height="6.44" rx="3.22" ry="3.22"/><path class="cls-29" d="M752.76,481.45l-4.9,2.67c-2.63-.42-3.26-2-3.26-2v-5.86c0-2.93-2.72-4.18-7.75-4.18s-5.65-5.65-5.65-5.65v-3.77c0-5.65-6.9-6.07-6.9-6.07h-9.21a8.35,8.35,0,0,1-5.86-2.72v-4.6a3.62,3.62,0,0,0-3.14-3.56c-1.46,0-2.3-2.09-2.3-2.09V350.51c0-5-2.51-3.77-3.56-3.77s-4.39-1.68-4.39-4.4-1.67-2.51-3.77-2.51-3.14-2.72-3.14-2.72v-9.62c0-3.35,2.1-4,2.1-4h15.48a3.88,3.88,0,0,0,3.14-2.09V317a3.9,3.9,0,0,1,2.72-3.55h24.48c2.1,0,4.19-1.89,4.19-5.86s-2.09-5.23-4.19-5.23-3.76-2.93-3.76-2.93v-6.28c0-2.1-2.93-2.1-2.93-2.1H705.47c-3.35,0-2.93-2.09-2.93-2.09v-7.32a3,3,0,0,1,1-2.09h6.7c2.51,0,3.14-2.93,3.14-2.93v-4.82c0-2.72-4.19-3.14-4.19-3.14H686.84c-3.56,0-3.14-1.67-3.14-3,0-1-1.13-2.06-1.81-2.64l1.49-.47-30.19-1.67-62,15.11,13.15,44.91L621.18,329l-6.9,189.33,50.56-1.53V366.18l1.67,3.33,14-5.64.32-6.37v92.69s-5.44-.62-5.44,9.63c0,0-1.7,2.9-8.4,2.93l.06,5h6.15v7.33l-6.07.21,0,2,10.11-.2-.51,8.81h-9.51l.05,7.09h21.14l.14,9.49-21.17.41.06,2.12H727v14.2L752.76,505ZM663.29,287.61l10.66-4.3.34,9.68Zm1.48-18.92h-.95l.95-.3Zm-20.52,6.14-.5,3.22-3.82-1.86ZM663.4,384.71a290.84,290.84,0,0,1-6.23,50.18c0,.33-.07.67-.11,1a49.36,49.36,0,0,1,6.3,13.72,27.89,27.89,0,0,1-6,26.06c-4.45,5.09-11,8.67-17.89,7-5.53-1.32-9.71-5.74-12.34-10.6-5.52-10.2-7.45-22.83-7.66-34.27C619,413,628.73,387.75,627.39,363a9.52,9.52,0,0,1-3.77-7.55,75.54,75.54,0,0,1,1.19-13.5,8.12,8.12,0,0,1,6.26-6.73,4.48,4.48,0,0,1,.16-.52,35.15,35.15,0,0,0-.08-4.36c-.44-5.34,4.87-9.87,9.87-9.87,5.64,0,9.43,4.56,9.87,9.87a46.13,46.13,0,0,1,.11,5.13c.4.29.78.6,1.15.91L650.69,338l12.12,24.15A144.08,144.08,0,0,1,663.4,384.71ZM670.13,323l1-3.21c1.93.74,3.61,2.11,3.69,4.64Zm9.66-12.83-5.88.06,2.31-7.76,3.85-.15Z"/><path class="cls-30" d="M710.08,307.43l23-14.26v6.28s-.25,3.11,3.76,2.93,5.2,9.39,0,11.09-23,14.26-23,14.26Z"/><path class="cls-26" d="M729,495.71c0,.61-.32,2.77-3.56,2.77-3.77,0-4.6-2.09-4.6-2.09v-5.86c0-2.93-2.72-4.18-7.75-4.18s-5.65-5.65-5.65-5.65v-3.77c0-5.65-6.9-6.07-6.9-6.07h-9.21a8.35,8.35,0,0,1-5.86-2.72v-4.6a3.62,3.62,0,0,0-3.14-3.56c-1.46,0-2.3-2.09-2.3-2.09V364.77c0-5-2.51-3.77-3.56-3.77s-4.39-1.67-4.39-4.4-1.68-2.51-3.77-2.51-3.14-2.72-3.14-2.72v-9.62c0-3.35,2.09-4,2.09-4H682.7a3.88,3.88,0,0,0,3.14-2.09v-4.4a3.9,3.9,0,0,1,2.72-3.55H713c2.1,0,4.19-1.89,4.19-5.86s-2.09-5.23-4.19-5.23-3.76-2.93-3.76-2.93v-6.28c0-2.09-2.93-2.09-2.93-2.09h-24.7c-3.34,0-2.93-2.1-2.93-2.1v-7.32a2.94,2.94,0,0,1,1-2.09h6.7c2.51,0,3.14-2.93,3.14-2.93v-4.82c0-2.72-4.19-3.14-4.19-3.14H663c-3.56,0-3.14-1.67-3.14-3s-2.3-3-2.3-3H592.3c-2.51,0-3.56,1.25-3.56,3.34s-2.93,2.72-2.93,2.72h-2.3s-2.44,1.05-2.44,5.72,3.21,5,3.21,5h6c5.51,0,5.09,4.39,5.09,5.3s.14,6.14-3.21,6.14S589,309.87,589,311s1.47,5.58-3.84,5.58-4.25,5.44-4.25,5.44c0,6.41,3.56,5.37,3.56,5.37h11.37c3.62,0,6.07.35,6.07,5.72s3,4.95,3,4.95c2.73,0,3.21-.14,3.21,5.09s3.49,4.54,3.49,4.54,4.74-.7,4.74,4.95-2.23,4.81-2.23,4.81H611.2a3.14,3.14,0,0,0-3.42,3.63v97.79c-5.85,0-5.16,2.93-5.16,2.93v8.86h-3.69c-8.3,0-8.93,10.53-8.93,10.53V502.6a4.34,4.34,0,0,1-2.65,3.84h-3.42a4.42,4.42,0,0,0-4.33,2.79v10H729ZM657,464.46s-5.44-.63-5.44,9.62c0,0-1.71,2.93-8.49,2.93s-7.83-.42-7.83-5-6.11-6.49-6.11-6.49V444.37s-1-5-5.19-5v-5.65s4.81.63,4.81-5.23.42-77,.42-77-.63-6.9,2.93-6.9,2.72-4,2.72-4-1.88-7.32,3.77-7.32h8.58s3.76-.63,3.76,5.65,4.4,6.9,6.07,6.9Z"/><path class="cls-26" d="M729,495.55v0Z"/><g class="cls-14"><path class="cls-3" d="M729.75,519.27V495.71c0,.61-.32,2.77-3.56,2.77-3.77,0-4.6-2.09-4.6-2.09v-5.86c0-2.93-2.72-4.18-7.75-4.18s-5.65-5.65-5.65-5.65v-3.77c0-5.65-6.9-6.07-6.9-6.07h-9.21a8.35,8.35,0,0,1-5.86-2.72v-4.6a3.62,3.62,0,0,0-3.14-3.56c-1.46,0-2.3-2.09-2.3-2.09V364.77c0-5-2.51-3.77-3.56-3.77s-4.39-1.67-4.39-4.4-1.68-2.51-3.77-2.51-3.14-2.72-3.14-2.72v-9.62c0-3.35,2.1-4,2.1-4H683.5a3.88,3.88,0,0,0,3.14-2.09v-4.4a3.9,3.9,0,0,1,2.72-3.55h24.48c2.1,0,4.19-1.89,4.19-5.86s-2.09-5.23-4.19-5.23-3.76-2.93-3.76-2.93v-6.28c0-2.09-2.93-2.09-2.93-2.09h-24.7c-3.34,0-2.92-2.1-2.92-2.1v-7.32a3,3,0,0,1,1-2.09h6.7c2.51,0,3.14-2.93,3.14-2.93v-4.82c0-2.72-4.19-3.14-4.19-3.14H663.83c-3.56,0-3.14-1.67-3.14-3s-2.3-3-2.3-3h-16.7l.24,20.69h9l.42,12-9.21.52.06,8,14.85-1.47-.28,7.85-14.51.16.07,8.62c1.35-.05,9.44-.1,9.44,5.66,0,6.28,4.39,6.9,6.06,6.9V464.46s-5.44-.63-5.44,9.62c0,0-1.7,2.9-8.4,2.93l.06,5h6.15v7.32l-6.07.21,0,2,10.12-.2-.52,8.81h-9.5l0,7.09h21.14l.14,9.49-21.17.41.06,2.12Z"/><path class="cls-3" d="M642.18,333.09l.19,0,0,.18h-.19Z"/><path class="cls-3" d="M729.75,495.55v0Z"/></g><rect class="cls-25" x="602.64" y="311.4" width="27.62" height="10.04"/><rect class="cls-25" x="621.09" y="296.86" width="13.81" height="10.04"/><rect class="cls-25" x="598.55" y="487.16" width="13.81" height="10.04"/><rect class="cls-25" x="570.19" y="514.25" width="13.81" height="10.04" rx="3.27" ry="3.27"/><rect class="cls-32" x="581.77" y="512.27" width="27" height="12.42" rx="3.27" ry="3.27"/><rect class="cls-25" x="608.46" y="498.88" width="13.81" height="10.04"/><rect class="cls-32" x="667.59" y="478.4" width="27.62" height="10.04"/><rect class="cls-32" x="685.28" y="490.09" width="23.42" height="10.04"/><rect class="cls-32" x="667.59" y="502.67" width="13.81" height="10.04"/><polygon class="cls-33" points="665.12 274.15 676.84 267.45 676.84 272.48 665.12 279.17 665.12 274.15"/><polygon class="cls-33" points="675.12 348.56 689.63 341.87 689.63 346.89 675.12 353.58 675.12 348.56"/><polygon class="cls-33" points="683.21 357.77 697.72 351.07 697.72 356.1 683.21 362.79 683.21 357.77"/><polygon class="cls-33" points="711.25 471.5 725.76 464.8 725.76 469.82 711.25 476.52 711.25 471.5"/><polygon class="cls-33" points="689.63 455.71 704.14 449.01 704.14 454.03 689.63 460.73 689.63 455.71"/><polygon class="cls-33" points="725.76 482.14 740.28 475.44 740.28 480.47 725.76 487.16 725.76 482.14"/><polyline class="cls-26" points="644 477.01 644.05 482.03 650.21 482.04 650.21 489.36 644.14 489.57 644.16 491.56 654.28 491.35 653.76 500.16 644.26 500.16 644.31 507.25 665.45 507.25 665.59 516.74 644.42 517.15 644.48 519.27"/><polyline class="cls-35" points="640.49 276.88 640.94 297.99 651.71 297.99 652.15 309.35 641.16 310.02 641.69 318.64 656.09 317.37 656.78 324.46 642.27 324.62 642.18 333.09"/><polygon class="cls-36" points="559.65 598.66 578.82 598.66 580.73 578.61 564.33 584.88 559.65 598.66"/><polygon class="cls-6" points="444.4 559.11 461.79 549.15 478.82 563.21 475.31 643.62 444.4 640.98 443.08 563.21 444.4 559.11"/><path class="cls-37" d="M464.78,542.71l7,3.52,18.74,17s11.13-25.18,10-37.48-11.13-51-10.54-52.13,9.95-1.17,3.51-7.61-32.8-10.54-32.8-10.54l-34,13.47S419.1,521,406.21,531c0,0-3.51,5.86,4.1,5.86v21.08s4.69,10,11.72,9.37S464.78,542.71,464.78,542.71Z"/><polygon class="cls-36" points="453 533.34 453 546.81 453 556.77 464.71 563.21 470.57 559.11 470.57 536.86 453 533.34"/><path class="cls-36" d="M426.71,549.15c18.74-22.84,2.93-32.79,8.79-51.54s36.9-24,36.9-24,14.05,32.8,12.3,46.27S470.05,538,470.05,538s-24.6-1.76-24-12.89"/><path class="cls-36" d="M443.68,627.34h35.14s20,40.42,6,91.37H438.41S412.06,659,443.68,627.34Z"/><path class="cls-38" d="M431.75,583.38s9.38,45.09-4.67,64.64c0,0,26.37,12.68,27.54,2.35s-2.34-108.14-2.34-108.14l-8.79,4.39v5.57S416,573.86,403.67,602.56c0,0-5.27,43.57,2.34,52.53h10.54l1.17-47.73s12.89-25.89,20.5-31.16"/><polyline class="cls-36" points="454.86 574.34 462.96 563.21 468.41 574.34 478.82 563.21 470.57 559.11"/><path class="cls-38" d="M490,583.38s-9.38,45.09,4.67,64.64c0,0-26.37,12.68-27.54,2.35s2.34-108.14,2.34-108.14l8.79,4.39v5.57s18,8.87,40.61,36.21l45.45-3.52-4.68,13.78-53.3-.33s-15.2-16.86-22.81-22.13"/><rect class="cls-36" x="564.78" y="583.75" width="13.16" height="4.07" rx="0.77" ry="0.77" transform="translate(643.09 -229.36) rotate(49.31)"/><path class="cls-36" d="M462.1,718.71v65s-18.44,11.42-27.23,7,20.21-15.81,20.21-15.81l-7.42-56.23Z"/><path class="cls-36" d="M460.86,718.71v65s18.45,11.42,27.24,7-20.21-15.81-20.21-15.81l7.42-56.23Z"/><path class="cls-36" d="M406,655.09s-11.41,6-4.12,17.11S421,673,421,673l-4.47-17.94"/><rect class="cls-38" x="687.46" y="512.34" width="14.35" height="22.49" rx="2.72" ry="2.72" transform="translate(1389.26 1047.17) rotate(180)"/><polygon class="cls-38" points="690.63 627.59 659.15 683.45 659.15 771.82 631.72 771.82 631.72 675.33 668.29 613.35 690.63 627.59"/><path class="cls-36" d="M722.12,613.35h-63s6.09,23.38,31.48,23.38V771.82h31.49Z"/><path class="cls-39" d="M717.08,560.67s.13-3.93-2.29-6.35V553a1.72,1.72,0,0,0-1.72-1.72h-.82s-5.84-3.3-10.91,0-2.54,9.39-2.54,9.39Z"/><path class="cls-40" d="M708.32,560.67s-1.78-9.14-9.65-9.14S688,560.67,688,560.67Z"/><path class="cls-41" d="M678.51,558.79s-7.87-8.79-8.63-11.33-4.82-7.11-7.87,0c0,0-1.78,11.68,2.54,13.71a46.7,46.7,0,0,0,9.65,3.05Z"/><path class="cls-42" d="M690.16,557.62s.76-3.24-3-3.24-3.81,3.24-3.81,3.24,1-6.09-3.81-6.09-4.06,4.57-4.06,4.57-3.56-1.72-4.57,3.71c0,0-2.8-3.71-4.07.86h21.59Z"/><path class="cls-43" d="M724.28,561.71H710.06v67h7.11s7.11-2,7.11-7.61Z"/><path class="cls-44" d="M710.58,561.46H659.29v63.11a4.22,4.22,0,0,0,4.57,4.17h46.72Z"/><path class="cls-36" d="M673.81,502.21s-10.13.78-9.74-6.23,9.74-2,9.74-2V471.44l8.17-3.5,26.49-2.34,10.9,5.84,2,12.48v8.94l-7.4,9.38-19.47,2.7Z"/><path class="cls-36" d="M719.72,492.63s9-5.46,9,3.5-9,4.68-9,4.68-4.29,21-23.76,21c-15.75,0-24.53-19.09-23-23.76"/><path class="cls-36" d="M698.19,502.6H681.05s.78,9.74,8.57,9.74S698.19,502.6,698.19,502.6Z"/><path class="cls-36" d="M704.92,488.39a3.12,3.12,0,1,0-6.23,0"/><path class="cls-36" d="M683.15,488.39a3.12,3.12,0,1,0-6.23,0"/><path class="cls-36" d="M691.78,496.33a2.16,2.16,0,0,1-4.32,0"/><path class="cls-36" d="M726.55,455v36.5s-7-1.61-7,2.8c0,0,.66-17.57-5.58-20.38a122.58,122.58,0,0,0-17.44-1.67c-7.8,0-19.59-2.09-19.59-2.09s-3,4.49-3,24.14c0,0-2.73-3.1-5.47-2.29V455s1.57-6,7.81-2.81c0,0,3.12-6.29,8.58-1.74,0,0,1.17-6.28,7.41-3.47,0,0,3.12-8.26,9.36-.72,0,0,7.8-.48,7.8,3.13,0,0,7.41-.41,7.8,2.8C717.18,452.14,726.55,448.13,726.55,455Z"/><path class="cls-35" d="M647.28,575.29l19.24-7.79,4.12,19.3-30.47,6.77c-16.59-2.37-8.12-16.59-8.12-16.59,20.3-33.32,53.83-49.09,53.83-49.09,0,7.45,8.46,7.45,8.46,7.45,9.14,0,8.81-7.45,8.81-7.45s22.68,11.85,51.79,55.52c0,0,4.41,15.57-11.85,15.57l-23,2.71-1.78-20,18,1.4"/><path class="cls-36" d="M666.52,567.5s18.24-14,23.71,0c0,0,8.29,18.31-6,17.13s-14.78-4.44-14.78-4.44Z"/><path class="cls-36" d="M718.56,584.68s-16.73-7.85-16.75,10.42,18,3.4,18,3.4Z"/><polygon class="cls-3" points="732.89 582.8 718.29 581.67 720.07 601.69 732.89 600.19 732.89 582.8"/><polygon class="cls-3" points="666.59 569.26 653.1 572.93 656.82 589.17 670.65 586.64 666.59 569.26"/><path class="cls-36" d="M722.12,771.82s12,19-8.25,19.63-41.06,0-41.06,0-13.66-12.18,17.82-19.63Z"/><path class="cls-36" d="M658.13,771.82s12,19-8.25,19.63-41.06,0-41.06,0-13.66-12.18,17.82-19.63Z"/><path class="cls-36" d="M460.91,515.15s2.1,5.62,6,5.62,6-5.62,6-5.62"/></svg>