<svg id="Layer_1" data-name="Layer 1" xmlns="http://www.w3.org/2000/svg" viewBox="0 0 1447.49 809.63"><defs><style>.cls-1,.cls-5{fill:#e0f498;}.cls-1,.cls-81{opacity:0.2;}.cls-2{opacity:0.13;}.cls-3{fill:#00d6ff;}.cls-19,.cls-34,.cls-37,.cls-4,.cls-57,.cls-58,.cls-61{fill:#fff;}.cls-26,.cls-28,.cls-5,.cls-7{opacity:0.35;}.cls-32,.cls-33,.cls-42,.cls-6{fill:#e6e7e8;}.cls-38,.cls-7,.cls-72{fill:#b4cb00;}.cls-8{fill:#dadcea;opacity:0.37;}.cls-9{fill:#ced3d8;}.cls-10,.cls-11,.cls-12,.cls-14,.cls-21,.cls-29,.cls-32,.cls-33,.cls-34,.cls-35,.cls-36,.cls-37,.cls-42,.cls-58,.cls-59,.cls-60,.cls-9,.cls-92{stroke:#43446e;}.cls-10,.cls-11,.cls-21,.cls-29,.cls-32,.cls-33,.cls-34,.cls-35,.cls-36,.cls-37,.cls-39,.cls-40,.cls-41,.cls-42,.cls-43,.cls-9{stroke-linecap:round;stroke-linejoin:round;}.cls-12,.cls-21,.cls-29,.cls-32,.cls-9{stroke-width:4px;}.cls-10{fill:#637184;}.cls-10,.cls-11,.cls-14{stroke-width:5px;}.cls-11,.cls-27{fill:#8091ab;}.cls-12,.cls-14,.cls-21{fill:#dbe0e6;}.cls-12,.cls-14,.cls-30,.cls-57,.cls-58,.cls-59,.cls-60,.cls-61,.cls-92{stroke-miterlimit:10;}.cls-13{fill:#b4e1ef;}.cls-15,.cls-16,.cls-17,.cls-18,.cls-22,.cls-28,.cls-30{fill:#43446e;}.cls-15{opacity:0.45;}.cls-16{opacity:0.32;}.cls-17{opacity:0.25;}.cls-19{opacity:0.3;}.cls-20{fill:#a4b1c3;}.cls-22{opacity:0.17;}.cls-23{fill:#7d7e93;opacity:0.36;}.cls-24{fill:#cecfe0;}.cls-25{fill:#9798af;}.cls-29,.cls-39,.cls-40,.cls-41,.cls-43{fill:none;}.cls-30{stroke:#2b2c3f;}.cls-31{fill:#fba955;}.cls-33,.cls-34,.cls-35,.cls-36{stroke-width:2px;}.cls-35{fill:#b5eacf;}.cls-36{fill:#96d4b7;}.cls-37,.cls-39,.cls-40,.cls-41,.cls-42,.cls-43,.cls-58,.cls-60,.cls-92{stroke-width:3px;}.cls-38{opacity:0.12;}.cls-39,.cls-40,.cls-41,.cls-43{stroke:#00aeef;}.cls-39{stroke-dasharray:7.94 7.94;}.cls-40{stroke-dasharray:8.26 8.26;}.cls-41{stroke-dasharray:7.74 7.74;}.cls-43{stroke-dasharray:8;}.cls-44,.cls-79,.cls-81{fill:#231f20;}.cls-44{opacity:0.16;}.cls-45{fill:#7bb996;}.cls-46{fill:#7ab895;}.cls-47{fill:#fbac17;}.cls-48{fill:#fdc76e;}.cls-49{fill:#ef7b4a;}.cls-50{fill:#ec613b;}.cls-51{fill:#ef7c4b;}.cls-52{fill:#ef7d4c;}.cls-53{fill:#ed6038;}.cls-54{fill:#ec5c35;}.cls-55{fill:#fdf4f3;}.cls-56{fill:#b5d458;}.cls-57{stroke:#808285;}.cls-59{fill:#ebeced;}.cls-60{fill:#d1d3d4;}.cls-61{stroke:#000;}.cls-62{fill:#f0f1f1;}.cls-63{fill:#43436f;}.cls-64{fill:#93d4b5;}.cls-65{fill:#bbbdbf;}.cls-66{fill:#eaebec;}.cls-67{fill:#763433;}.cls-68{fill:#80463e;}.cls-69{fill:#bde200;}.cls-70{fill:#834e40;}.cls-71{fill:#7f9400;}.cls-73{fill:#ff7c00;}.cls-74{fill:#fc6900;}.cls-75{fill:#642c3b;}.cls-76{fill:#cdb08c;}.cls-77{fill:#51270b;}.cls-78{fill:#e55241;}.cls-79{opacity:0.22;}.cls-80{fill:#bcbec0;}.cls-82{font-size:13.56px;fill:#ed5950;font-family:Bariol-Bold, Bariol Bold;font-weight:700;}.cls-83{letter-spacing:-0.04em;}.cls-84{letter-spacing:0em;}.cls-85{letter-spacing:0em;}.cls-86{opacity:0.33;}.cls-87{fill:#d7e370;}.cls-88{fill:#ec5d36;}.cls-89{fill:#ef7c4a;}.cls-90{fill:#f59342;}.cls-91{fill:#fbad1a;}.cls-92{fill:#f1f2f2;}.cls-93{fill:#fefdfd;}.cls-94{fill:#fefefe;}.cls-95{fill:#fdfcfc;}</style></defs><title>Artboard 3</title><polygon class="cls-1" points="729.85 423.89 1517.1 423.89 1489.49 809.67 707.74 809.29 729.85 423.89"/><g class="cls-2"><rect class="cls-3" x="814.84" y="40.12" width="254.04" height="23.57" rx="11.78" ry="11.78"/><rect class="cls-3" x="841.06" y="89.93" width="187.92" height="25.97" rx="12" ry="12"/><rect class="cls-3" x="874.91" y="63.69" width="139.07" height="26.24"/><rect class="cls-4" x="781.84" y="63.69" width="105.58" height="26.24" rx="12" ry="12"/><rect class="cls-4" x="994.83" y="63.69" width="105.58" height="26.24" rx="12" ry="12"/></g><polygon class="cls-5" points="-59.11 413.36 821.96 422.8 715.15 528.84 3.72 525.96 -59.11 413.36"/><polygon class="cls-5" points="-61.62 526.44 782.01 526.44 642.86 836.92 -88.51 857.08 -61.62 526.44"/><polygon class="cls-6" points="553.21 809.67 665.05 576.71 810.46 434.21 847.78 419.15 944.77 422.85 833.82 576.71 747.98 809.63 553.21 809.67"/><g class="cls-2"><rect class="cls-3" x="51.11" y="69.89" width="175.02" height="16.24" rx="8.12" ry="8.12"/><rect class="cls-3" x="69.17" y="104.21" width="129.47" height="17.89" rx="8.94" ry="8.94"/><rect class="cls-3" x="92.5" y="86.13" width="95.82" height="18.08"/><rect class="cls-4" x="28.37" y="86.13" width="72.74" height="18.08" rx="9.04" ry="9.04"/><rect class="cls-4" x="175.12" y="86.13" width="72.74" height="18.08" rx="9.04" ry="9.04"/></g><g class="cls-2"><rect class="cls-3" x="56.55" y="121.31" width="175.02" height="16.24" rx="8.12" ry="8.12"/><rect class="cls-3" x="74.62" y="155.63" width="129.47" height="17.89" rx="8.94" ry="8.94"/><rect class="cls-3" x="97.94" y="137.55" width="95.82" height="18.08"/><rect class="cls-4" x="33.82" y="137.55" width="72.74" height="18.08" rx="9.04" ry="9.04"/><rect class="cls-4" x="180.56" y="137.55" width="72.74" height="18.08" rx="9.04" ry="9.04"/></g><path class="cls-7" d="M404,422.8s-98.54,10.11-98.54,104.61H492S490.38,422.8,593.3,422.8Z"/><polygon class="cls-8" points="248.09 422.93 577.07 324.78 1471.49 321.79 1473.48 429.01 248.09 422.93"/><polygon class="cls-9" points="814.48 133.29 814.48 350.87 743.26 379.69 743.26 121.63 780.18 61.55 814.48 133.29"/><polygon class="cls-10" points="789.14 40.25 850.76 151.33 826.76 151.33 780.18 61.55 789.14 40.25"/><polygon class="cls-11" points="789.14 40.25 395.87 40.25 339.14 161.59 742.76 161.59 789.14 40.25"/><path class="cls-12" d="M353.26,171.69h378a12,12,0,0,1,12,12v196a0,0,0,0,1,0,0h-402a0,0,0,0,1,0,0v-196A12,12,0,0,1,353.26,171.69Z"/><rect class="cls-13" x="541.62" y="290.79" width="46.1" height="87.17"/><path class="cls-14" d="M445.06,378.69V320.13a39.21,39.21,0,0,1,6.45-15.78,22.59,22.59,0,0,1,19-9.76c20.14,0,26.69,23.11,26.69,23.11v61H445.06Z"/><rect class="cls-12" x="471.14" y="294.59" width="8.09" height="83.99" rx="4.04" ry="4.04"/><rect class="cls-12" x="479.22" y="298.63" width="8.09" height="79.95" rx="4.04" ry="4.04"/><rect class="cls-12" x="487.31" y="309.14" width="8.09" height="69.44" rx="4.04" ry="4.04"/><rect class="cls-12" x="446.88" y="309.14" width="8.09" height="69.44" rx="4.04" ry="4.04"/><rect class="cls-12" x="454.96" y="298.63" width="8.09" height="79.95" rx="4.04" ry="4.04"/><rect class="cls-12" x="463.05" y="294.59" width="8.09" height="83.99" rx="4.04" ry="4.04"/><circle class="cls-12" cx="454.96" cy="342.27" r="2.84"/><path class="cls-15" d="M445.06,320.13l1.82,8.49s12.13-30,24.26-30,24.26,27.56,24.26,27.56l1.82-6.06s-5.78-25.54-26.69-25.54S445.06,320.13,445.06,320.13Z"/><rect class="cls-16" x="444.97" y="366.83" width="51.24" height="10.13"/><path class="cls-14" d="M625.31,378.69V320.13a39.31,39.31,0,0,1,6.46-15.78,22.58,22.58,0,0,1,19-9.76c20.13,0,26.69,23.11,26.69,23.11v61H625.31Z"/><rect class="cls-12" x="651.4" y="294.59" width="8.09" height="83.99" rx="4.04" ry="4.04"/><rect class="cls-12" x="659.48" y="298.63" width="8.09" height="79.95" rx="4.04" ry="4.04"/><rect class="cls-12" x="667.57" y="309.14" width="8.09" height="69.44" rx="4.04" ry="4.04"/><rect class="cls-12" x="627.13" y="309.14" width="8.09" height="69.44" rx="4.04" ry="4.04"/><rect class="cls-12" x="635.22" y="298.63" width="8.09" height="79.95" rx="4.04" ry="4.04"/><rect class="cls-12" x="643.31" y="294.59" width="8.09" height="83.99" rx="4.04" ry="4.04"/><circle class="cls-12" cx="635.22" cy="342.27" r="2.84"/><path class="cls-15" d="M625.31,320.13l1.82,8.49s12.13-30,24.27-30,24.26,27.56,24.26,27.56l1.82-6.06s-5.78-25.54-26.69-25.54S625.31,320.13,625.31,320.13Z"/><rect class="cls-16" x="625.23" y="366.83" width="51.24" height="10.13"/><path class="cls-12" d="M437.47,321.42c0-.13,0-.26,0-.4a33.13,33.13,0,0,1,66.26,0c0,.14,0,.27,0,.4h10.05c0-.13,0-.27,0-.41a43.18,43.18,0,0,0-86.36,0c0,.14,0,.28,0,.41Z"/><path class="cls-17" d="M432,321.42s2.11-38,38.57-38,38,38,38,38l-4.82-.4s-1.71-33.13-33.13-33.13-33.12,33.53-33.12,33.53Z"/><path class="cls-12" d="M618.27,321.42c0-.13,0-.26,0-.4a33.14,33.14,0,0,1,66.27,0c0,.14,0,.27,0,.4h10c0-.13,0-.27,0-.41a43.18,43.18,0,0,0-86.35,0c0,.14,0,.28,0,.41Z"/><path class="cls-17" d="M612.83,321.42s2.1-38,38.57-38,38,38,38,38l-4.82-.4s-1.71-33.13-33.13-33.13-33.13,33.53-33.13,33.53Z"/><rect class="cls-18" x="539.26" y="294.59" width="3" height="82.38"/><rect class="cls-18" x="587.72" y="294.59" width="3" height="82.38"/><rect class="cls-18" x="540.76" y="335.77" width="48.46" height="3.65"/><rect class="cls-18" x="533.37" y="376.14" width="61.47" height="3.65"/><rect class="cls-12" x="520.26" y="286.38" width="42.73" height="6.81"/><rect class="cls-12" x="568.26" y="286.38" width="42.73" height="6.81"/><rect class="cls-19" x="549.26" y="311.6" width="38.46" height="2.59" transform="translate(-75.92 389.25) rotate(-35.59)"/><rect class="cls-19" x="545.76" y="320.13" width="38.46" height="2.59" transform="translate(-81.53 388.8) rotate(-35.59)"/><rect class="cls-20" x="359.37" y="209.78" width="33" height="12"/><rect class="cls-20" x="379.37" y="223.78" width="33" height="12"/><rect class="cls-20" x="517.28" y="258.4" width="33" height="12"/><rect class="cls-20" x="555.59" y="242.19" width="25.58" height="12"/><rect class="cls-20" x="419.63" y="60.42" width="38.51" height="9.33"/><rect class="cls-20" x="440.71" y="73.09" width="38.51" height="9.33"/><rect class="cls-20" x="505.01" y="102.37" width="38.51" height="9.33"/><rect class="cls-20" x="656.4" y="65.09" width="38.51" height="9.33"/><rect class="cls-20" x="480.33" y="119.87" width="26.78" height="9.33"/><rect class="cls-20" x="502.22" y="131.54" width="25.97" height="9.33"/><rect class="cls-20" x="635.34" y="121.62" width="26.78" height="9.33"/><rect class="cls-20" x="657.23" y="133.29" width="25.97" height="9.33"/><rect class="cls-20" x="379.37" y="304.78" width="33" height="12"/><rect class="cls-20" x="364.38" y="318.78" width="27.98" height="12"/><rect class="cls-20" x="379.37" y="333.78" width="16.5" height="12"/><rect class="cls-20" x="676.32" y="209.78" width="33" height="12"/><rect class="cls-20" x="426.92" y="323.78" width="11" height="54.18"/><rect class="cls-20" x="503.04" y="323.78" width="11" height="54.18"/><rect class="cls-20" x="607.84" y="323.78" width="11" height="54.18"/><rect class="cls-20" x="683.95" y="323.78" width="11" height="54.18"/><rect class="cls-20" x="696.32" y="333.78" width="16.5" height="12"/><rect class="cls-20" x="587.72" y="248.19" width="16.5" height="12"/><rect class="cls-20" x="709.32" y="229.78" width="16.5" height="12"/><rect class="cls-20" x="523.39" y="230.81" width="25" height="3.32"/><rect class="cls-20" x="524.22" y="224.11" width="25" height="3.32" transform="translate(1008.9 566.48) rotate(-167)"/><rect class="cls-20" x="526.71" y="217.48" width="25" height="3.32" transform="translate(150.63 -214.2) rotate(26)"/><rect class="cls-20" x="530.85" y="211.67" width="25" height="3.32" transform="translate(831.36 721.07) rotate(-141)"/><rect class="cls-20" x="535.6" y="206.85" width="25" height="3.32" transform="translate(345.4 -341.76) rotate(48.95)"/><rect class="cls-20" x="541.19" y="203.08" width="25" height="3.32" transform="translate(633.36 789.67) rotate(-118.05)"/><rect class="cls-20" x="547.82" y="200.6" width="25" height="3.32" transform="translate(610.15 -391.36) rotate(74.95)"/><rect class="cls-20" x="554.92" y="199.09" width="25" height="3.32" transform="translate(387.1 774.98) rotate(-92.05)"/><rect class="cls-20" x="591.69" y="230.81" width="25" height="3.32" transform="translate(1208.37 464.93) rotate(-180)"/><rect class="cls-20" x="590.86" y="224.11" width="25" height="3.32" transform="translate(-35.32 141.51) rotate(-13)"/><rect class="cls-20" x="588.37" y="217.48" width="25" height="3.32" transform="translate(1236.99 152.69) rotate(154)"/><rect class="cls-20" x="584.23" y="211.67" width="25" height="3.32" transform="translate(-1.27 423.07) rotate(-39)"/><rect class="cls-20" x="579.49" y="206.85" width="25" height="3.32" transform="translate(1138 -101) rotate(131.05)"/><rect class="cls-20" x="573.89" y="203.08" width="25" height="3.32" transform="translate(129.96 625.98) rotate(-61.95)"/><rect class="cls-20" x="567.26" y="200.6" width="25" height="3.32" transform="translate(925.61 -305.1) rotate(105.05)"/><rect class="cls-20" x="560.16" y="199.09" width="25" height="3.32" transform="translate(351.57 765.86) rotate(-87.95)"/><path class="cls-18" d="M769.66,164.15l18.44-9.53a4.37,4.37,0,0,1,6.38,3.88v74.57a4.38,4.38,0,0,1-2.43,3.92l-16.45,8.16a4.37,4.37,0,0,1-6.31-3.79l-2-73.21A4.37,4.37,0,0,1,769.66,164.15Z"/><rect class="cls-21" x="330.68" y="160.58" width="416.22" height="9.65"/><rect class="cls-10" x="330.68" y="169.58" width="416.22" height="9.65"/><polygon class="cls-21" points="748.01 150.62 811.35 121.63 780.18 61.55 748.01 150.62"/><path class="cls-18" d="M779.27,115.11l5.39-2.84a2.05,2.05,0,0,0,1.1-1.82V95.72a2.06,2.06,0,0,0-3-1.84l-5.38,2.64a2.06,2.06,0,0,0-1.15,1.85v14.92A2.06,2.06,0,0,0,779.27,115.11Z"/><polygon class="cls-21" points="801.13 236.25 762.33 255.18 763.3 247.13 801.7 228.39 801.13 236.25"/><polygon class="cls-20" points="765.5 206.54 748.61 214.78 748.61 208.18 765.37 200 765.5 206.54"/><polygon class="cls-20" points="758.79 218.08 747.98 223.36 748.15 218.28 758.85 213.05 758.79 218.08"/><polygon class="cls-22" points="760.82 254.19 803.21 235.33 803.21 241.79 760.82 262.09 760.82 254.19"/><polygon class="cls-22" points="341.26 181.83 743.25 181.94 743.26 186.98 341.26 188 341.26 181.83"/><path class="cls-18" d="M769.66,268.94l18.44-9.53a4.37,4.37,0,0,1,6.38,3.88v74.57a4.35,4.35,0,0,1-2.43,3.91l-16.45,8.17a4.37,4.37,0,0,1-6.31-3.79l-2-73.21A4.37,4.37,0,0,1,769.66,268.94Z"/><polygon class="cls-21" points="801.13 341.04 762.33 359.97 763.3 351.91 801.7 333.18 801.13 341.04"/><polygon class="cls-22" points="760.82 358.98 803.21 340.12 803.21 346.57 760.82 366.88 760.82 358.98"/><path class="cls-23" d="M266.38,19.92v0Z"/><path class="cls-24" d="M369.67,380.06l-5.5,3c-2.95-.47-3.66-2.24-3.66-2.24v-6.57c0-3.29-3.05-4.7-8.69-4.7s-6.34-6.34-6.34-6.34V359c0-6.34-7.75-6.81-7.75-6.81H327.4a9.4,9.4,0,0,1-6.58-3.05V344c0-2.11-1.87-4-3.52-4s-2.58-2.35-2.58-2.35V233.11c0-5.63-2.82-4.22-4-4.22s-4.94-1.88-4.94-4.94-1.87-2.81-4.22-2.81-3.53-3.06-3.53-3.06v-10.8c0-3.76,2.35-4.46,2.35-4.46h17.38a4.33,4.33,0,0,0,3.52-2.35v-4.93c0-3,3.06-4,3.06-4h27.47c2.35,0,4.7-2.12,4.7-6.58s-2.35-5.87-4.7-5.87-4.23-3.29-4.23-3.29v-7c0-2.35-3.28-2.35-3.28-2.35H316.6c-3.76,0-3.29-2.35-3.29-2.35v-8.22a3.33,3.33,0,0,1,1.17-2.35H322c2.82,0,3.52-3.28,3.52-3.28v-5.4c0-3.06-4.7-3.53-4.7-3.53H295.7c-4,0-3.53-1.88-3.53-3.4,0-1.07-1.27-2.32-2-3l1.67-.53-33.88-1.88-69.55,17,14.76,50.39L222,209l-7.75,212.47L271,419.77V250.71l1.88,3.73,15.74-6.33L289,241V345s-6.11-.7-6.11,10.81c0,0-1.91,3.25-9.43,3.28l.06,5.64h6.91v8.22l-6.81.23,0,2.23,11.34-.23-.57,9.89H273.74l.05,8h23.72l.16,10.65-23.75.46.07,2.38h66.76v15.93l28.92-15.93ZM269.27,162.53l12-4.82.38,10.86Zm1.66-21.24h-1.07l1.07-.33Zm-23,6.9-.57,3.61-4.27-2.09ZM269.39,271.5a325.8,325.8,0,0,1-7,56.3c0,.38-.07.76-.11,1.14a55.21,55.21,0,0,1,7.06,15.39,31.28,31.28,0,0,1-6.76,29.25c-5,5.72-12.32,9.73-20.08,7.88-6.2-1.48-10.9-6.44-13.85-11.89-6.19-11.46-8.35-25.62-8.6-38.46-.53-27.82,10.44-56.2,8.93-84a10.7,10.7,0,0,1-4.23-8.47,84.76,84.76,0,0,1,1.33-15.16,9.12,9.12,0,0,1,7-7.54c0-.21.11-.4.17-.59a39.78,39.78,0,0,0-.08-4.89c-.49-6,5.46-11.08,11.07-11.08,6.34,0,10.59,5.12,11.08,11.08a50.2,50.2,0,0,1,.12,5.76c.45.32.88.66,1.3,1l-1.64,1.87,13.6,27.11A162.12,162.12,0,0,1,269.39,271.5Zm7.55-69.22,1.07-3.6c2.16.83,4.05,2.36,4.14,5.21Zm10.85-14.4-6.6.07,2.58-8.71,4.33-.16Z"/><path class="cls-25" d="M321.77,184.77l25.82-16v7s-.27,3.5,4.23,3.29,5.83,10.54,0,12.45-25.82,16-25.82,16Z"/><path class="cls-21" d="M343,396.06c0,.68-.36,3.11-4,3.11-4.23,0-5.17-2.34-5.17-2.34v-6.58c0-3.29-3.05-4.7-8.69-4.7s-6.34-6.34-6.34-6.34V375c0-6.34-7.75-6.81-7.75-6.81H300.68a9.39,9.39,0,0,1-6.58-3.06V360c0-2.12-1.88-4-3.52-4s-2.58-2.34-2.58-2.34V249.12c0-5.64-2.82-4.23-4-4.23s-4.93-1.88-4.93-4.93-1.88-2.82-4.22-2.82-3.53-3-3.53-3V223.28c0-3.75,2.35-4.46,2.35-4.46h17.38a4.33,4.33,0,0,0,3.52-2.35v-4.93a4.39,4.39,0,0,1,3.05-4H325.1c2.35,0,4.7-2.11,4.7-6.57s-2.35-5.88-4.7-5.88-4.23-3.28-4.23-3.28v-7c0-2.35-3.28-2.35-3.28-2.35H289.88c-3.76,0-3.29-2.34-3.29-2.34v-8.22a3.33,3.33,0,0,1,1.17-2.35h7.52c2.81,0,3.52-3.29,3.52-3.29v-5.4c0-3-4.7-3.52-4.7-3.52H269c-4,0-3.52-1.88-3.52-3.41s-2.58-3.4-2.58-3.4H189.6c-2.82,0-4,1.41-4,3.75s-3.29,3.06-3.29,3.06h-2.58s-2.74,1.17-2.74,6.42,3.6,5.63,3.6,5.63h6.73c6.19,0,5.72,4.93,5.72,6s.15,6.89-3.61,6.89-3.52,5.32-3.52,6.57,1.65,6.27-4.3,6.27-4.78,6.1-4.78,6.1c0,7.2,4,6,4,6h12.76c4.07,0,6.81.39,6.81,6.42s3.37,5.56,3.37,5.56c3,0,3.6-.16,3.6,5.71s3.91,5.09,3.91,5.09,5.33-.78,5.33,5.56-2.51,5.4-2.51,5.4h-3.29A3.52,3.52,0,0,0,207,245V354.71c-6.58,0-5.79,3.29-5.79,3.29v9.94H197c-9.32,0-10,11.82-10,11.82v24a4.87,4.87,0,0,1-3,4.31h-3.83a5,5,0,0,0-4.86,3.13V422.5H343ZM262.26,361s-6.11-.71-6.11,10.8c0,0-1.93,3.29-9.53,3.29s-8.79-.47-8.79-5.64-6.85-7.28-6.85-7.28V338.44s-1.13-5.63-5.83-5.63v-6.34s5.4.7,5.4-5.87.47-86.42.47-86.42-.7-7.75,3.29-7.75,3.05-4.46,3.05-4.46-2.11-8.22,4.23-8.22h9.63s4.23-.71,4.23,6.34,4.93,7.75,6.81,7.75Z"/><path class="cls-21" d="M343,395.89v0Z"/><g class="cls-26"><path class="cls-18" d="M343.85,422.5V396.06c0,.68-.36,3.11-4,3.11-4.22,0-5.16-2.34-5.16-2.34v-6.58c0-3.29-3.06-4.7-8.69-4.7s-6.34-6.34-6.34-6.34V375c0-6.34-7.75-6.81-7.75-6.81H301.58a9.36,9.36,0,0,1-6.58-3.06V360c0-2.12-1.88-4-3.52-4s-2.58-2.34-2.58-2.34V249.12c0-5.64-2.82-4.23-4-4.23S280,243,280,240s-1.88-2.82-4.23-2.82-3.52-3-3.52-3V223.28c0-3.75,2.35-4.46,2.35-4.46H292a4.33,4.33,0,0,0,3.52-2.35v-4.93a4.39,4.39,0,0,1,3-4H326c2.35,0,4.7-2.11,4.7-6.57s-2.35-5.88-4.7-5.88-4.23-3.28-4.23-3.28v-7c0-2.35-3.29-2.35-3.29-2.35H290.77c-3.75,0-3.28-2.34-3.28-2.34v-8.22a3.33,3.33,0,0,1,1.17-2.35h7.52c2.81,0,3.52-3.29,3.52-3.29v-5.4c0-3-4.7-3.52-4.7-3.52H269.87c-4,0-3.52-1.88-3.52-3.41s-2.58-3.4-2.58-3.4H245l.27,23.22h10.11l.47,13.44-10.34.58.07,9,16.67-1.65-.31,8.81-16.29.17.08,9.68c1.51-.06,10.59-.11,10.59,6.35,0,7,4.93,7.75,6.81,7.75V361s-6.11-.71-6.11,10.8c0,0-1.91,3.25-9.43,3.29l.06,5.63h6.91v8.22l-6.81.23,0,2.23,11.34-.23-.57,9.88H247.92l0,8h23.73l.16,10.65-23.76.47.07,2.37Z"/><path class="cls-18" d="M245.58,213.57l.21,0,0,.2h-.22Z"/><path class="cls-18" d="M343.85,395.89v0Z"/></g><rect class="cls-20" x="201.21" y="189.22" width="31" height="11.27"/><rect class="cls-20" x="221.9" y="172.91" width="15.5" height="11.27"/><rect class="cls-20" x="196.61" y="386.47" width="15.5" height="11.27"/><rect class="cls-20" x="164.8" y="416.87" width="15.5" height="11.27" rx="3.27" ry="3.27"/><rect class="cls-27" x="177.79" y="414.65" width="30.3" height="13.93" rx="3.27" ry="3.27"/><rect class="cls-20" x="207.74" y="399.62" width="15.5" height="11.27"/><rect class="cls-27" x="274.1" y="376.63" width="31" height="11.27"/><rect class="cls-27" x="293.95" y="389.76" width="26.29" height="11.27"/><rect class="cls-27" x="274.1" y="403.87" width="15.5" height="11.27"/><polygon class="cls-28" points="271.32 147.43 284.47 139.91 284.47 145.55 271.32 153.06 271.32 147.43"/><polygon class="cls-28" points="282.54 230.93 298.83 223.42 298.83 229.05 282.54 236.57 282.54 230.93"/><polygon class="cls-28" points="291.62 241.26 307.91 233.75 307.91 239.39 291.62 246.9 291.62 241.26"/><polygon class="cls-28" points="323.09 368.89 339.38 361.37 339.38 367.01 323.09 374.52 323.09 368.89"/><polygon class="cls-28" points="298.83 351.17 315.11 343.65 315.11 349.29 298.83 356.81 298.83 351.17"/><polygon class="cls-28" points="339.38 380.83 355.66 373.32 355.66 378.95 339.38 386.47 339.38 380.83"/><polyline class="cls-21" points="247.62 375.07 247.68 380.71 254.59 380.72 254.59 388.94 247.78 389.17 247.81 391.4 259.15 391.17 258.58 401.05 247.92 401.05 247.97 409.01 271.69 409.01 271.85 419.66 248.09 420.13 248.16 422.5"/><polyline class="cls-29" points="243.69 150.49 244.19 174.18 256.27 174.18 256.77 186.93 244.44 187.68 245.03 197.35 261.19 195.93 261.97 203.89 245.68 204.06 245.58 213.57"/><path class="cls-24" d="M941.13,387.89l-5.5,2.52c-3-.39-3.66-1.88-3.66-1.88V383c0-2.77-3.06-3.95-8.69-3.95a6.24,6.24,0,0,1-6.34-5.34v-3.56c0-5.34-7.75-5.74-7.75-5.74H898.86a10,10,0,0,1-6.58-2.57v-4.35a3.72,3.72,0,0,0-3.52-3.36c-1.65,0-2.58-2-2.58-2v-88c0-4.75-2.82-3.56-4-3.56s-4.93-1.58-4.93-4.15S875.37,254,873,254s-3.52-2.57-3.52-2.57v-9.1c0-3.16,2.35-3.75,2.35-3.75h17.38a4.32,4.32,0,0,0,3.52-2v-4.16c0-2.57,3-3.36,3-3.36h27.48c2.35,0,4.7-1.78,4.7-5.54s-2.35-4.94-4.7-4.94-4.23-2.77-4.23-2.77v-5.93c0-2-3.29-2-3.29-2H888.05c-3.75,0-3.28-2-3.28-2v-6.92a2.73,2.73,0,0,1,1.17-2h7.52a3.74,3.74,0,0,0,3.52-2.77v-4.54c0-2.58-4.7-3-4.7-3H867.15c-4,0-3.52-1.58-3.52-2.87,0-.9-1.27-2-2-2.49l1.67-.44-33.88-1.59-69.55,14.28,14.76,42.45,18.87,7.7-7.75,178.94,56.74-1.45V279l1.87,3.14,15.74-5.33.37-6v87.61s-6.11-.6-6.11,9.09c0,0-1.91,2.75-9.43,2.77L845,375h6.91v6.92l-6.81.2,0,1.88,11.35-.2-.57,8.33H845.2l0,6.7H869l.16,9-23.76.39.07,2h66.77v13.42l28.92-13.42Zm-100.4-183.2,12-4.07.38,9.15Zm1.66-17.89h-1.07l1.07-.28Zm-23,5.81-.56,3-4.27-1.76Zm21.5,103.85a234.31,234.31,0,0,1-7,47.42c0,.32-.07.64-.11,1a43.32,43.32,0,0,1,7.06,13c2.76,8.89.43,17.71-6.76,24.63-5,4.81-12.33,8.19-20.08,6.64-6.21-1.25-10.9-5.43-13.85-10-6.19-9.65-8.35-21.57-8.6-32.39-.53-23.43,10.44-47.33,8.92-70.77a8.65,8.65,0,0,1-4.23-7.13A61.14,61.14,0,0,1,797.54,256c.77-3.59,3.63-5.63,7-6.35a3.53,3.53,0,0,1,.17-.49,28.23,28.23,0,0,0-.08-4.12c-.49-5.05,5.46-9.33,11.07-9.33,6.33,0,10.59,4.3,11.08,9.33a37.17,37.17,0,0,1,.12,4.84c.45.28.88.56,1.3.86l-1.65,1.58,13.61,22.83A116,116,0,0,1,840.85,296.46Zm7.55-58.3,1.06-3c2.17.7,4.06,2,4.15,4.39ZM859.25,226l-6.6.06,2.58-7.34,4.33-.14Z"/><path class="cls-25" d="M893.23,223.42l25.82-13.48v5.93s-.28,2.94,4.23,2.77,5.83,8.88,0,10.48-25.82,13.48-25.82,13.48Z"/><path class="cls-21" d="M914.4,401.37c0,.57-.35,2.61-4,2.61-4.22,0-5.16-2-5.16-2v-5.54c0-2.77-3.06-4-8.69-4a6.24,6.24,0,0,1-6.34-5.34v-3.56c0-5.34-7.75-5.73-7.75-5.73H872.13a10,10,0,0,1-6.57-2.57V371a3.72,3.72,0,0,0-3.52-3.37c-1.65,0-2.59-2-2.59-2v-88c0-4.75-2.81-3.56-4-3.56s-4.93-1.59-4.93-4.16-1.88-2.37-4.23-2.37-3.52-2.57-3.52-2.57v-9.1c0-3.16,2.35-3.76,2.35-3.76h17.38a4.34,4.34,0,0,0,3.52-2V246c0-2.57,3.05-3.36,3.05-3.36h27.48c2.35,0,4.69-1.78,4.69-5.54s-2.34-4.94-4.69-4.94-4.23-2.77-4.23-2.77v-5.93c0-2-3.29-2-3.29-2H861.33c-3.75,0-3.29-2-3.29-2v-6.92a2.73,2.73,0,0,1,1.18-2h7.51a3.75,3.75,0,0,0,3.53-2.77v-4.55c0-2.57-4.7-3-4.7-3H840.43c-4,0-3.52-1.59-3.52-2.87s-2.58-2.87-2.58-2.87H761.06c-2.82,0-4,1.19-4,3.17s-3.29,2.57-3.29,2.57H751.2s-2.74,1-2.74,5.4,3.6,4.75,3.6,4.75h6.73c6.18,0,5.71,4.15,5.71,5s.16,5.8-3.6,5.8-3.52,4.48-3.52,5.54,1.64,5.27-4.31,5.27-4.77,5.14-4.77,5.14c0,6.07,4,5.08,4,5.08h12.76c4.07,0,6.81.33,6.81,5.41s3.37,4.68,3.37,4.68c3,0,3.6-.13,3.6,4.81s3.91,4.29,3.91,4.29,5.32-.66,5.32,4.68-2.5,4.54-2.5,4.54h-3.29c-4.38,0-3.83,3.43-3.83,3.43v92.43c-6.58,0-5.8,2.77-5.8,2.77v8.37H768.5c-9.32,0-10,10-10,10v20.23c0,2.64-3,3.63-3,3.63h-3.83c-3.84,0-4.86,2.64-4.86,2.64v9.49h167.6Zm-80.69-29.55s-6.1-.59-6.1,9.1c0,0-1.93,2.77-9.54,2.77s-8.78-.39-8.78-4.75-6.86-6.13-6.86-6.13v-20s-1.12-4.75-5.82-4.75v-5.34s5.4.6,5.4-4.94.47-72.78.47-72.78-.7-6.53,3.29-6.53,3.05-3.76,3.05-3.76-2.11-6.92,4.23-6.92h9.63s4.22-.59,4.22,5.34,4.94,6.53,6.81,6.53Z"/><path class="cls-21" d="M914.4,401.22v.15A.57.57,0,0,0,914.4,401.22Z"/><g class="cls-26"><path class="cls-30" d="M915.31,423.63V401.37c0,.57-.35,2.61-4,2.61-4.23,0-5.16-2-5.16-2v-5.54c0-2.77-3.06-4-8.69-4a6.24,6.24,0,0,1-6.34-5.34v-3.56c0-5.34-7.75-5.73-7.75-5.73H873a10,10,0,0,1-6.57-2.57V371a3.72,3.72,0,0,0-3.52-3.37c-1.65,0-2.59-2-2.59-2v-88c0-4.75-2.82-3.56-4-3.56s-4.93-1.59-4.93-4.16-1.88-2.37-4.23-2.37-3.52-2.57-3.52-2.57v-9.1c0-3.16,2.35-3.76,2.35-3.76h17.38a4.34,4.34,0,0,0,3.52-2V246c0-2.57,3.05-3.36,3.05-3.36h27.48c2.34,0,4.69-1.78,4.69-5.54s-2.35-4.94-4.69-4.94-4.23-2.77-4.23-2.77v-5.93c0-2-3.29-2-3.29-2H862.23c-3.76,0-3.29-2-3.29-2v-6.92a2.73,2.73,0,0,1,1.18-2h7.51a3.75,3.75,0,0,0,3.53-2.77v-4.55c0-2.57-4.7-3-4.7-3H841.33c-4,0-3.52-1.59-3.52-2.87s-2.58-2.87-2.58-2.87H816.49l.27,19.56h10.1l.47,11.32-10.33.49.07,6.73,16.66-.54-.31,7.42-16.28.14.08,8.15c1.51,0,10.58-.09,10.58,5.35,0,5.93,4.93,6.53,6.81,6.53V371.82s-6.1-.59-6.1,9.1c0,0-1.92,2.74-9.44,2.77l.07,4.75H826v6.92l-6.8.2,0,1.88,11.35-.2-.58,8.33H819.37l0,6.7h23.73l.15,9-23.75.39.07,2Z"/><path class="cls-30" d="M817,250.19l.21,0,0-2.36H817Z"/><path class="cls-30" d="M915.3,401.22v.15A.57.57,0,0,0,915.3,401.22Z"/></g><rect class="cls-20" x="772.66" y="227.17" width="31" height="9.49"/><rect class="cls-20" x="793.36" y="213.43" width="15.5" height="9.49"/><rect class="cls-20" x="768.07" y="393.29" width="15.5" height="9.49"/><rect class="cls-20" x="779.19" y="404.36" width="15.5" height="9.49"/><rect class="cls-27" x="845.55" y="385" width="31" height="9.49"/><rect class="cls-27" x="865.4" y="396.05" width="26.29" height="9.49"/><rect class="cls-27" x="845.55" y="407.94" width="15.5" height="9.49"/><polygon class="cls-28" points="842.77 191.97 855.92 185.64 855.92 190.38 842.77 196.71 842.77 191.97"/><polygon class="cls-28" points="854 262.29 870.28 255.96 870.28 260.71 854 267.04 854 262.29"/><polygon class="cls-28" points="863.08 271 879.37 264.67 879.37 269.41 863.08 275.74 863.08 271"/><polygon class="cls-28" points="894.55 378.48 910.83 372.15 910.83 376.89 894.55 383.22 894.55 378.48"/><polygon class="cls-28" points="870.28 363.56 886.57 357.23 886.57 361.97 870.28 368.3 870.28 363.56"/><polygon class="cls-28" points="910.83 388.54 927.12 382.21 927.12 386.96 910.83 393.29 910.83 388.54"/><polyline class="cls-21" points="819.39 385.78 819.44 389.79 824.36 389.8 824.36 395.65 819.51 395.82 819.53 397.41 827.61 397.24 827.2 404.28 819.61 404.28 819.64 409.95 836.54 409.95 836.65 417.54 819.73 417.87 819.78 419.56"/><polyline class="cls-29" points="816.37 194.62 816.79 214.64 827 214.64 827.42 225.42 817 226.05 817.5 234.22 831.15 233.02 831.81 239.75 818.05 239.9 817.97 247.93"/><circle class="cls-31" cx="579.02" cy="508.11" r="7.13"/><path class="cls-32" d="M559.15,508.73a20.5,20.5,0,0,1,41,0Z"/><rect class="cls-32" x="523.81" y="428.17" width="3" height="111.5" rx="1.5" ry="1.5"/><rect class="cls-32" x="522.74" y="533.88" width="5.14" height="205.33"/><rect class="cls-32" x="511.37" y="741.17" width="27.88" height="51"/><rect class="cls-32" x="500.42" y="792.17" width="49.79" height="7"/><path class="cls-32" d="M510.31,743.67a15,15,0,0,1,30,0Z"/><rect class="cls-33" x="516.31" y="437.67" width="18" height="4.67" rx="2.33" ry="2.33"/><path class="cls-33" d="M527.13,481.17s4.47-19.5,24.14-19.5S578,483.38,578,488.24h4.31s-4.38-30.81-32-30.81c0,0-18.46,0-23.46,15.9Z"/><circle class="cls-31" cx="923.9" cy="225.22" r="7.13"/><path class="cls-32" d="M943.77,225.84a20.5,20.5,0,0,0-41,0Z"/><rect class="cls-32" x="976.11" y="145.28" width="3" height="111.5" rx="1.5" ry="1.5" transform="translate(1955.21 402.06) rotate(180)"/><rect class="cls-32" x="975.04" y="250.99" width="5.14" height="205.33" transform="translate(1955.21 707.31) rotate(-180)"/><rect class="cls-32" x="963.67" y="458.28" width="27.88" height="51" transform="translate(1955.21 967.56) rotate(-180)"/><rect class="cls-32" x="952.71" y="509.28" width="49.79" height="7" transform="translate(1955.21 1025.56) rotate(-180)"/><path class="cls-32" d="M992.61,460.78a15,15,0,1,0-30,0Z"/><rect class="cls-33" x="968.61" y="154.78" width="18" height="4.67" rx="2.33" ry="2.33" transform="translate(1955.21 314.23) rotate(-180)"/><path class="cls-33" d="M975.79,198.28s-4.47-19.5-24.14-19.5S925,200.49,925,205.35h-4.31s4.38-30.82,32-30.82c0,0,18.46,0,23.46,15.91Z"/><path class="cls-34" d="M885,515.06v7l-2,7h4s-.67,12,9,11l3.54-1s3.13,3.5,2.38,5.75,9.87-1.25,9.87-1.25l-.75-8.41,1.38-2.84-4.25-3.75s1.87-5.25-.75-4.87S904,526.9,904,526.9s-4.12-1.5-3.5-3.63-5.5-2.75-4.62-5.87S885,515.06,885,515.06Z"/><path class="cls-34" d="M913.19,544.46s-16.5-4-24,15.94-13,29.65-15,28.79c0,0,15,24.64,22,23.14s26-49.37,25-51.93S922.19,550.59,913.19,544.46Z"/><path class="cls-34" d="M906,553.4s-4,7-4.5,11.5L915,577.27s8-11.74,6-16.81"/><polygon class="cls-34" points="862.67 547.65 864.92 545.53 874.42 552.15 879.17 557.65 876.42 559.65 862.67 547.65"/><path class="cls-34" d="M913.42,576.65s-3.5,11.5-7.75,12c0,0-7.5.25-18.25-12,0,0-10.25-11-12.25-11,0,0-6.5-3-6.5-4.75v-7s6.25,3.25,7,3.25,1.75-1.75,1.75-1.75l-3-3.25c2.75.25,6.25,1.75,6.25,3.25v4.75l19.61,10.25"/><path class="cls-34" d="M900.42,576.65c-.75-3.75,1.75-9.32,1.75-9.32"/><path class="cls-35" d="M884.15,515.16l32.54,6.28a.91.91,0,0,0,1.09-.9v-8.95a.91.91,0,0,0-.36-.72l-11.34-8.74a.92.92,0,0,0-.68-.18l-9.82,1.43a12.39,12.39,0,0,0-8.37,5.16l-3.63,5.21A.91.91,0,0,0,884.15,515.16Z"/><polygon class="cls-34" points="917.78 517.4 928.42 524.4 917.78 520.54 917.78 517.4"/><path class="cls-34" d="M916.69,521.44s5.23,4.71,3.48,7-1.28,4.75-2.39,4.75-2,3.54-4.36,2.75-1-3.63-1-3.63"/><polyline class="cls-36" points="906.92 509.9 909.42 513.65 909.42 518.9"/><polyline class="cls-36" points="898.92 502.94 894.8 508.9 894.8 514.4"/><polygon class="cls-34" points="826.92 634.15 833.41 634.15 833.41 652.49 822.41 652.49 826.92 634.15"/><path class="cls-36" d="M832.92,595.56s-7.54,4.25-7.89,11.75-2.15,34.25-4.26,34.5l18.4,1.75,2.25-35.75,25.75,1.51V598.06Z"/><path class="cls-33" d="M820.58,587.28l-11-2.63s-7,1.32-7,6.91,6.5,6.59,6.5,6.59h16Z"/><path class="cls-36" d="M874.3,589.18s-10.75,1.6-14-1.26-21.75-9.51-26.5-9.31-14.78,5.2-13.89,13.2,9.39,6.5,9.39,6.5l2.75-2.75s35.5,21.25,49.25,20.75,13.5-4.75,13.5-4.75S879.05,600.06,874.3,589.18Z"/><line class="cls-36" x1="826.92" y1="591.52" x2="832.05" y2="595.56"/><line class="cls-36" x1="811.58" y1="593.54" x2="812.58" y2="588.65"/><line class="cls-36" x1="815.58" y1="594.54" x2="816.58" y2="589.65"/><path class="cls-33" d="M825,645.49h-4.33a17.15,17.15,0,0,1-12.33,5.66c-7.67,0-3.33,8.34-3.33,8.34l31-2v-8.67H825.63Z"/><line class="cls-36" x1="810.08" y1="653.49" x2="810.08" y2="648.59"/><line class="cls-36" x1="814.08" y1="652.49" x2="814.08" y2="647.59"/><line class="cls-36" x1="818.08" y1="651.49" x2="818.08" y2="646.59"/><rect class="cls-37" x="849.58" y="616.32" width="52.59" height="7.33"/><polygon class="cls-37" points="902.17 616.32 928.42 545.53 937.08 545.53 909.42 623.65 902.17 623.65 902.17 616.32"/><polygon class="cls-37" points="872.67 662.65 883 662.65 891.04 623.65 872.17 623.65 872.67 662.65"/><path class="cls-7" d="M307.91,526.44s-103.55,27-103.55,279.35h191.5s-1.57-279.35,101.36-279.35Z"/><path class="cls-38" d="M-134.51,415.32H54.72s79.79,53.33,79.79,111.89l-269-.56Z"/><circle class="cls-39" cx="296.1" cy="639.89" r="40.46"/><ellipse class="cls-40" cx="321.7" cy="639.89" rx="33.02" ry="40.46"/><ellipse class="cls-41" cx="401.12" cy="639.89" rx="33.29" ry="40.46"/><circle class="cls-39" cx="426.44" cy="639.89" r="40.46"/><rect class="cls-42" x="357.37" y="606.39" width="8" height="24.75" rx="4" ry="4"/><polygon class="cls-42" points="314.25 634.06 320.48 622.39 397.48 622.39 404.48 639.89 314.25 634.06"/><polygon class="cls-42" points="301.37 648.39 309.37 633.39 408.37 633.39 417.37 655.89 301.37 648.39"/><rect class="cls-42" x="261.87" y="663.39" width="195" height="24"/><path class="cls-42" d="M254.37,687.39h210a7,7,0,0,1,7,7v7a0,0,0,0,1,0,0h-224a0,0,0,0,1,0,0v-7A7,7,0,0,1,254.37,687.39Z"/><path class="cls-42" d="M466.76,663.39H252.13a.15.15,0,0,1-.16-.14l-22.6-9.85c0-2.75,2.54-5,5.66-5H483.7c3.12,0,5.67,2.26,5.67,5Z"/><path class="cls-43" d="M361.37,599.43V504.89s-4.43-9.33-11.1,0"/><path class="cls-43" d="M367.82,599.43v-41.2s6.45-8,10.45,0"/><path class="cls-43" d="M354.72,599.43V536.89s-7.78-8-11.78,0"/><rect class="cls-44" x="261.44" y="664.39" width="195.43" height="6"/><rect class="cls-22" x="231.81" y="702.42" width="255.11" height="7.68"/><rect class="cls-22" x="800.79" y="663.94" width="105.33" height="7.68" rx="0.79" ry="0.79"/><rect class="cls-22" x="498.36" y="801.95" width="53.9" height="7.68" rx="0.79" ry="0.79"/><path class="cls-45" d="M670.85,527.37c-.61,1.15-1.34.43-2,.14.05-1.74.08-3.49.15-5.24.12-2.73.45-5.36-3.05-6.63-1.42-.51-3.13-2.76-2.16-3.89,1.29-1.5,2.68.7,3.93,1.55l1.16.79V498.9a1.13,1.13,0,0,1,.94-1.43c.78-.16,1.22.21,1.17,1v11.8c1.62-2,2.88-3.61,4.82-4.38.71-.29,1.51-.68,2.11,0,.44.54.19,1.26-.09,1.87a8.18,8.18,0,0,1-5.18,4.74c-1.47.43-1.82,1.19-1.79,2.6C670.9,519.24,670.85,523.31,670.85,527.37Z"/><path class="cls-46" d="M683.69,528.16c-.57.71-1.09.63-1.59-.08a44.79,44.79,0,0,1,0-4.49c.24-2.32,0-4.06-2.71-4.9a4.48,4.48,0,0,1-2.77-3.88.53.53,0,0,1,.57-.65,5.61,5.61,0,0,1,3.89,2.44c.18.24.41.46,1,1.16v-9.61a1,1,0,0,1,.53-.38.85.85,0,0,1,.87.36c0,1,.09,2,.15,3.27,1.17-1,2.1-2.07,3.75-2.13a3.63,3.63,0,0,1-2.32,3.52,2.16,2.16,0,0,0-1.54,2.4C683.69,519.51,683.66,523.84,683.69,528.16Z"/><path class="cls-47" d="M684.07,507.64l-.85-.08a3,3,0,0,1-.51-2.95c.3-1.16,2.61-1.9.72-3.52a2.85,2.85,0,0,1-.17-3.91c1.72,1,4,.91,4.65,3.63.62,2.5-.12,4.94-2.69,5.94A5.31,5.31,0,0,0,684.07,507.64Z"/><path class="cls-48" d="M682.72,504.17c0,1.13,0,2.25,0,3.38l-.55.1c-1.76-1-3.74-1.75-4.24-4.15a5,5,0,0,1,.05-2.08c.54-2.71,2.76-3.32,4.78-4.24,0,1.36-.51,2.85,1,3.85C682.44,501.79,681.46,502.63,682.72,504.17Z"/><path class="cls-46" d="M696.91,527.84c-.71.88-1.36.79-2-.1a55.21,55.21,0,0,1,0-5.61c.29-2.89-.05-5.07-3.39-6.12-2-.64-3.14-2.64-3.45-4.84a.65.65,0,0,1,.7-.81,7,7,0,0,1,4.86,3c.23.31.51.58,1.31,1.46v-12a1.14,1.14,0,0,1,.65-.47,1,1,0,0,1,1.08.45c.06,1.24.12,2.48.19,4.08,1.46-1.23,2.63-2.59,4.68-2.66a4.52,4.52,0,0,1-2.89,4.4,2.68,2.68,0,0,0-1.92,3C696.91,517,696.88,522.44,696.91,527.84Z"/><path class="cls-47" d="M697.38,502.21l-1.06-.1c-1-1.08-.9-2.37-.63-3.68s3.26-2.37.9-4.4c-1.26-1.57-1.54-3.19-.21-4.87,2.14,1.2,5,1.13,5.8,4.52.78,3.13-.14,6.17-3.36,7.42A6.46,6.46,0,0,0,697.38,502.21Z"/><path class="cls-48" d="M695.7,497.88c0,1.41,0,2.81,0,4.22l-.68.12c-2.21-1.26-4.68-2.18-5.3-5.17a6,6,0,0,1,.06-2.61c.67-3.38,3.45-4.14,6-5.29,0,1.69-.64,3.56,1.19,4.81C695.36,494.91,694.13,496,695.7,497.88Z"/><path class="cls-49" d="M664.13,486.51c2.5-.65,3.87,1.43,5.75,2.14,1.46.55,3-2.85,5.54-2.3.51.11,1.11,0,1.23.75a11.52,11.52,0,0,1-4.6,4.88,28.41,28.41,0,0,1-4-.1C666.74,490.09,664.35,489.09,664.13,486.51Z"/><path class="cls-50" d="M671,497.85c-1.06-1.8-1.53-.39-2.11.39l-2,.81c-.93.32-2.11.73-2.65-.23s.46-1.81,1.12-2.51a8.07,8.07,0,0,1,3.38-2.56,5.69,5.69,0,0,1,2.72,0,8.23,8.23,0,0,1,3.54,2.68c.64.7,1.6,1.54,1,2.47s-1.71.51-2.63.17C672.31,499.09,671.75,498.24,671,497.85Z"/><path class="cls-51" d="M673.33,499.05l2.62-.24a21.23,21.23,0,0,0-4.58-4.48,1.83,1.83,0,0,1,.5-2,2.49,2.49,0,0,1,2.37.14,27.8,27.8,0,0,1,2.21,3.47c.49,1.06.81,2.46-.15,3.34A2.28,2.28,0,0,1,673.33,499.05Z"/><path class="cls-52" d="M668.8,494.35a20.49,20.49,0,0,0-4.3,4.09c.67.89,1.62.38,2.36.61a2.31,2.31,0,0,1-3,.23c-1-.88-.64-2.31-.18-3.36a23.81,23.81,0,0,1,2.25-3.46c.81-.65,1.51-.17,2.22.2C668.67,493.12,669.08,493.6,668.8,494.35Z"/><path class="cls-53" d="M668,493l-2.07-.57c-2.27-1.48-3.46-3.28-1.82-5.95,1.09,2,3.66,2.83,4.06,5.34A.8.8,0,0,1,668,493Z"/><path class="cls-54" d="M674.24,492.45a2.43,2.43,0,0,1-2.15-.07l-.2-.2.07-.28a19.1,19.1,0,0,1,4.69-4.8A4.59,4.59,0,0,1,674.24,492.45Z"/><path class="cls-55" d="M672,491.9a.69.69,0,0,0,.13.48l-.72,1.95-2.57,0L668,493c.06-.4.11-.79.17-1.18A2.44,2.44,0,0,1,672,491.9Z"/><path class="cls-56" d="M1065.18,533.39a11.36,11.36,0,0,0-21.4.17c-15.87,45.72-39.29,132.1,10.45,132.1C1106.71,665.66,1081.9,579.06,1065.18,533.39Z"/><rect class="cls-57" x="1055.04" y="625.36" height="88.69"/><polygon class="cls-57" points="1055.04 656.72 1055.04 656.72 1066.04 645.72 1066.04 645.72 1055.04 656.72"/><polygon class="cls-57" points="1055.04 644.06 1055.04 644.06 1044.04 633.06 1044.04 633.06 1055.04 644.06"/><path class="cls-56" d="M1117.3,581.35a6.69,6.69,0,0,0-12.6.1c-9.35,26.93-23.15,77.82,6.15,77.82C1141.77,659.27,1127.15,608.25,1117.3,581.35Z"/><rect class="cls-57" x="1111.33" y="635.53" height="52.24"/><polygon class="cls-57" points="1111.33 654 1111.33 654 1117.81 647.52 1117.81 647.52 1111.33 654"/><polygon class="cls-57" points="1111.33 646.54 1111.33 646.54 1104.85 640.06 1104.85 640.06 1111.33 646.54"/><path class="cls-58" d="M363.64,455.64s4-9,32.5-9,30.27,9,30.27,9v44.91s2,2.48-3.72,2.48H367.61s-3.48,1.61-3.48-4.28S363.64,455.64,363.64,455.64Z"/><path class="cls-59" d="M369.84,486.16h50.62v-19a16,16,0,0,1,6-.88v34.24H364.13V466.07s5.21,0,5.21,2.72S369.84,486.16,369.84,486.16Z"/><path class="cls-58" d="M397,491.05H371.17s-8.61,4.24-8.61,11c0,0,0,2,8.34,2h53.56s3.77-1.08,3.77-3.77-5.65-9.42-8.88-9.42S397,491.05,397,491.05Z"/><rect class="cls-58" x="360.66" y="466.07" width="5.95" height="30.7" rx="2.98" ry="2.98"/><rect class="cls-58" x="423.77" y="466.07" width="5.95" height="30.7" rx="2.98" ry="2.98"/><rect class="cls-60" x="392.07" y="504.05" width="6.66" height="24.79"/><path class="cls-58" d="M426.41,455.64s4-9,32.5-9,30.27,9,30.27,9v44.91s2,2.48-3.72,2.48H430.38s-3.47,1.61-3.47-4.28S426.41,455.64,426.41,455.64Z"/><path class="cls-59" d="M432.61,486.16h50.62v-19a16,16,0,0,1,5.95-.88v34.24H426.91V466.07s5.21,0,5.21,2.72S432.61,486.16,432.61,486.16Z"/><path class="cls-58" d="M459.78,491.05H433.94s-8.61,4.24-8.61,11c0,0,0,2,8.35,2h53.56S491,503,491,500.28s-5.65-9.42-8.88-9.42S459.78,491.05,459.78,491.05Z"/><rect class="cls-58" x="423.43" y="466.07" width="5.95" height="30.7" rx="2.98" ry="2.98"/><rect class="cls-58" x="486.54" y="466.07" width="5.95" height="30.7" rx="2.98" ry="2.98"/><rect class="cls-60" x="480.9" y="504.05" width="6.66" height="24.79"/><path class="cls-58" d="M300.53,455.64s4-9,32.5-9,30.27,9,30.27,9v44.91s2,2.48-3.72,2.48H304.5s-3.47,1.61-3.47-4.28S300.53,455.64,300.53,455.64Z"/><path class="cls-59" d="M306.73,486.16h50.62v-19a16,16,0,0,1,5.95-.88v34.24H301V466.07s5.21,0,5.21,2.72S306.73,486.16,306.73,486.16Z"/><path class="cls-58" d="M333.91,491.05H308.07s-8.62,4.24-8.62,11c0,0,0,2,8.35,2h53.56s3.77-1.08,3.77-3.77-5.66-9.42-8.89-9.42S333.91,491.05,333.91,491.05Z"/><rect class="cls-58" x="297.55" y="466.07" width="5.95" height="30.7" rx="2.98" ry="2.98"/><rect class="cls-58" x="360.66" y="466.07" width="5.95" height="30.7" rx="2.98" ry="2.98"/><rect class="cls-60" x="305.82" y="504.05" width="6.66" height="24.79"/><rect class="cls-61" x="372.46" y="478.17" width="45.87" height="4.76" rx="2.38" ry="2.38"/><rect class="cls-61" x="372.46" y="469.36" width="45.87" height="4.76" rx="2.38" ry="2.38"/><rect class="cls-61" x="372.46" y="461.22" width="45.87" height="4.76" rx="2.38" ry="2.38"/><rect class="cls-61" x="309.15" y="478.17" width="45.87" height="4.76" rx="2.38" ry="2.38"/><rect class="cls-61" x="309.15" y="469.36" width="45.87" height="4.76" rx="2.38" ry="2.38"/><rect class="cls-61" x="309.15" y="461.22" width="45.87" height="4.76" rx="2.38" ry="2.38"/><rect class="cls-61" x="435.23" y="478.17" width="45.87" height="4.76" rx="2.38" ry="2.38"/><rect class="cls-61" x="435.23" y="469.36" width="45.87" height="4.76" rx="2.38" ry="2.38"/><rect class="cls-61" x="435.23" y="461.22" width="45.87" height="4.76" rx="2.38" ry="2.38"/><path class="cls-62" d="M1200.34,333l2.07-5.7h7.73s5.25,1.24,5.25-1.45-2.84-2-2.84-2l-11.16-1.9h-9.11s-1.75,1-.66,1.9,4.45,2.77,4.45,2.77l-.59,1.46Z"/><path class="cls-63" d="M1200.34,333.69a.67.67,0,0,1-.48-.2L1195,328.6a.66.66,0,0,1-.14-.72l.36-.92a45.73,45.73,0,0,1-4-2.54,1.43,1.43,0,0,1-.6-1.26c.07-1,1.13-1.61,1.34-1.73a.67.67,0,0,1,.34-.09h9.22l11,1.88a3.34,3.34,0,0,1,2.6.46,2.61,2.61,0,0,1,.93,2.19,2.13,2.13,0,0,1-.8,1.71c-1.48,1.16-4.57.55-5.19.41h-7.19l-1.92,5.26a.68.68,0,0,1-.48.42Zm-4.07-5.72,3.8,3.83,1.72-4.7a.65.65,0,0,1,.62-.44h7.73a.39.39,0,0,1,.15,0c1.18.27,3.35.48,4.14-.15a.77.77,0,0,0,.29-.66,1.36,1.36,0,0,0-.4-1.13,2.17,2.17,0,0,0-1.61-.2.5.5,0,0,1-.27,0l-11.1-1.88h-8.87c-.3.21-.54.48-.54.59h0a.35.35,0,0,0,.11.12c1,.83,4.32,2.69,4.36,2.71a.67.67,0,0,1,.29.83Z"/><rect class="cls-64" x="1160.92" y="327.97" width="16.3" height="12.34"/><path class="cls-64" d="M1164.88,327.65s-11.67-1.56-14,13.22l-7.39-13.27-6.43,6.43,10.32,19h7.39l3.5-7.1"/><path class="cls-63" d="M1154.77,353.7h-7.39a.69.69,0,0,1-.59-.35l-10.31-19a.67.67,0,0,1,.11-.79l6.43-6.43a.66.66,0,0,1,.56-.19.65.65,0,0,1,.49.34l6.5,11.67c3.06-13.31,14.28-12,14.4-12a.67.67,0,0,1-.18,1.32c-.45-.06-11-1.27-13.25,12.66a.68.68,0,0,1-.54.56.66.66,0,0,1-.7-.34l-7-12.49-5.45,5.45,9.89,18.21h6.58l3.31-6.73a.67.67,0,0,1,1.2.59l-3.5,7.11A.68.68,0,0,1,1154.77,353.7Z"/><path class="cls-65" d="M1152.88,278.47s-3.85-17.32,9.76-17.32,13.61,4.67,13.61,4.67,14.56-2.31,7.47,11.87L1169,282.15Z"/><path class="cls-63" d="M1169,282.81h-.15l-16.15-3.68a.66.66,0,0,1-.5-.5c-.08-.39-2-9.43,2.14-14.63,1.87-2.33,4.65-3.51,8.27-3.51,11.18,0,13.61,3.11,14.13,4.6,1.71-.16,6.4-.31,8.53,2.59,1.65,2.25,1.32,5.72-1,10.32a.67.67,0,0,1-.4.34l-14.7,4.46Zm-15.58-4.89,15.55,3.54,14.25-4.32c2-4,2.28-6.91,1-8.68-2.09-2.86-7.82-2-7.88-2a.63.63,0,0,1-.53-.15.67.67,0,0,1-.24-.5s-.38-4-12.94-4c-3.2,0-5.63,1-7.23,3C1152.1,269,1153.13,276.14,1153.45,277.92Z"/><path class="cls-4" d="M1186.56,307.81s7.58.59,7.29-4.66-7.29-1.46-7.29-1.46V284.77l-6.13-2.62-19.83-1.75-8.17,4.37-1.46,9.35v6.69l5.54,7,14.59,2Z"/><path class="cls-63" d="M1171.1,310.52H1171l-14.59-2a.67.67,0,0,1-.43-.24l-5.54-7a.71.71,0,0,1-.14-.42V294l1.46-9.34a.63.63,0,0,1,.35-.48l8.16-4.38a.73.73,0,0,1,.38-.08l19.83,1.75a.66.66,0,0,1,.2.06l6.13,2.62a.68.68,0,0,1,.4.61v15.86c1.41-.61,4-1.46,5.7-.5a3.36,3.36,0,0,1,1.59,3,4.35,4.35,0,0,1-1.27,3.51c-2.09,2.05-6.06,1.9-6.66,1.86l-15.4,2Zm-14.23-3.31,14.23,2,15.37-2h.14s3.91.27,5.7-1.48a3,3,0,0,0,.87-2.49,2.09,2.09,0,0,0-.9-1.88c-1.45-.81-4.4.43-5.41,1a.68.68,0,0,1-.66,0,.67.67,0,0,1-.32-.57V285.21l-5.62-2.41-19.53-1.72-7.7,4.12-1.4,9v6.41Z"/><path class="cls-66" d="M1155.64,285.26s-4.67,6.61-3.89,17.5c0,0-1.56-4.28-4.67-2.33,0,0-2.33-28.78,21.39-28.78S1191,300,1191,300l-4.67,2.72s-.39-13.42-4.28-17.7c0,0-5.88,4.48-13,4.48S1155.64,285.26,1155.64,285.26Z"/><path class="cls-63" d="M1151.75,303.43a.68.68,0,0,1-.63-.44,4.15,4.15,0,0,0-2-2.32,2,2,0,0,0-1.72.32.67.67,0,0,1-1-.51,41.48,41.48,0,0,1,.39-8.43c.63-4.35,2.25-10.48,6.38-14.95,3.74-4.06,8.88-6.12,15.28-6.12s11.72,2.07,15.63,6.14c8.09,8.43,7.62,22.36,7.59,22.94a.65.65,0,0,1-.33.55l-4.66,2.72a.65.65,0,0,1-.66,0,.67.67,0,0,1-.35-.56c0-.13-.39-12.33-3.73-16.81A24.44,24.44,0,0,1,1169,290.2c-6.1,0-11.44-2.95-13.18-4a29.14,29.14,0,0,0-3.44,16.52.66.66,0,0,1-.52.7Zm30.33-19a.66.66,0,0,1,.5.22c3.38,3.71,4.21,13.65,4.4,17l3.39-2c0-2.23-.23-14.32-7.23-21.61-3.65-3.8-8.59-5.73-14.67-5.73s-10.83,1.92-14.3,5.69c-6.34,6.87-6.56,18.06-6.47,21.4a3,3,0,0,1,1.9,0,3.72,3.72,0,0,1,1.4.92c0-9.51,3.91-15.2,4.09-15.46a.68.68,0,0,1,.93-.16c.06,0,6.14,4.16,13,4.16s12.59-4.29,12.65-4.34A.66.66,0,0,1,1182.08,284.4Z"/><path class="cls-63" d="M1171.1,270a.63.63,0,0,1-.19,0,.67.67,0,0,1-.46-.81c.06-.2,1.48-4.89,11.39-3.68a.66.66,0,0,1-.16,1.32c-8.67-1.06-9.93,2.68-9.94,2.72A.68.68,0,0,1,1171.1,270Z"/><rect class="cls-62" x="1164.74" y="315.55" width="8.56" height="15.17" rx="2.58" ry="2.58"/><path class="cls-63" d="M1170.88,331.38h-3.71a3.09,3.09,0,0,1-3.09-3.09V318a3.09,3.09,0,0,1,3.09-3.09h3.71A3.1,3.1,0,0,1,1174,318v10.32A3.09,3.09,0,0,1,1170.88,331.38Zm-3.71-15.17a1.76,1.76,0,0,0-1.76,1.76v10.32a1.76,1.76,0,0,0,1.76,1.76h3.71a1.75,1.75,0,0,0,1.75-1.76V318a1.75,1.75,0,0,0-1.75-1.76Z"/><path class="cls-4" d="M1152.17,300.64s-6.71-4.09-6.71,2.62,6.71,3.5,6.71,3.5,3.21,15.75,17.79,15.75c11.8,0,18.38-14.29,17.21-17.79"/><path class="cls-63" d="M1170,323.18c-13,0-17.34-12.28-18.25-15.52-1.15.41-3.41,1-5.06-.06-1.23-.77-1.85-2.23-1.85-4.34s.6-3.44,1.78-4.1c2.28-1.28,5.79.82,5.94.91a.67.67,0,0,1-.7,1.14c-.82-.5-3.26-1.64-4.59-.89-.73.41-1.1,1.4-1.1,2.94s.41,2.7,1.23,3.21c1.36.86,3.73.07,4.52-.31a.68.68,0,0,1,.59,0,.66.66,0,0,1,.35.46,24.3,24.3,0,0,0,3.36,7.67,15.82,15.82,0,0,0,13.78,7.54c6.67,0,11.08-4.74,13.12-7.56,2.93-4.07,3.89-8,3.46-9.35a.66.66,0,0,1,1.26-.42c.7,2.11-.9,6.74-3.64,10.55C1182,318.09,1177.22,323.18,1170,323.18Z"/><path class="cls-64" d="M1173.53,327.65s11.67-1.56,14,13.22l7.39-13.27,6.43,6.43L1191,353h-7.39l-3.5-7.1"/><path class="cls-63" d="M1191,353.7h-7.39a.7.7,0,0,1-.6-.37l-3.5-7.11a.67.67,0,0,1,1.2-.59l3.32,6.73h6.57l9.89-18.21-5.45-5.45-7,12.49a.66.66,0,0,1-.7.34.68.68,0,0,1-.54-.56c-2.2-14-12.8-12.72-13.25-12.66a.67.67,0,0,1-.75-.57.67.67,0,0,1,.57-.75c.12,0,11.35-1.35,14.4,12l6.5-11.67a.66.66,0,0,1,1.05-.15l6.43,6.43a.67.67,0,0,1,.11.79l-10.31,19A.69.69,0,0,1,1191,353.7Z"/><path class="cls-64" d="M1159.07,335.66s-7.39,7,.78,14v3.22h19v-3.8s6.13-7.44,0-14"/><path class="cls-63" d="M1178.8,353.55h-19a.67.67,0,0,1-.67-.67V350c-2.48-2.21-3.78-4.65-3.84-7.26-.11-4.28,3.13-7.4,3.27-7.53a.66.66,0,0,1,.94,0,.67.67,0,0,1,0,.94s-3,2.86-2.86,6.54c.06,2.29,1.28,4.47,3.61,6.47a.64.64,0,0,1,.23.5v2.55h17.63v-3.13a.66.66,0,0,1,.15-.42c.23-.29,5.67-7.08,0-13.12a.68.68,0,0,1,0-1,.66.66,0,0,1,.94,0c5.88,6.29,1.12,13.41.18,14.68v3.57A.67.67,0,0,1,1178.8,353.55Z"/><path class="cls-4" d="M1162.64,308.11h12.83s-.58,7.29-6.41,7.29S1162.64,308.11,1162.64,308.11Z"/><path class="cls-63" d="M1169.06,316.06c-5.11,0-6.87-5.17-7.09-7.9a.67.67,0,0,1,.67-.72h12.83a.67.67,0,0,1,.49.21.68.68,0,0,1,.18.51C1175.92,310.89,1174.16,316.06,1169.06,316.06Zm-5.66-7.29c.31,1.74,1.48,6,5.66,6a5.09,5.09,0,0,0,4.79-3.27,10.62,10.62,0,0,0,.85-2.69Z"/><path class="cls-4" d="M1158.58,301.74a2.34,2.34,0,0,1,4.67,0"/><path class="cls-63" d="M1163.25,302.41a.67.67,0,0,1-.67-.67,1.67,1.67,0,1,0-3.33,0,.67.67,0,1,1-1.33,0,3,3,0,0,1,6,0A.67.67,0,0,1,1163.25,302.41Z"/><path class="cls-4" d="M1174.89,301.74a2.34,2.34,0,0,1,4.67,0"/><path class="cls-63" d="M1179.56,302.41a.67.67,0,0,1-.67-.67,1.67,1.67,0,1,0-3.33,0,.67.67,0,1,1-1.34,0,3,3,0,0,1,6,0A.67.67,0,0,1,1179.56,302.41Z"/><path class="cls-4" d="M1167.45,304.08a1.62,1.62,0,0,0,3.24,0"/><path class="cls-63" d="M1169.07,306.37a2.3,2.3,0,0,1-2.29-2.29.67.67,0,0,1,.67-.67.66.66,0,0,1,.66.67,1,1,0,1,0,1.91,0,.67.67,0,0,1,1.34,0A2.3,2.3,0,0,1,1169.07,306.37Z"/><rect class="cls-66" x="1156.71" y="293.96" width="7.58" height="1.7" rx="0.51" ry="0.51" transform="translate(119.71 -297.16) rotate(15.38)"/><path class="cls-63" d="M1163.59,297.19a1,1,0,0,1-.3,0h0l-6.38-1.75a1.15,1.15,0,0,1-.81-1.41l.2-.72a1.13,1.13,0,0,1,.54-.69,1.15,1.15,0,0,1,.87-.11l6.38,1.76a1.16,1.16,0,0,1,.81,1.41l-.2.71a1.13,1.13,0,0,1-.54.69A1.16,1.16,0,0,1,1163.59,297.19Zm-.18-1.19Zm-6-1.84,6,1.66.1-.36-6-1.65Z"/><rect class="cls-66" x="1173.43" y="294.09" width="7.58" height="1.7" rx="0.51" ry="0.51" transform="translate(2390.51 267.17) rotate(164.62)"/><path class="cls-63" d="M1174.13,297.32a1.16,1.16,0,0,1-.57-.15,1.12,1.12,0,0,1-.54-.7l-.19-.71a1.07,1.07,0,0,1,.11-.87,1.1,1.1,0,0,1,.69-.54l6.38-1.75a1.1,1.1,0,0,1,.87.1,1.15,1.15,0,0,1,.54.7l.2.71a1.15,1.15,0,0,1-.8,1.41l-6.39,1.76A1.54,1.54,0,0,1,1174.13,297.32Zm-.05-1.33Zm0,0Zm.08-.4.1.35,6-1.65-.09-.36Z"/><path class="cls-4" d="M1137.65,333.45s-5.28-5.6-13.06-5c0,0-2-1-.49-2.53a1.57,1.57,0,0,1-1.46-1.53,1.87,1.87,0,0,1,1.36-1.87s-2-.39-2.13-1.75,3.3-.87,3.3-.87a1.77,1.77,0,0,1,0-1.95c.68-1,9.23,1.56,9.23,1.56l4.38,3.3,4.28,5.64Z"/><path class="cls-63" d="M1137.65,334.11a.67.67,0,0,1-.49-.21c-.05,0-5.18-5.36-12.52-4.8a.8.8,0,0,1-.34-.07,2.62,2.62,0,0,1-1.42-1.69,1.85,1.85,0,0,1,.16-1.1,2.17,2.17,0,0,1-1.06-1.83,2.34,2.34,0,0,1,.57-1.74,2.38,2.38,0,0,1-1.35-1.87,1.31,1.31,0,0,1,.42-1.07,3.87,3.87,0,0,1,2.59-.61,2.26,2.26,0,0,1,.42-1.57c.23-.34.95-1.37,10,1.3a.68.68,0,0,1,.21.1l4.38,3.31a.53.53,0,0,1,.13.13l4.28,5.64a.66.66,0,0,1-.08.89l-5.41,5A.7.7,0,0,1,1137.65,334.11Zm-11.91-6.39a18.27,18.27,0,0,1,11.92,4.81l4.5-4.18-3.85-5.08-4.21-3.18c-3.47-1-7.57-1.93-8.44-1.69a1.07,1.07,0,0,0,.06,1.09.67.67,0,0,1,0,.73.66.66,0,0,1-.66.31,4.44,4.44,0,0,0-2.56.18c.06.7,1.28,1.07,1.61,1.14a.65.65,0,0,1,.54.62.67.67,0,0,1-.49.67,1.19,1.19,0,0,0-.87,1.18.9.9,0,0,0,.83.92.65.65,0,0,1,.58.43.63.63,0,0,1-.15.7c-.19.2-.42.49-.38.74a1.15,1.15,0,0,0,.55.64Z"/><path class="cls-4" d="M1142.5,328l-3.72-6.93s.29-6.32-1.84-6.41-1,4.27-1,4.27-2.62,1.27-1.07,4.67"/><path class="cls-63" d="M1142.5,328.64a.67.67,0,0,1-.59-.35l-3.71-6.93a.62.62,0,0,1-.08-.35,22.49,22.49,0,0,0-.12-3.07c-.24-1.93-.74-2.63-1.09-2.65s-.3.06-.35.13c-.43.53-.22,2.29,0,3.31a.67.67,0,0,1-.36.77c-.2.11-2,1.1-.75,3.79a.67.67,0,1,1-1.21.56c-1.25-2.74-.13-4.49.91-5.26-.21-1-.5-3,.32-4A1.71,1.71,0,0,1,1137,314c1.26.06,2,1.35,2.35,3.83a21.28,21.28,0,0,1,.13,3.1l3.64,6.77a.67.67,0,0,1-.28.9A.68.68,0,0,1,1142.5,328.64Z"/><line class="cls-4" x1="1129.84" y1="324.15" x2="1124" y2="322.5"/><path class="cls-63" d="M1129.84,324.82l-.18,0-5.84-1.65a.67.67,0,1,1,.37-1.28l5.83,1.65a.67.67,0,0,1,.46.82A.66.66,0,0,1,1129.84,324.82Z"/><line class="cls-4" x1="1131.2" y1="321.53" x2="1125.17" y2="319.88"/><path class="cls-63" d="M1131.2,322.19a.55.55,0,0,1-.18,0l-6-1.65a.67.67,0,0,1,.36-1.29l6,1.65a.67.67,0,0,1,.46.82A.66.66,0,0,1,1131.2,322.19Z"/><line class="cls-4" x1="1128.77" y1="326.49" x2="1124.1" y2="325.9"/><path class="cls-63" d="M1128.77,327.15h-.08l-4.67-.59a.66.66,0,0,1-.58-.74.68.68,0,0,1,.74-.58l4.67.59a.65.65,0,0,1,.58.74A.66.66,0,0,1,1128.77,327.15Z"/><path class="cls-67" d="M1125.3,473.68s2-26.41,28.07-26.41H1252s25.57,1.11,25.57,26.41c0,0,4.45.27,4.45,5.83H1125.3S1118.07,477.57,1125.3,473.68Z"/><rect class="cls-68" x="1191.68" y="472.32" width="22.51" height="1.66" rx="0.83" ry="0.83"/><rect class="cls-69" x="1202.07" y="453.91" width="1.72" height="19.23" rx="0.86" ry="0.86"/><rect class="cls-69" x="1202.23" y="457.56" width="4.58" height="1.56" rx="0.78" ry="0.78" transform="translate(-39.98 793.26) rotate(-35.9)"/><rect class="cls-69" x="1195.26" y="464.1" width="4.58" height="1.56" rx="0.78" ry="0.78" transform="translate(-45.13 790.41) rotate(-35.9)"/><rect class="cls-69" x="1198.63" y="457.76" width="4.58" height="1.56" rx="0.78" ry="0.78" transform="translate(868.28 -783.16) rotate(54.1)"/><rect class="cls-69" x="1202.27" y="467.79" width="4.58" height="1.56" rx="0.78" ry="0.78" transform="translate(-45.97 795.23) rotate(-35.9)"/><rect class="cls-69" x="1198.67" y="468" width="4.58" height="1.56" rx="0.78" ry="0.78" transform="translate(876.59 -778.96) rotate(54.1)"/><rect class="cls-69" x="1194.56" y="462.43" width="4.58" height="1.56" rx="0.78" ry="0.78" transform="translate(-44.88 139) rotate(-6.52)"/><rect class="cls-69" x="1205" y="463.65" width="4.58" height="1.56" rx="0.78" ry="0.78" transform="translate(473.79 -601.04) rotate(34.41)"/><rect class="cls-69" x="1196.28" y="462.61" width="7.54" height="1.56" rx="0.78" ry="0.78" transform="translate(871.85 -780.45) rotate(54.1)"/><rect class="cls-69" x="1201.59" y="462.43" width="7.54" height="1.56" rx="0.78" ry="0.78" transform="translate(0.51 927.74) rotate(-42.11)"/><rect class="cls-68" x="1215.47" y="460.91" width="22.51" height="1.66" rx="0.83" ry="0.83"/><rect class="cls-69" x="1225.86" y="442.51" width="1.72" height="19.23" rx="0.86" ry="0.86"/><rect class="cls-69" x="1226.02" y="446.15" width="4.58" height="1.56" rx="0.78" ry="0.78" transform="translate(-28.77 805.04) rotate(-35.9)"/><rect class="cls-69" x="1219.05" y="452.69" width="4.58" height="1.56" rx="0.78" ry="0.78" transform="translate(-33.93 802.2) rotate(-35.9)"/><rect class="cls-69" x="1222.42" y="446.36" width="4.58" height="1.56" rx="0.78" ry="0.78" transform="translate(868.88 -807.15) rotate(54.1)"/><rect class="cls-69" x="1226.06" y="456.39" width="4.58" height="1.56" rx="0.78" ry="0.78" transform="translate(-34.77 807.01) rotate(-35.9)"/><rect class="cls-69" x="1222.46" y="456.6" width="4.58" height="1.56" rx="0.78" ry="0.78" transform="translate(877.2 -802.95) rotate(54.1)"/><rect class="cls-69" x="1218.35" y="451.02" width="4.58" height="1.56" rx="0.78" ry="0.78" transform="translate(-43.43 141.63) rotate(-6.52)"/><rect class="cls-69" x="1228.79" y="452.24" width="4.58" height="1.56" rx="0.78" ry="0.78" transform="translate(471.51 -616.48) rotate(34.41)"/><rect class="cls-69" x="1220.07" y="451.2" width="7.54" height="1.56" rx="0.78" ry="0.78" transform="translate(872.45 -804.44) rotate(54.1)"/><rect class="cls-69" x="1225.38" y="451.02" width="7.54" height="1.56" rx="0.78" ry="0.78" transform="translate(14.3 940.75) rotate(-42.11)"/><rect class="cls-68" x="1236.6" y="465.75" width="22.51" height="1.66" rx="0.83" ry="0.83"/><rect class="cls-69" x="1247" y="447.35" width="1.72" height="19.23" rx="0.86" ry="0.86"/><rect class="cls-69" x="1247.15" y="450.99" width="4.58" height="1.56" rx="0.78" ry="0.78" transform="matrix(0.81, -0.59, 0.59, 0.81, -27.6, 818.35)"/><rect class="cls-69" x="1240.19" y="457.53" width="4.58" height="1.56" rx="0.78" ry="0.78" transform="translate(-32.75 815.51) rotate(-35.9)"/><rect class="cls-69" x="1243.56" y="451.2" width="4.58" height="1.56" rx="0.78" ry="0.78" transform="translate(881.55 -822.27) rotate(54.1)"/><rect class="cls-69" x="1247.19" y="461.23" width="4.58" height="1.56" rx="0.78" ry="0.78" transform="translate(-33.59 820.32) rotate(-35.9)"/><rect class="cls-69" x="1243.6" y="461.44" width="4.58" height="1.56" rx="0.78" ry="0.78" transform="translate(889.86 -818.07) rotate(54.1)"/><rect class="cls-69" x="1239.49" y="455.86" width="4.58" height="1.56" rx="0.78" ry="0.78" transform="translate(-43.85 144.06) rotate(-6.52)"/><rect class="cls-69" x="1249.92" y="457.08" width="4.58" height="1.56" rx="0.78" ry="0.78" transform="translate(477.94 -627.58) rotate(34.41)"/><rect class="cls-69" x="1241.21" y="456.04" width="7.54" height="1.56" rx="0.78" ry="0.78" transform="translate(885.12 -819.56) rotate(54.1)"/><rect class="cls-69" x="1246.52" y="455.86" width="7.54" height="1.56" rx="0.78" ry="0.78" transform="translate(16.5 956.17) rotate(-42.11)"/><rect class="cls-68" x="1171.17" y="460.15" width="22.51" height="1.66" rx="0.83" ry="0.83"/><rect class="cls-69" x="1181.57" y="441.74" width="1.72" height="19.23" rx="0.86" ry="0.86"/><rect class="cls-69" x="1181.73" y="445.38" width="4.58" height="1.56" rx="0.78" ry="0.78" transform="translate(-36.73 778.92) rotate(-35.9)"/><rect class="cls-69" x="1174.76" y="451.92" width="4.58" height="1.56" rx="0.78" ry="0.78" transform="translate(-41.89 776.08) rotate(-35.9)"/><rect class="cls-69" x="1178.13" y="445.59" width="4.58" height="1.56" rx="0.78" ry="0.78" transform="translate(849.94 -771.59) rotate(54.1)"/><rect class="cls-69" x="1181.77" y="455.62" width="4.58" height="1.56" rx="0.78" ry="0.78" transform="translate(-42.73 780.89) rotate(-35.9)"/><rect class="cls-69" x="1178.17" y="455.83" width="4.58" height="1.56" rx="0.78" ry="0.78" transform="translate(858.25 -767.38) rotate(54.1)"/><rect class="cls-69" x="1174.06" y="450.26" width="4.58" height="1.56" rx="0.78" ry="0.78" transform="translate(-43.63 136.59) rotate(-6.52)"/><rect class="cls-69" x="1184.49" y="451.48" width="4.58" height="1.56" rx="0.78" ry="0.78" transform="translate(463.32 -591.58) rotate(34.41)"/><rect class="cls-69" x="1175.78" y="450.44" width="7.54" height="1.56" rx="0.78" ry="0.78" transform="translate(853.51 -768.88) rotate(54.1)"/><rect class="cls-69" x="1181.09" y="450.26" width="7.54" height="1.56" rx="0.78" ry="0.78" transform="matrix(0.74, -0.67, 0.67, 0.74, 3.38, 910.86)"/><rect class="cls-68" x="1219.58" y="474.95" width="22.51" height="1.66" rx="0.83" ry="0.83"/><rect class="cls-69" x="1229.97" y="456.55" width="1.72" height="19.23" rx="0.86" ry="0.86"/><rect class="cls-69" x="1230.13" y="460.19" width="4.58" height="1.56" rx="0.78" ry="0.78" transform="translate(-36.22 810.12) rotate(-35.9)"/><rect class="cls-69" x="1223.16" y="466.73" width="4.58" height="1.56" rx="0.78" ry="0.78" transform="translate(-41.38 807.27) rotate(-35.9)"/><rect class="cls-69" x="1226.53" y="460.4" width="4.58" height="1.56" rx="0.78" ry="0.78" transform="translate(881.96 -804.67) rotate(54.1)"/><rect class="cls-69" x="1230.17" y="470.43" width="4.58" height="1.56" rx="0.78" ry="0.78" transform="translate(-42.22 812.08) rotate(-35.9)"/><rect class="cls-69" x="1226.57" y="470.64" width="4.58" height="1.56" rx="0.78" ry="0.78" transform="translate(890.27 -800.47) rotate(54.1)"/><rect class="cls-69" x="1222.46" y="465.07" width="4.58" height="1.56" rx="0.78" ry="0.78" transform="translate(-45 142.18) rotate(-6.52)"/><rect class="cls-69" x="1232.9" y="466.28" width="4.58" height="1.56" rx="0.78" ry="0.78" transform="translate(480.16 -616.34) rotate(34.41)"/><rect class="cls-69" x="1224.18" y="465.25" width="7.54" height="1.56" rx="0.78" ry="0.78" transform="translate(885.53 -801.96) rotate(54.1)"/><rect class="cls-69" x="1229.49" y="465.07" width="7.54" height="1.56" rx="0.78" ry="0.78" transform="translate(5.94 947.13) rotate(-42.11)"/><path class="cls-70" d="M1033.14,480.24s1.95-26.4,28.07-26.4h98.67s25.57,1.11,25.57,26.4c0,0,4.45.28,4.45,5.84H1033.14S1025.91,484.14,1033.14,480.24Z"/><rect class="cls-71" x="1078.12" y="444.87" width="4.59" height="14.38" rx="2.29" ry="2.29" transform="translate(-87.11 544.42) rotate(-27.23)"/><rect class="cls-71" x="1083.32" y="445.06" width="4.59" height="12.09" rx="2.29" ry="2.29" transform="translate(66.54 -135.02) rotate(7.34)"/><rect class="cls-71" x="1088.17" y="449.77" width="4.59" height="9.53" rx="2.29" ry="2.29" transform="translate(304.35 -427.36) rotate(25.66)"/><rect class="cls-72" x="1081.29" y="448.74" width="3.5" height="8.16" rx="1.75" ry="1.75"/><path class="cls-73" d="M1079.64,470s-3.06-7.5-3.06-10,5.29-6.68,8.34-6.68,8.39,3.34,8.39,8.34a13.17,13.17,0,0,1-3.11,8.34Z"/><rect class="cls-74" x="1077.84" y="458.7" width="9.17" height="1.95" rx="0.97" ry="0.97"/><rect class="cls-74" x="1088.72" y="458.7" width="3.47" height="1.95" rx="0.97" ry="0.97"/><rect class="cls-74" x="1081.29" y="463.57" width="9.17" height="1.95" rx="0.97" ry="0.97"/><rect class="cls-75" x="1073.15" y="469.96" width="22.51" height="1.66" rx="0.83" ry="0.83"/><rect class="cls-71" x="1055.61" y="435.25" width="4.59" height="14.38" rx="2.29" ry="2.29" transform="translate(-85.21 533.05) rotate(-27.23)"/><rect class="cls-71" x="1060.8" y="435.45" width="4.59" height="12.09" rx="2.29" ry="2.29" transform="translate(65.13 -132.22) rotate(7.34)"/><rect class="cls-71" x="1065.65" y="440.16" width="4.59" height="9.53" rx="2.29" ry="2.29" transform="translate(297.97 -418.56) rotate(25.66)"/><rect class="cls-72" x="1058.77" y="439.13" width="3.5" height="8.16" rx="1.75" ry="1.75"/><path class="cls-73" d="M1057.13,460.35s-3.06-7.51-3.06-10,5.28-6.67,8.34-6.67,8.38,3.34,8.38,8.34a13.23,13.23,0,0,1-3.1,8.34Z"/><rect class="cls-74" x="1055.32" y="449.09" width="9.17" height="1.95" rx="0.97" ry="0.97"/><rect class="cls-74" x="1066.21" y="449.09" width="3.47" height="1.95" rx="0.97" ry="0.97"/><rect class="cls-74" x="1058.77" y="453.95" width="9.17" height="1.95" rx="0.97" ry="0.97"/><rect class="cls-75" x="1050.63" y="460.35" width="22.51" height="1.66" rx="0.83" ry="0.83"/><rect class="cls-71" x="1106.53" y="435.25" width="4.59" height="14.38" rx="2.29" ry="2.29" transform="translate(-79.57 556.35) rotate(-27.23)"/><rect class="cls-71" x="1111.72" y="435.45" width="4.59" height="12.09" rx="2.29" ry="2.29" transform="translate(65.55 -138.73) rotate(7.34)"/><rect class="cls-71" x="1116.57" y="440.16" width="4.59" height="9.53" rx="2.29" ry="2.29" transform="translate(302.99 -440.61) rotate(25.66)"/><rect class="cls-72" x="1109.69" y="439.13" width="3.5" height="8.16" rx="1.75" ry="1.75"/><path class="cls-73" d="M1108.05,460.35s-3.06-7.51-3.06-10,5.28-6.67,8.34-6.67,8.39,3.34,8.39,8.34a13.21,13.21,0,0,1-3.11,8.34Z"/><rect class="cls-74" x="1106.24" y="449.09" width="9.17" height="1.95" rx="0.97" ry="0.97"/><rect class="cls-74" x="1117.13" y="449.09" width="3.47" height="1.95" rx="0.97" ry="0.97"/><rect class="cls-74" x="1109.69" y="453.95" width="9.17" height="1.95" rx="0.97" ry="0.97"/><rect class="cls-75" x="1101.55" y="460.35" width="22.51" height="1.66" rx="0.83" ry="0.83"/><rect class="cls-71" x="1140.99" y="435.25" width="4.59" height="14.38" rx="2.29" ry="2.29" transform="translate(-75.75 572.12) rotate(-27.23)"/><rect class="cls-71" x="1146.19" y="435.45" width="4.59" height="12.09" rx="2.29" ry="2.29" transform="translate(65.83 -143.14) rotate(7.34)"/><rect class="cls-71" x="1151.04" y="440.16" width="4.59" height="9.53" rx="2.29" ry="2.29" transform="translate(306.39 -455.53) rotate(25.66)"/><rect class="cls-72" x="1144.16" y="439.13" width="3.5" height="8.16" rx="1.75" ry="1.75"/><path class="cls-73" d="M1142.51,460.35s-3-7.51-3-10,5.28-6.67,8.33-6.67,8.39,3.34,8.39,8.34a13.23,13.23,0,0,1-3.1,8.34Z"/><rect class="cls-74" x="1140.71" y="449.09" width="9.17" height="1.95" rx="0.97" ry="0.97"/><rect class="cls-74" x="1151.59" y="449.09" width="3.47" height="1.95" rx="0.97" ry="0.97"/><rect class="cls-74" x="1144.16" y="453.95" width="9.17" height="1.95" rx="0.97" ry="0.97"/><rect class="cls-75" x="1136.02" y="460.35" width="22.51" height="1.66" rx="0.83" ry="0.83"/><rect class="cls-71" x="1124.26" y="443.41" width="4.59" height="14.38" rx="2.29" ry="2.29" transform="translate(-81.33 565.37) rotate(-27.23)"/><rect class="cls-71" x="1129.45" y="443.61" width="4.59" height="12.09" rx="2.29" ry="2.29" transform="translate(66.73 -140.93) rotate(7.34)"/><rect class="cls-71" x="1134.3" y="448.31" width="4.59" height="9.53" rx="2.29" ry="2.29" transform="translate(308.27 -447.48) rotate(25.66)"/><rect class="cls-72" x="1127.42" y="447.28" width="3.5" height="8.16" rx="1.75" ry="1.75"/><path class="cls-73" d="M1125.78,468.5s-3.06-7.5-3.06-10,5.28-6.67,8.34-6.67,8.38,3.33,8.38,8.33a13.19,13.19,0,0,1-3.1,8.34Z"/><rect class="cls-74" x="1123.97" y="457.25" width="9.17" height="1.95" rx="0.97" ry="0.97"/><rect class="cls-74" x="1134.86" y="457.25" width="3.47" height="1.95" rx="0.97" ry="0.97"/><rect class="cls-74" x="1127.42" y="462.11" width="9.17" height="1.95" rx="0.97" ry="0.97"/><rect class="cls-75" x="1119.28" y="468.5" width="22.51" height="1.66" rx="0.83" ry="0.83"/><path class="cls-67" d="M1201.77,519.68s1.94-26.4,28.07-26.4h98.67s25.57,1.11,25.57,26.4c0,0,4.45.28,4.45,5.84H1201.77S1194.54,523.57,1201.77,519.68Z"/><rect class="cls-68" x="1268.14" y="518.32" width="22.51" height="1.66" rx="0.83" ry="0.83"/><rect class="cls-69" x="1278.54" y="499.92" width="1.72" height="19.23" rx="0.86" ry="0.86"/><rect class="cls-69" x="1278.7" y="503.56" width="4.58" height="1.56" rx="0.78" ry="0.78" transform="translate(-52.43 846.83) rotate(-35.9)"/><rect class="cls-69" x="1271.73" y="510.1" width="4.58" height="1.56" rx="0.78" ry="0.78" transform="translate(-57.59 843.99) rotate(-35.9)"/><rect class="cls-69" x="1275.1" y="503.77" width="4.58" height="1.56" rx="0.78" ry="0.78" transform="translate(937.19 -826.07) rotate(54.1)"/><rect class="cls-69" x="1278.74" y="513.8" width="4.58" height="1.56" rx="0.78" ry="0.78" transform="translate(-58.42 848.8) rotate(-35.9)"/><rect class="cls-69" x="1275.14" y="514.01" width="4.58" height="1.56" rx="0.78" ry="0.78" transform="translate(945.5 -821.87) rotate(54.1)"/><rect class="cls-69" x="1271.03" y="508.44" width="4.58" height="1.56" rx="0.78" ry="0.78" transform="translate(-49.61 147.98) rotate(-6.52)"/><rect class="cls-69" x="1281.47" y="509.65" width="4.58" height="1.56" rx="0.78" ry="0.78" transform="translate(513.17 -636.2) rotate(34.41)"/><rect class="cls-69" x="1272.75" y="508.62" width="7.54" height="1.56" rx="0.78" ry="0.78" transform="translate(940.75 -823.37) rotate(54.1)"/><rect class="cls-69" x="1278.06" y="508.44" width="7.54" height="1.56" rx="0.78" ry="0.78" transform="translate(-10.6 990.89) rotate(-42.11)"/><rect class="cls-68" x="1291.94" y="506.92" width="22.51" height="1.66" rx="0.83" ry="0.83"/><rect class="cls-69" x="1302.33" y="488.51" width="1.72" height="19.23" rx="0.86" ry="0.86"/><rect class="cls-69" x="1302.49" y="492.16" width="4.58" height="1.56" rx="0.78" ry="0.78" transform="translate(-41.22 858.61) rotate(-35.9)"/><rect class="cls-69" x="1295.52" y="498.7" width="4.58" height="1.56" rx="0.78" ry="0.78" transform="translate(-46.38 855.77) rotate(-35.9)"/><rect class="cls-69" x="1298.89" y="492.36" width="4.58" height="1.56" rx="0.78" ry="0.78" transform="matrix(0.59, 0.81, -0.81, 0.59, 937.79, -850.06)"/><rect class="cls-69" x="1302.53" y="502.39" width="4.58" height="1.56" rx="0.78" ry="0.78" transform="matrix(0.81, -0.59, 0.59, 0.81, -47.22, 860.58)"/><rect class="cls-69" x="1298.93" y="502.6" width="4.58" height="1.56" rx="0.78" ry="0.78" transform="translate(946.1 -845.86) rotate(54.1)"/><rect class="cls-69" x="1294.82" y="497.03" width="4.58" height="1.56" rx="0.78" ry="0.78" transform="translate(-48.16 150.61) rotate(-6.52)"/><rect class="cls-69" x="1305.26" y="498.25" width="4.58" height="1.56" rx="0.78" ry="0.78" transform="matrix(0.82, 0.57, -0.57, 0.82, 510.89, -651.65)"/><rect class="cls-69" x="1296.54" y="497.21" width="7.54" height="1.56" rx="0.78" ry="0.78" transform="translate(941.36 -847.36) rotate(54.1)"/><rect class="cls-69" x="1301.85" y="497.03" width="7.54" height="1.56" rx="0.78" ry="0.78" transform="translate(3.18 1003.9) rotate(-42.11)"/><rect class="cls-68" x="1313.07" y="511.76" width="22.51" height="1.66" rx="0.83" ry="0.83"/><rect class="cls-69" x="1323.47" y="493.36" width="1.72" height="19.23" rx="0.86" ry="0.86"/><rect class="cls-69" x="1323.62" y="497" width="4.58" height="1.56" rx="0.78" ry="0.78" transform="translate(-40.05 871.92) rotate(-35.9)"/><rect class="cls-69" x="1316.66" y="503.54" width="4.58" height="1.56" rx="0.78" ry="0.78" transform="translate(-45.2 869.08) rotate(-35.9)"/><rect class="cls-69" x="1320.03" y="497.21" width="4.58" height="1.56" rx="0.78" ry="0.78" transform="translate(950.45 -865.18) rotate(54.1)"/><rect class="cls-69" x="1323.66" y="507.24" width="4.58" height="1.56" rx="0.78" ry="0.78" transform="translate(-46.04 873.89) rotate(-35.9)"/><rect class="cls-69" x="1320.07" y="507.44" width="4.58" height="1.56" rx="0.78" ry="0.78" transform="translate(958.76 -860.98) rotate(54.1)"/><rect class="cls-69" x="1315.95" y="501.87" width="4.58" height="1.56" rx="0.78" ry="0.78" transform="translate(-48.58 153.04) rotate(-6.52)"/><rect class="cls-69" x="1326.39" y="503.09" width="4.58" height="1.56" rx="0.78" ry="0.78" transform="translate(517.33 -662.74) rotate(34.41)"/><rect class="cls-69" x="1317.68" y="502.05" width="7.54" height="1.56" rx="0.78" ry="0.78" transform="translate(954.02 -862.47) rotate(54.1)"/><rect class="cls-69" x="1322.98" y="501.87" width="7.54" height="1.56" rx="0.78" ry="0.78" transform="translate(5.39 1019.32) rotate(-42.11)"/><rect class="cls-68" x="1247.64" y="506.15" width="22.51" height="1.66" rx="0.83" ry="0.83"/><rect class="cls-69" x="1258.04" y="487.75" width="1.72" height="19.23" rx="0.86" ry="0.86"/><rect class="cls-69" x="1258.2" y="491.39" width="4.58" height="1.56" rx="0.78" ry="0.78" transform="matrix(0.81, -0.59, 0.59, 0.81, -49.19, 832.5)"/><rect class="cls-69" x="1251.23" y="497.93" width="4.58" height="1.56" rx="0.78" ry="0.78" transform="translate(-54.34 829.65) rotate(-35.9)"/><rect class="cls-69" x="1254.6" y="491.6" width="4.58" height="1.56" rx="0.78" ry="0.78" transform="translate(918.85 -814.5) rotate(54.1)"/><rect class="cls-69" x="1258.24" y="501.63" width="4.58" height="1.56" rx="0.78" ry="0.78" transform="translate(-55.18 834.46) rotate(-35.9)"/><rect class="cls-69" x="1254.64" y="501.84" width="4.58" height="1.56" rx="0.78" ry="0.78" transform="translate(927.16 -810.3) rotate(54.1)"/><rect class="cls-69" x="1250.53" y="496.27" width="4.58" height="1.56" rx="0.78" ry="0.78" transform="translate(-48.36 145.57) rotate(-6.52)"/><rect class="cls-69" x="1260.96" y="497.48" width="4.58" height="1.56" rx="0.78" ry="0.78" transform="translate(502.71 -626.75) rotate(34.41)"/><rect class="cls-69" x="1252.25" y="496.45" width="7.54" height="1.56" rx="0.78" ry="0.78" transform="translate(922.41 -811.79) rotate(54.1)"/><rect class="cls-69" x="1257.56" y="496.27" width="7.54" height="1.56" rx="0.78" ry="0.78" transform="translate(-7.73 974) rotate(-42.11)"/><rect class="cls-68" x="1296.04" y="520.96" width="22.51" height="1.66" rx="0.83" ry="0.83"/><rect class="cls-69" x="1306.44" y="502.56" width="1.72" height="19.23" rx="0.86" ry="0.86"/><rect class="cls-69" x="1306.6" y="506.2" width="4.58" height="1.56" rx="0.78" ry="0.78" transform="translate(-48.67 863.69) rotate(-35.9)"/><rect class="cls-69" x="1299.63" y="512.74" width="4.58" height="1.56" rx="0.78" ry="0.78" transform="translate(-53.83 860.84) rotate(-35.9)"/><rect class="cls-69" x="1303" y="506.41" width="4.58" height="1.56" rx="0.78" ry="0.78" transform="translate(950.86 -847.58) rotate(54.1)"/><rect class="cls-69" x="1306.64" y="516.44" width="4.58" height="1.56" rx="0.78" ry="0.78" transform="matrix(0.81, -0.59, 0.59, 0.81, -54.67, 865.65)"/><rect class="cls-69" x="1303.04" y="516.65" width="4.58" height="1.56" rx="0.78" ry="0.78" transform="translate(959.18 -843.38) rotate(54.1)"/><rect class="cls-69" x="1298.93" y="511.07" width="4.58" height="1.56" rx="0.78" ry="0.78" transform="translate(-49.73 151.17) rotate(-6.52)"/><rect class="cls-69" x="1309.37" y="512.29" width="4.58" height="1.56" rx="0.78" ry="0.78" transform="translate(519.55 -651.51) rotate(34.41)"/><rect class="cls-69" x="1300.65" y="511.25" width="7.54" height="1.56" rx="0.78" ry="0.78" transform="translate(954.43 -844.88) rotate(54.1)"/><rect class="cls-69" x="1305.96" y="511.07" width="7.54" height="1.56" rx="0.78" ry="0.78" transform="translate(-5.17 1010.28) rotate(-42.11)"/><path class="cls-70" d="M1109.61,526.25s2-26.4,28.07-26.4h98.67s25.57,1.11,25.57,26.4c0,0,4.45.28,4.45,5.84H1109.61S1102.38,530.14,1109.61,526.25Z"/><rect class="cls-71" x="1154.59" y="490.87" width="4.59" height="14.38" rx="2.29" ry="2.29" transform="matrix(0.89, -0.46, 0.46, 0.89, -99.69, 584.5)"/><rect class="cls-71" x="1159.79" y="491.07" width="4.59" height="12.09" rx="2.29" ry="2.29" transform="translate(73.05 -144.42) rotate(7.34)"/><rect class="cls-71" x="1164.63" y="495.78" width="4.59" height="9.53" rx="2.29" ry="2.29" transform="translate(331.81 -455.93) rotate(25.66)"/><rect class="cls-72" x="1157.76" y="494.75" width="3.5" height="8.16" rx="1.75" ry="1.75"/><path class="cls-73" d="M1156.11,516s-3.06-7.51-3.06-10,5.28-6.67,8.34-6.67,8.39,3.34,8.39,8.34a13.21,13.21,0,0,1-3.11,8.34Z"/><rect class="cls-74" x="1154.3" y="504.71" width="9.17" height="1.95" rx="0.97" ry="0.97"/><rect class="cls-74" x="1165.19" y="504.71" width="3.47" height="1.95" rx="0.97" ry="0.97"/><rect class="cls-74" x="1157.76" y="509.58" width="9.17" height="1.95" rx="0.97" ry="0.97"/><rect class="cls-75" x="1149.61" y="515.97" width="22.51" height="1.66" rx="0.83" ry="0.83"/><rect class="cls-71" x="1132.08" y="481.26" width="4.59" height="14.38" rx="2.29" ry="2.29" transform="translate(-97.79 573.14) rotate(-27.23)"/><rect class="cls-71" x="1137.27" y="481.46" width="4.59" height="12.09" rx="2.29" ry="2.29" transform="translate(71.63 -141.62) rotate(7.34)"/><rect class="cls-71" x="1142.12" y="486.16" width="4.59" height="9.53" rx="2.29" ry="2.29" transform="translate(325.43 -447.13) rotate(25.66)"/><rect class="cls-72" x="1135.24" y="485.13" width="3.5" height="8.16" rx="1.75" ry="1.75"/><path class="cls-73" d="M1133.6,506.35s-3.06-7.5-3.06-10,5.28-6.67,8.34-6.67,8.38,3.33,8.38,8.34a13.18,13.18,0,0,1-3.1,8.33Z"/><rect class="cls-74" x="1131.79" y="495.1" width="9.17" height="1.95" rx="0.97" ry="0.97"/><rect class="cls-74" x="1142.68" y="495.1" width="3.47" height="1.95" rx="0.97" ry="0.97"/><rect class="cls-74" x="1135.24" y="499.96" width="9.17" height="1.95" rx="0.97" ry="0.97"/><rect class="cls-75" x="1127.1" y="506.35" width="22.51" height="1.66" rx="0.83" ry="0.83"/><rect class="cls-71" x="1183" y="481.26" width="4.59" height="14.38" rx="2.29" ry="2.29" transform="translate(-92.14 596.43) rotate(-27.23)"/><rect class="cls-71" x="1188.19" y="481.46" width="4.59" height="12.09" rx="2.29" ry="2.29" transform="matrix(0.99, 0.13, -0.13, 0.99, 72.05, -148.13)"/><rect class="cls-71" x="1193.04" y="486.16" width="4.59" height="9.53" rx="2.29" ry="2.29" transform="translate(330.45 -469.18) rotate(25.66)"/><rect class="cls-72" x="1186.16" y="485.13" width="3.5" height="8.16" rx="1.75" ry="1.75"/><path class="cls-73" d="M1184.52,506.35s-3.06-7.5-3.06-10,5.28-6.67,8.34-6.67,8.38,3.33,8.38,8.34a13.18,13.18,0,0,1-3.1,8.33Z"/><rect class="cls-74" x="1182.71" y="495.1" width="9.17" height="1.95" rx="0.97" ry="0.97"/><rect class="cls-74" x="1193.6" y="495.1" width="3.47" height="1.95" rx="0.97" ry="0.97"/><rect class="cls-74" x="1186.16" y="499.96" width="9.17" height="1.95" rx="0.97" ry="0.97"/><rect class="cls-75" x="1178.02" y="506.35" width="22.51" height="1.66" rx="0.83" ry="0.83"/><rect class="cls-71" x="1217.46" y="481.26" width="4.59" height="14.38" rx="2.29" ry="2.29" transform="translate(-88.32 612.21) rotate(-27.23)"/><rect class="cls-71" x="1222.66" y="481.46" width="4.59" height="12.09" rx="2.29" ry="2.29" transform="translate(72.34 -152.53) rotate(7.34)"/><rect class="cls-71" x="1227.51" y="486.16" width="4.59" height="9.53" rx="2.29" ry="2.29" transform="translate(333.85 -484.1) rotate(25.66)"/><rect class="cls-72" x="1220.63" y="485.13" width="3.5" height="8.16" rx="1.75" ry="1.75"/><path class="cls-73" d="M1219,506.35s-3-7.5-3-10,5.28-6.67,8.33-6.67,8.39,3.33,8.39,8.34a13.16,13.16,0,0,1-3.11,8.33Z"/><rect class="cls-74" x="1217.18" y="495.1" width="9.17" height="1.95" rx="0.97" ry="0.97"/><rect class="cls-74" x="1228.06" y="495.1" width="3.47" height="1.95" rx="0.97" ry="0.97"/><rect class="cls-74" x="1220.63" y="499.96" width="9.17" height="1.95" rx="0.97" ry="0.97"/><rect class="cls-75" x="1212.49" y="506.35" width="22.51" height="1.66" rx="0.83" ry="0.83"/><rect class="cls-71" x="1200.72" y="489.41" width="4.59" height="14.38" rx="2.29" ry="2.29" transform="translate(-93.91 605.45) rotate(-27.23)"/><rect class="cls-71" x="1205.92" y="489.61" width="4.59" height="12.09" rx="2.29" ry="2.29" transform="matrix(0.99, 0.13, -0.13, 0.99, 73.24, -150.32)"/><rect class="cls-71" x="1210.77" y="494.32" width="4.59" height="9.53" rx="2.29" ry="2.29" transform="translate(335.73 -476.05) rotate(25.66)"/><rect class="cls-72" x="1203.89" y="493.29" width="3.5" height="8.16" rx="1.75" ry="1.75"/><path class="cls-73" d="M1202.25,514.51s-3.06-7.5-3.06-10,5.28-6.67,8.34-6.67,8.38,3.34,8.38,8.34a13.23,13.23,0,0,1-3.1,8.34Z"/><rect class="cls-74" x="1200.44" y="503.25" width="9.17" height="1.95" rx="0.97" ry="0.97"/><rect class="cls-74" x="1211.33" y="503.25" width="3.47" height="1.95" rx="0.97" ry="0.97"/><rect class="cls-74" x="1203.89" y="508.12" width="9.17" height="1.95" rx="0.97" ry="0.97"/><rect class="cls-75" x="1195.75" y="514.51" width="22.51" height="1.66" rx="0.83" ry="0.83"/><rect class="cls-27" x="740.15" y="423.89" width="27.5" height="12.5" rx="6.25" ry="6.25"/><rect class="cls-27" x="710.65" y="426.89" width="13.5" height="9.5" rx="4.75" ry="4.75"/><rect class="cls-27" x="770.15" y="430.14" width="19" height="11.25" rx="5.62" ry="5.62"/><path class="cls-45" d="M893.45,496.51c-.61,1.14-1.34.42-2,.14.05-1.75.08-3.5.15-5.25.12-2.72.45-5.35-3-6.62-1.42-.51-3.13-2.76-2.16-3.89,1.29-1.5,2.68.69,3.93,1.54l1.16.79V468a1.13,1.13,0,0,1,.94-1.43c.78-.17,1.22.2,1.17,1v11.8c1.62-2,2.88-3.61,4.82-4.39.71-.28,1.51-.68,2.11.05a1.75,1.75,0,0,1-.09,1.86,8.19,8.19,0,0,1-5.18,4.75c-1.47.42-1.82,1.19-1.79,2.6C893.5,488.38,893.45,492.44,893.45,496.51Z"/><path class="cls-46" d="M906.29,497.3c-.57.7-1.09.63-1.59-.08a44.79,44.79,0,0,1,0-4.49c.24-2.32,0-4.06-2.71-4.91a4.47,4.47,0,0,1-2.77-3.87c0-.34.15-.7.57-.65a5.61,5.61,0,0,1,3.89,2.44c.18.24.41.46,1,1.16v-9.61a1,1,0,0,1,.53-.38.82.82,0,0,1,.87.36c0,1,.09,2,.15,3.27,1.17-1,2.1-2.08,3.75-2.13a3.63,3.63,0,0,1-2.32,3.52,2.16,2.16,0,0,0-1.54,2.4C906.29,488.65,906.26,493,906.29,497.3Z"/><path class="cls-47" d="M906.66,476.78l-.84-.08a3,3,0,0,1-.51-2.95c.3-1.16,2.61-1.9.72-3.52a2.85,2.85,0,0,1-.17-3.91c1.72,1,4,.91,4.65,3.63.62,2.5-.12,4.94-2.69,5.93A5.11,5.11,0,0,0,906.66,476.78Z"/><path class="cls-48" d="M905.32,473.31c0,1.12,0,2.25,0,3.38l-.55.09c-1.76-1-3.74-1.75-4.24-4.14a5,5,0,0,1,0-2.08c.54-2.71,2.76-3.32,4.78-4.25,0,1.36-.51,2.86,1,3.86C905,470.92,904.06,471.77,905.32,473.31Z"/><path class="cls-46" d="M919.51,497c-.71.88-1.36.78-2-.1a55.21,55.21,0,0,1,0-5.61c.29-2.89-.05-5.07-3.39-6.13-2-.63-3.14-2.63-3.45-4.83a.66.66,0,0,1,.7-.82,7,7,0,0,1,4.86,3.05c.23.3.51.58,1.31,1.45V472a1.16,1.16,0,0,1,.65-.48,1,1,0,0,1,1.08.46c.06,1.24.12,2.48.19,4.08,1.46-1.23,2.63-2.59,4.68-2.66a4.52,4.52,0,0,1-2.89,4.4,2.68,2.68,0,0,0-1.92,3C919.51,486.18,919.48,491.58,919.51,497Z"/><path class="cls-47" d="M920,471.35l-1.06-.1c-1-1.09-.9-2.37-.63-3.68s3.26-2.38.9-4.4c-1.26-1.58-1.54-3.19-.21-4.88,2.14,1.21,4.95,1.14,5.8,4.53.78,3.12-.14,6.17-3.36,7.42A6.46,6.46,0,0,0,920,471.35Z"/><path class="cls-48" d="M918.3,467c0,1.4,0,2.81,0,4.22l-.68.12c-2.21-1.26-4.68-2.19-5.3-5.18a6,6,0,0,1,.06-2.6c.67-3.38,3.45-4.15,6-5.3,0,1.7-.64,3.57,1.19,4.82C918,464,916.73,465.09,918.3,467Z"/><path class="cls-49" d="M886.73,455.65c2.5-.66,3.87,1.42,5.75,2.13,1.46.56,3-2.85,5.54-2.29.51.11,1.11,0,1.23.75a11.5,11.5,0,0,1-4.6,4.87,25.71,25.71,0,0,1-4-.1C889.33,459.23,887,458.22,886.73,455.65Z"/><path class="cls-50" d="M893.55,467c-1.06-1.8-1.53-.39-2.11.39l-2,.8c-.93.33-2.11.73-2.65-.23s.46-1.8,1.12-2.51a8.13,8.13,0,0,1,3.38-2.55,5.69,5.69,0,0,1,2.72,0,8.33,8.33,0,0,1,3.54,2.69c.63.69,1.6,1.53,1,2.47s-1.71.51-2.63.16C894.91,468.23,894.35,467.38,893.55,467Z"/><path class="cls-51" d="M895.93,468.18l2.62-.23a21.23,21.23,0,0,0-4.58-4.48,1.83,1.83,0,0,1,.5-2,2.49,2.49,0,0,1,2.37.14,27.08,27.08,0,0,1,2.21,3.47c.49,1.05.81,2.46-.15,3.34A2.27,2.27,0,0,1,895.93,468.18Z"/><path class="cls-52" d="M891.4,463.48a21.1,21.1,0,0,0-4.31,4.1c.68.89,1.63.38,2.37.6a2.3,2.3,0,0,1-3,.23c-1-.87-.64-2.3-.18-3.35a23.9,23.9,0,0,1,2.25-3.47c.81-.64,1.51-.16,2.22.21C891.27,462.25,891.68,462.74,891.4,463.48Z"/><path class="cls-53" d="M890.62,462.16l-2.07-.57c-2.27-1.47-3.46-3.27-1.82-5.94,1.09,2,3.66,2.83,4.06,5.33A.8.8,0,0,1,890.62,462.16Z"/><path class="cls-54" d="M896.84,461.59a2.46,2.46,0,0,1-2.15-.08l-.2-.2.07-.27a18.94,18.94,0,0,1,4.69-4.8A4.59,4.59,0,0,1,896.84,461.59Z"/><path class="cls-55" d="M894.56,461a.66.66,0,0,0,.13.47l-.72,2H891.4l-.78-1.32c.06-.39.11-.78.17-1.18A2.44,2.44,0,0,1,894.56,461Z"/><rect class="cls-76" x="1080.95" y="359.16" width="175.97" height="68.16"/><path class="cls-63" d="M1257.86,428.27H1080v-70h177.86Zm-176-1.89H1256V360.11H1081.9Z"/><rect class="cls-76" x="1240.01" y="228.92" width="16.9" height="120.64"/><path class="cls-63" d="M1257.86,350.51h-18.8V228h18.8Zm-16.9-1.9h15V229.87h-15Z"/><rect class="cls-76" x="1080.95" y="228.92" width="16.9" height="120.64"/><path class="cls-63" d="M1098.8,350.51H1080V228h18.8Zm-16.9-1.9h15V229.87h-15Z"/><rect class="cls-76" x="1115.44" y="188.58" width="7.38" height="26.32"/><path class="cls-77" d="M1123.78,215.85h-9.28V187.63h9.28Zm-7.39-1.9h5.49V189.53h-5.49Z"/><rect class="cls-76" x="1208.81" y="188.58" width="7.38" height="26.32"/><path class="cls-77" d="M1217.14,215.85h-9.28V187.63h9.28Zm-7.39-1.9h5.49V189.53h-5.49Z"/><path class="cls-78" d="M1062.89,228.73h30v57.59s-3.84,8.27-15,8.27c0,0-15,.22-15-12.07Z"/><path class="cls-63" d="M1077.78,295.53c-.93,0-8.09-.14-12.49-4.47a11.52,11.52,0,0,1-3.35-8.54V227.78h31.87v58.75l-.09.19c-.17.36-4.23,8.81-15.84,8.81Zm-13.94-65.85v52.84a9.71,9.71,0,0,0,2.78,7.19c4.06,4,11.17,3.94,11.24,3.93,9.55,0,13.44-6.41,14.05-7.55V229.68Z"/><path class="cls-4" d="M1092.86,228.73h30v57.59s-3.84,8.27-15,8.27c0,0-15,.22-15-12.07Z"/><path class="cls-63" d="M1107.75,295.53c-.93,0-8.09-.14-12.49-4.47a11.52,11.52,0,0,1-3.35-8.54V227.78h31.87v58.75l-.09.19c-.17.36-4.23,8.81-15.85,8.81Zm-13.94-65.85v52.84a9.67,9.67,0,0,0,2.78,7.19c4.06,4,11.15,3.94,11.24,3.93,9.55,0,13.44-6.41,14.05-7.55V229.68Z"/><path class="cls-78" d="M1122.83,228.73h30v57.59s-3.85,8.27-15,8.27c0,0-15,.22-15-12.07Z"/><path class="cls-63" d="M1137.72,295.53c-.93,0-8.09-.14-12.49-4.47a11.52,11.52,0,0,1-3.35-8.54V227.78h31.86v58.75l-.09.19c-.16.36-4.23,8.81-15.84,8.81Zm-13.94-65.85v52.84a9.67,9.67,0,0,0,2.78,7.19c4,4,11.15,3.94,11.24,3.93,9.55,0,13.43-6.41,14-7.55V229.68Z"/><path class="cls-4" d="M1152.8,228.73h30v57.59s-3.84,8.27-15,8.27c0,0-15,.22-15-12.07Z"/><path class="cls-63" d="M1167.69,295.53c-.93,0-8.1-.14-12.49-4.47a11.48,11.48,0,0,1-3.35-8.54V227.78h31.86v58.75l-.09.19c-.16.36-4.23,8.81-15.84,8.81Zm-14-65.85v52.84a9.68,9.68,0,0,0,2.79,7.19c4,4,11.15,3.94,11.24,3.93,9.55,0,13.43-6.41,14-7.55V229.68Z"/><path class="cls-78" d="M1182.76,228.73h30v57.59s-3.84,8.27-15,8.27c0,0-15,.22-15-12.07Z"/><path class="cls-63" d="M1197.66,295.53c-.94,0-8.1-.14-12.5-4.47a11.51,11.51,0,0,1-3.34-8.54V227.78h31.86v58.75l-.09.19c-.17.36-4.23,8.81-15.84,8.81Zm-14-65.85v52.84a9.71,9.71,0,0,0,2.78,7.19c4.06,4,11.17,3.94,11.24,3.93,9.56,0,13.44-6.41,14-7.55V229.68Z"/><path class="cls-78" d="M1242.7,228.73h30v57.59s-3.85,8.27-15,8.27c0,0-15,.22-15-12.07Z"/><path class="cls-63" d="M1257.59,295.53c-.93,0-8.09-.14-12.49-4.47a11.52,11.52,0,0,1-3.35-8.54V227.78h31.86v58.75l-.08.19c-.17.36-4.23,8.81-15.85,8.81Zm-13.94-65.85v52.84a9.67,9.67,0,0,0,2.78,7.19c4,4,11.15,3.94,11.24,3.93,9.55,0,13.44-6.41,14-7.55V229.68Z"/><path class="cls-4" d="M1212.73,228.73h30v57.59s-3.84,8.27-15,8.27c0,0-15,.22-15-12.07Z"/><path class="cls-63" d="M1227.62,295.53c-.93,0-8.09-.14-12.49-4.47a11.52,11.52,0,0,1-3.35-8.54V227.78h31.87v58.75l-.09.19c-.17.36-4.23,8.81-15.84,8.81Zm-13.94-65.85v52.84a9.67,9.67,0,0,0,2.78,7.19c4.06,4,11.17,3.94,11.24,3.93,9.55,0,13.44-6.41,14-7.55V229.68Z"/><path class="cls-79" d="M1062.89,268.93h30V285s-3.84,8.26-15,8.26c0,0-15,.23-15-12.07Z"/><path class="cls-79" d="M1092.86,268.93h30V285s-3.84,8.26-15,8.26c0,0-15,.23-15-12.07Z"/><path class="cls-79" d="M1122.83,268.93h30V285s-3.85,8.26-15,8.26c0,0-15,.23-15-12.07Z"/><path class="cls-79" d="M1152.8,268.93h30V285s-3.84,8.26-15,8.26c0,0-15,.23-15-12.07Z"/><path class="cls-79" d="M1182.76,268.93h30V285s-3.84,8.26-15,8.26c0,0-15,.23-15-12.07Z"/><path class="cls-79" d="M1242.7,268.93h30V285s-3.85,8.26-15,8.26c0,0-15,.23-15-12.07Z"/><path class="cls-79" d="M1212.73,268.93h30V285s-3.84,8.26-15,8.26c0,0-15,.23-15-12.07Z"/><rect class="cls-76" x="1057.13" y="214.9" width="221.3" height="13.83" rx="6" ry="6"/><path class="cls-63" d="M1274.64,229.68H1060.92a4.75,4.75,0,0,1-4.74-4.74v-6.25a4.75,4.75,0,0,1,4.74-4.74h213.72a4.75,4.75,0,0,1,4.74,4.74v6.25A4.75,4.75,0,0,1,1274.64,229.68Zm-213.72-13.83a2.84,2.84,0,0,0-2.84,2.84v6.25a2.84,2.84,0,0,0,2.84,2.84h213.72a2.84,2.84,0,0,0,2.84-2.84v-6.25a2.84,2.84,0,0,0-2.84-2.84Z"/><rect class="cls-80" x="1057.13" y="346.3" width="221.3" height="13.83" rx="6" ry="6"/><path class="cls-63" d="M1274.64,361.08H1060.92a4.75,4.75,0,0,1-4.74-4.74v-6.25a4.74,4.74,0,0,1,4.74-4.74h213.72a4.74,4.74,0,0,1,4.74,4.74v6.25A4.75,4.75,0,0,1,1274.64,361.08Zm-213.72-13.84a2.85,2.85,0,0,0-2.84,2.85v6.25a2.84,2.84,0,0,0,2.84,2.84h213.72a2.84,2.84,0,0,0,2.84-2.84v-6.25a2.85,2.85,0,0,0-2.84-2.85Z"/><rect class="cls-4" x="1100.93" y="167.06" width="136.01" height="32.27" rx="2.52" ry="2.52"/><path class="cls-63" d="M1235.34,200.28H1102.52a2.54,2.54,0,0,1-2.54-2.54V168.66a2.55,2.55,0,0,1,2.54-2.55h132.82a2.55,2.55,0,0,1,2.54,2.55v29.08A2.54,2.54,0,0,1,1235.34,200.28ZM1102.52,168a.65.65,0,0,0-.64.65v29.08a.65.65,0,0,0,.64.65h132.82a.66.66,0,0,0,.65-.65V168.66a.66.66,0,0,0-.65-.65Z"/><path class="cls-63" d="M1308.29,271.46h-15.53l-.1-.84c0-.37-1-9,2.47-12.91a5.58,5.58,0,0,1,4.21-2l0,1.44V252c-.14-.7-1.5-6.06-8.85-6.06s-8.22,7.14-8.27,7.73v12.83h-9.59v-1.9h7.69v-11c0-.16.75-9.59,10.17-9.59s10.72,7.63,10.73,7.7l0,.16v3.91a6.65,6.65,0,0,1,4.34,2.22c3.66,4.09,2.8,12.26,2.76,12.61Zm-13.81-1.89h12.08c.11-2.09.13-7.53-2.35-10.3a4.93,4.93,0,0,0-3.88-1.64h-.95a3.71,3.71,0,0,0-2.82,1.32C1294.23,261.63,1294.35,267.4,1294.48,269.57Z"/><path class="cls-63" d="M1286.11,281.85h29.2s.77-11.34-5-11.34h-20.21S1286.11,272.43,1286.11,281.85Z"/><path class="cls-63" d="M1315.61,282.16H1285.8v-.31c0-9.51,4-11.54,4.17-11.62l.14,0h20.21a4,4,0,0,1,3,1.3c2.79,3,2.34,10.07,2.32,10.37Zm-29.18-.63H1315c.06-1.37.13-7.14-2.17-9.6a3.29,3.29,0,0,0-2.52-1.1h-20.13C1289.72,271.11,1286.51,273.34,1286.43,281.53Z"/><path class="cls-63" d="M1041.6,269.71h-15.53l-.09-.84c0-.34-.9-8.52,2.75-12.6a6.66,6.66,0,0,1,4.35-2.23V250c0-.08,1.39-7.71,10.73-7.71S1054,251.7,1054,251.8v11h7.7v1.9h-9.59V251.9c0-.6-.8-7.74-8.28-7.74-3.28,0-5.77,1.05-7.39,3.1a7.8,7.8,0,0,0-1.46,3v5.2l0-1.44a5.57,5.57,0,0,1,4.22,2c3.43,3.94,2.5,12.55,2.46,12.91Zm-13.8-1.89h12.08c.13-2.17.25-7.94-2.08-10.61a3.73,3.73,0,0,0-2.83-1.33H1034a4.91,4.91,0,0,0-3.88,1.65C1027.66,260.3,1027.69,265.73,1027.8,267.82Z"/><path class="cls-63" d="M1048.24,280.1H1019s-.77-11.33,5-11.33h20.21S1048.24,270.69,1048.24,280.1Z"/><path class="cls-63" d="M1048.56,280.42h-29.81l0-.3c0-.3-.47-7.38,2.32-10.37a4,4,0,0,1,3-1.3h20.28l.07,0c.17.08,4.17,2.12,4.17,11.62Zm-29.22-.64h28.58c-.08-8.18-3.28-10.42-3.75-10.7H1024a3.29,3.29,0,0,0-2.53,1.11C1019.22,272.64,1019.29,278.41,1019.34,279.78Z"/><rect class="cls-81" x="1080.95" y="360.13" width="175.97" height="9.03"/><rect class="cls-81" x="1064.43" y="228.92" width="206.79" height="9.03"/><text class="cls-82" transform="translate(1115.95 188.01)"><tspan class="cls-83">L</tspan><tspan x="5.87" y="0">O</tspan><tspan class="cls-84" x="15.21" y="0">C</tspan><tspan class="cls-85" x="23.13" y="0">AL GARDENER</tspan></text><g class="cls-26"><path class="cls-77" d="M1097.85,405.9a.63.63,0,0,1-.63-.63V381.06a.64.64,0,0,1,1.27,0v24.21A.64.64,0,0,1,1097.85,405.9Z"/></g><g class="cls-26"><path class="cls-77" d="M1093.24,422.81a.64.64,0,0,1-.63-.64V398a.63.63,0,0,1,.63-.63.64.64,0,0,1,.64.63v24.2A.64.64,0,0,1,1093.24,422.81Z"/></g><g class="cls-26"><path class="cls-77" d="M1240,393.8a.63.63,0,0,1-.63-.63V369a.63.63,0,1,1,1.26,0v24.21A.63.63,0,0,1,1240,393.8Z"/></g><g class="cls-26"><path class="cls-77" d="M1189.79,421.54a.63.63,0,0,1-.63-.63V396.7a.63.63,0,1,1,1.26,0v24.21A.63.63,0,0,1,1189.79,421.54Z"/></g><g class="cls-26"><path class="cls-77" d="M1145.12,408.53a.63.63,0,0,1-.63-.63V371.71a.63.63,0,0,1,.63-.63.64.64,0,0,1,.64.63V407.9A.64.64,0,0,1,1145.12,408.53Z"/></g><g class="cls-86"><path class="cls-77" d="M1176,384.26a.31.31,0,0,1-.32-.31V372.61a.32.32,0,0,1,.63,0V384A.31.31,0,0,1,1176,384.26Z"/></g><g class="cls-86"><path class="cls-77" d="M1216.19,404.27a.63.63,0,0,1-.63-.63V392.3a.63.63,0,0,1,1.26,0v11.34A.63.63,0,0,1,1216.19,404.27Z"/></g><g class="cls-26"><path class="cls-77" d="M1211.69,396.1a.63.63,0,0,1-.63-.63V384.14a.63.63,0,0,1,1.26,0v11.33A.63.63,0,0,1,1211.69,396.1Z"/></g><g class="cls-26"><path class="cls-77" d="M1121.49,415.1a.63.63,0,0,1-.63-.63v-19a.63.63,0,1,1,1.26,0v19A.63.63,0,0,1,1121.49,415.1Z"/></g><g class="cls-26"><path class="cls-77" d="M1127.44,394.08a.63.63,0,0,1-.63-.63v-19a.63.63,0,0,1,1.26,0v19A.63.63,0,0,1,1127.44,394.08Z"/></g><rect class="cls-18" x="1013.99" y="426.43" width="344.54" height="4.04" rx="2.02" ry="2.02"/><rect class="cls-18" x="1013.49" y="426.43" width="344.54" height="4.04" rx="2.02" ry="2.02"/><rect class="cls-18" x="46.96" y="421.43" width="344.54" height="4.04" rx="2.02" ry="2.02"/><rect class="cls-18" x="417.46" y="421.43" width="344.54" height="4.04" rx="2.02" ry="2.02"/><path class="cls-87" d="M46.5,523.22s-5.25-9.58,4.38-14c0,0,1-15.56,16.28-10.84,0,0,6.16-7.7,12.44-3.25,0,0-6.75-13.44,17.87-13.44,0,0,15.58,1.21,11.39,16.25,0,0,9.74.78,10,14.78,0,0,11.94-10.5,19.67,2.62v7.88Z"/><path class="cls-60" d="M135.62,523.63c-.16-14.42,1.41-29-2.61-43.15-.35-1.22-.72-2.44-1.09-3.65,4.41-4.3,9.48-6,15.49-3.94-2,2.28-2.47,5-2.45,7.93q.09,18,0,36.1c0,2.35.28,4.8-1.51,6.77Z"/><path class="cls-60" d="M143.46,523.69c0-15.55.07-31.1-.05-46.64,0-3,.84-4.52,4-4.16,2.8.47,5.56,1,6.88,4-5,15.33-2.87,31.15-3.17,46.8Z"/><path class="cls-58" d="M113.66,457.61q.14-12.47.26-24.93c1.65-1.62,3.78-1.49,5.83-1.5q23.34-.09,46.69,0c2,0,4.17-.12,5.89,1.37.83,7.62.11,15.26.38,22.88.09,2.25-1.11,3.14-3.06,3.49a27,27,0,0,1-4.76.27c-14.66,0-29.32,0-44,0C118.42,459.16,115.76,459.61,113.66,457.61Z"/><path class="cls-37" d="M94.59,424.08c4.87-6.5,11.78-9.2,19.46-10.57,8.19-1.46,16.43-.74,24.65-.93,3-1.78,6.88-1.19,9.44-3.9-.3,3.17,1.23,4,4.25,4a146.4,146.4,0,0,1,18.59.69c7.48.88,13.64,4.05,19.4,8.46,2.56,2,2.76,4.41,1,7.07-2.15-3.35-5.52-3.26-8.91-3.26q-40.06,0-80.14,0C99.69,425.6,96.89,426,94.59,424.08Z"/><path class="cls-58" d="M111.89,523.65h-7.75a64.21,64.21,0,0,0,7.71-32c-.07-9.95,3.55-18.21,11.37-24.52,1.21-2.14,3.32-2.34,5.4-2.37q14.83-.21,29.66,0c1.59,0,3.21.17,4.41,1.47,10,8.11,12.16,19.29,12.27,31.25.08,9.32,3.24,17.77,7,26.07l-7,0c-2-.86-2.61-2.68-3.3-4.48-3.35-8.67-5.69-17.53-5.61-26.95.06-7.56-2.57-14.11-8.7-18.81-13.33-10.21-31.61-4-36.22,12.27a39.34,39.34,0,0,0-1.36,9.91c-.19,8.89-2.85,17.24-5.93,25.47A6.58,6.58,0,0,1,111.89,523.65Z"/><path class="cls-58" d="M94.59,424.08c30.71,0,61.43.06,92.14-.1,3.89,0,5.23,1.23,4.67,4.89l-18.08.05a8.64,8.64,0,0,1-1.64.95c-3.12.91-6.33.52-9.51.53q-20.58.08-41.15,0c-2.52,0-5.15.29-7.32-1.53-4.88,0-9.79-.22-14.66.14C95,429.32,94,427.56,94.59,424.08Z"/><path class="cls-37" d="M162.69,466.26c-11.3,0-22.59,0-33.89,0a11.66,11.66,0,0,0-5.57.93c-4.17-2.08-8.6-.7-12.89-.87-6.78-.27-7.8-1.74-5.2-8.65,2.25,2.82,5.47,2.25,8.42,2.26,20.28.07,40.56,0,60.84.06,2.51,0,5.17-.42,7.33,1.46.64,3.56-.52,5.14-4.46,4.88C172.43,466,167.55,466.25,162.69,466.26Z"/><path class="cls-37" d="M181.73,461.42c-24.12,0-48.24,0-72.36.1-2.88,0-4.75-.48-4.23-3.88l8.52,0c18,0,36-.08,54,.08,3.47,0,4.81-.84,4.65-4.52-.29-6.83-.13-13.68-.16-20.52a2.82,2.82,0,0,1,0-3.72h1.21c-.07,8.25,0,16.51-.27,24.75-.1,3.28,1.22,4.23,4.2,3.91C180,457.29,182.53,457.46,181.73,461.42Z"/><path class="cls-45" d="M199.19,523.57c-.87,1.66-1.93.62-2.95.21.08-2.53.12-5.06.23-7.59.16-3.94.64-7.75-4.42-9.58-2.06-.74-4.52-4-3.12-5.62,1.87-2.18,3.88,1,5.68,2.23l1.68,1.14v-22a1.62,1.62,0,0,1,1.36-2.06c1.13-.24,1.76.29,1.69,1.5v17.07c2.35-2.84,4.17-5.22,7-6.35,1-.41,2.19-1,3.05.07.64.78.28,1.82-.13,2.7a11.86,11.86,0,0,1-7.49,6.86c-2.12.61-2.62,1.72-2.58,3.75C199.27,511.82,199.19,517.7,199.19,523.57Z"/><path class="cls-58" d="M172.11,428.93v3.72l-58.19,0c-.07-1.26-.14-2.53-.22-3.8Z"/><path class="cls-46" d="M94.62,523.73c-1.08,1.35-2.08,1.2-3-.15,0-2.86-.22-5.74.06-8.58.45-4.42-.06-7.74-5.17-9.36-3.07-1-4.8-4-5.28-7.39A1,1,0,0,1,82.27,497c3.22.35,5.53,2.18,7.42,4.66.36.47.79.88,2,2.23V485.53a1.8,1.8,0,0,1,1-.72,1.58,1.58,0,0,1,1.65.69c.09,1.9.18,3.79.29,6.24,2.23-1.88,4-4,7.16-4.06a6.92,6.92,0,0,1-4.43,6.71c-2.28,1-3,2.18-2.93,4.58C94.62,507.22,94.58,515.48,94.62,523.73Z"/><path class="cls-37" d="M148.14,408.68c-1.21,6-6,3.35-9.44,3.9.15-2.27-.14-4.22-2.13-5.88a5.35,5.35,0,0,1-1.7-5.6c1.28-.78,2.87-.4,4.15-1.14,3.19,0,6.5-1.15,9.47,1,3.52-.34,4.34,1.12,2.57,4A36.65,36.65,0,0,1,148.14,408.68Z"/><path class="cls-47" d="M95.34,484.56l-1.61-.16c-1.59-1.66-1.38-3.62-1-5.62.57-2.22,5-3.63,1.39-6.73-1.94-2.41-2.36-4.88-.33-7.45,3.28,1.84,7.57,1.73,8.87,6.92,1.19,4.78-.22,9.43-5.13,11.33A10.1,10.1,0,0,0,95.34,484.56Z"/><path class="cls-48" d="M92.77,477.93l0,6.46-1,.18c-3.37-1.93-7.14-3.34-8.09-7.91a9.21,9.21,0,0,1,.09-4c1-5.16,5.27-6.34,9.13-8.1,0,2.6-1,5.45,1.82,7.36C92.25,473.39,90.37,475,92.77,477.93Z"/><path class="cls-46" d="M217.76,524.72c-.81,1-1.57.91-2.29-.12a63.82,63.82,0,0,1,.05-6.49c.33-3.35-.05-5.87-3.92-7.1-2.33-.73-3.64-3.05-4-5.6a.76.76,0,0,1,.82-.94A8.07,8.07,0,0,1,214,508c.27.35.6.66,1.52,1.68v-13.9a1.32,1.32,0,0,1,.76-.55,1.19,1.19,0,0,1,1.25.52c.07,1.44.13,2.87.22,4.73,1.69-1.42,3-3,5.42-3.08a5.24,5.24,0,0,1-3.35,5.09,3.11,3.11,0,0,0-2.22,3.47C217.76,512.21,217.73,518.46,217.76,524.72Z"/><path class="cls-47" d="M218.31,495l-1.22-.12c-1.2-1.26-1.05-2.74-.74-4.26.43-1.68,3.78-2.75,1.05-5.09-1.47-1.83-1.79-3.7-.25-5.65,2.48,1.4,5.74,1.31,6.72,5.24.9,3.62-.17,7.15-3.89,8.59A7.2,7.2,0,0,0,218.31,495Z"/><path class="cls-48" d="M216.36,490c0,1.63,0,3.26,0,4.89l-.79.14c-2.56-1.46-5.42-2.53-6.13-6a6.79,6.79,0,0,1,.07-3c.77-3.91,4-4.8,6.91-6.13,0,2-.74,4.12,1.38,5.57C216,486.58,214.55,487.79,216.36,490Z"/><path class="cls-46" d="M236.88,524.25c-1,1.28-2,1.14-2.86-.14,0-2.7-.21-5.43.06-8.11.42-4.19-.06-7.33-4.9-8.86-2.9-.92-4.54-3.81-5-7a1,1,0,0,1,1-1.17c3.05.32,5.23,2.06,7,4.4.34.44.74.84,1.89,2.11V488.11a1.68,1.68,0,0,1,.95-.68,1.48,1.48,0,0,1,1.56.65c.09,1.8.17,3.59.27,5.91,2.12-1.78,3.81-3.75,6.78-3.85a6.57,6.57,0,0,1-4.19,6.36c-2.16.93-2.83,2.05-2.78,4.33C236.89,508.63,236.84,516.44,236.88,524.25Z"/><path class="cls-47" d="M237.57,487.19,236,487c-1.5-1.57-1.31-3.42-.92-5.31.54-2.1,4.72-3.44,1.31-6.37-1.83-2.28-2.23-4.62-.31-7.05,3.1,1.74,7.16,1.64,8.39,6.55,1.13,4.51-.2,8.92-4.85,10.72A9,9,0,0,0,237.57,487.19Z"/><path class="cls-48" d="M235.14,480.92c0,2,0,4.07,0,6.11l-1,.18c-3.19-1.83-6.76-3.17-7.66-7.49a8.66,8.66,0,0,1,.09-3.76c1-4.89,5-6,8.63-7.67,0,2.46-.92,5.16,1.73,7C234.64,476.62,232.87,478.14,235.14,480.92Z"/><path class="cls-88" d="M84.36,445c4.73-2.4,8.17-.78,11.07,3.66-2.76.64-5,2.69-7.79,1.86-1.73-.52-1.87.56-2.23,1.56-.74,2.07-2.06,3.32-4.34,2.66C78.59,454,78.81,452,79.15,450,79.73,447.14,81,444.92,84.36,445Z"/><path class="cls-89" d="M84.36,445c-2.4,1-3.4,3.43-5.21,5-1.9.06-4,.51-4.78-2-.71-2.33.74-3.62,2.62-4.43,1.06-.45,1.93-.5,1.54-2.19-.64-2.77,1-5.1,2-7.54C85.67,436.44,85.62,440.51,84.36,445Z"/><path class="cls-90" d="M202.18,440.45c-.77-3.31.18-5.86,3.39-7.6,2.47,2.68,1.67,6.79,4.79,9.57,2.09,1.87-1.22,3.39-3.44,3.88C204.19,445.28,202.44,443.47,202.18,440.45Z"/><path class="cls-49" d="M189.48,464.49c3.61-.95,5.6,2.05,8.31,3.08,2.11.8,4.37-4.12,8-3.32.74.16,1.61,0,1.78,1.08a16.66,16.66,0,0,1-6.65,7.06,38.76,38.76,0,0,1-5.8-.15C193.25,469.66,189.8,468.21,189.48,464.49Z"/><path class="cls-50" d="M199.34,480.88c-1.53-2.6-2.21-.56-3.05.57l-2.86,1.16c-1.35.47-3.05,1.06-3.84-.33s.67-2.61,1.62-3.63c1.41-1.51,2.82-3,4.9-3.7a8.25,8.25,0,0,1,3.92,0c2.19.66,3.66,2.29,5.13,3.88.92,1,2.31,2.22,1.42,3.57s-2.47.74-3.79.24C201.32,482.68,200.5,481.45,199.34,480.88Z"/><path class="cls-91" d="M202.18,440.45l4.74,5.85c.3,1.64-.21,2.9-1.9,3.32a2.24,2.24,0,0,1-2.73-1.43c-.67-2.38-2.53-1.78-4.12-2.22-1.33-.38-3.88,0-3.62-2.07.24-1.83,2.25-3,4.28-3.28C199.93,440.47,201.14,442.2,202.18,440.45Z"/><path class="cls-51" d="M202.79,482.61l3.79-.34a30.9,30.9,0,0,0-6.64-6.48,2.68,2.68,0,0,1,.73-2.92,3.63,3.63,0,0,1,3.43.21,39.65,39.65,0,0,1,3.2,5c.7,1.53,1.17,3.56-.22,4.83C205.89,484,204.16,483.67,202.79,482.61Z"/><path class="cls-52" d="M196.24,475.81c-2.46,1.5-4.21,3.71-6.23,5.93,1,1.28,2.35.55,3.42.87-1.37,1.07-3.12,1.39-4.31.33-1.4-1.26-.93-3.33-.26-4.85a34.55,34.55,0,0,1,3.25-5c1.17-.93,2.18-.24,3.22.3C196.05,474,196.64,474.74,196.24,475.81Z"/><path class="cls-53" d="M195.11,473.9l-3-.82c-3.28-2.13-5-4.74-2.63-8.59,1.57,2.86,5.3,4.09,5.87,7.71A1.15,1.15,0,0,1,195.11,473.9Z"/><path class="cls-54" d="M204.1,473.08c-1,.23-2.1.61-3.11-.12l-.29-.28.1-.4a27.48,27.48,0,0,1,6.78-6.95C208.19,468.71,207.22,471.38,204.1,473.08Z"/><path class="cls-92" d="M111.89,523.65c4.46-11.64,6.16-23.81,7.73-36.11,1.72-13.4,13.12-21.44,27.08-20.32,11.2.9,20.83,12,20.7,24.25-.13,11.39,3,21.93,7.61,32.14h-5.76c-2.11-1-2.66-3.1-3.31-5-2.66-7.82-4.77-15.75-4.62-24.14.11-6.6-1.59-12.56-7.19-16.76a13.21,13.21,0,0,0-7.09-3.94c-5.73-1.49-10.47.66-14.91,4-6.83,5.62-6.51,13.73-7.47,21.4-1.07,8.54-2.26,17-7,24.51Z"/><path class="cls-93" d="M143.68,446.48c-2.79-.92-7.14,2-7.17-4.21,0-4.52,1-6.58,5.75-5.75.93.16,1.93-.09,2.86.05,1.62.24,4.1-1,4.64,1.13.61,2.38.82,5.34-.09,7.51C148.66,447.62,145.59,445.66,143.68,446.48Z"/><path class="cls-94" d="M166.56,441.33c0,2.64.62,5-3.28,5.08-4.75.1-3.31-3.09-3.49-5.49s-.3-4.54,3.49-4.5C167.73,436.47,166.33,439.39,166.56,441.33Z"/><path class="cls-95" d="M126.08,441.31c.14,2.86.46,5.1-3.32,5.1-4.74,0-3.07-3.3-3.33-5.61-.3-2.61,0-4.44,3.58-4.36C127.52,436.53,125.7,439.65,126.08,441.31Z"/><path class="cls-57" d="M143.22,450.14c-2-.92-5.79,1.31-5.84-1.76,0-2.47,3.7-1.21,5.66-1.16,2.28,0,6.49-1.45,6.5,1.23C149.55,451.5,145.37,449.14,143.22,450.14Z"/><path class="cls-57" d="M123,450.93c-1.92-.05-3.9.08-4.07-2-.21-2.64,2.11-1.77,3.47-1.8s3.54-.71,3.7,1.72S124,450.66,123,450.93Z"/><path class="cls-57" d="M163.44,450.94c-1.48-.21-3.61.48-3.49-2s2.25-1.78,3.67-1.75,3.67-.85,3.5,1.77C167,451,165,450.85,163.44,450.94Z"/><path class="cls-55" d="M200.8,472.28a1,1,0,0,0,.19.68l-1.05,2.83-3.7,0c-.38-.63-.76-1.27-1.13-1.91l.24-1.7C197.2,470.47,199,470.58,200.8,472.28Z"/><path class="cls-45" d="M70.55,524.88c-.67,1.27-1.49.48-2.27.16.06-1.95.09-3.89.18-5.84.12-3,.49-6-3.4-7.36-1.58-.58-3.48-3.08-2.4-4.33,1.43-1.67,3,.77,4.36,1.71l1.3.89V493.22a1.25,1.25,0,0,1,1-1.59c.87-.19,1.36.22,1.31,1.15v13.13c1.8-2.18,3.2-4,5.36-4.88.78-.32,1.68-.76,2.34.05.49.6.21,1.4-.1,2.07a9.09,9.09,0,0,1-5.76,5.28c-1.63.47-2,1.32-2,2.89C70.61,515.84,70.55,520.36,70.55,524.88Z"/><path class="cls-49" d="M63.08,479.43c2.78-.73,4.31,1.59,6.39,2.38,1.63.61,3.36-3.17,6.16-2.56.57.13,1.24,0,1.37.84a12.79,12.79,0,0,1-5.11,5.42,30.34,30.34,0,0,1-4.47-.11C66,483.41,63.33,482.3,63.08,479.43Z"/><path class="cls-50" d="M70.67,492.05c-1.18-2-1.7-.44-2.35.43l-2.2.89c-1,.37-2.35.82-3-.25s.51-2,1.24-2.79a9,9,0,0,1,3.77-2.85,6.38,6.38,0,0,1,3,0,9.14,9.14,0,0,1,4,3c.7.77,1.77,1.7,1.1,2.74s-1.91.57-2.92.18C72.18,493.43,71.55,492.48,70.67,492.05Z"/><path class="cls-51" d="M73.32,493.37l2.91-.25a23.72,23.72,0,0,0-5.1-5,2.05,2.05,0,0,1,.56-2.25,2.81,2.81,0,0,1,2.64.16,31.44,31.44,0,0,1,2.46,3.86c.54,1.17.89,2.74-.18,3.72C75.7,494.45,74.37,494.19,73.32,493.37Z"/><path class="cls-52" d="M68.28,488.15a22.89,22.89,0,0,0-4.79,4.56c.75,1,1.81.42,2.63.66a2.56,2.56,0,0,1-3.31.26c-1.09-1-.72-2.57-.21-3.73A27,27,0,0,1,65.1,486c.9-.71,1.68-.18,2.48.24C68.13,486.78,68.59,487.32,68.28,488.15Z"/><path class="cls-53" d="M67.41,486.68,65.1,486c-2.52-1.63-3.85-3.64-2-6.61,1.21,2.21,4.08,3.15,4.52,5.94A.9.9,0,0,1,67.41,486.68Z"/><path class="cls-54" d="M74.33,486a2.77,2.77,0,0,1-2.4-.08l-.22-.22.08-.31A21.16,21.16,0,0,1,77,480.09C77.47,482.68,76.73,484.73,74.33,486Z"/><path class="cls-55" d="M71.79,485.43a.78.78,0,0,0,.14.53c-.26.72-.53,1.45-.8,2.17l-2.85,0-.87-1.47c.06-.44.12-.88.19-1.31C69,484,70.41,484.12,71.79,485.43Z"/></svg>